font.ufo
<glyph name="ampersand" format="1">
  <advance width="679"/>
  <unicode hex="0026"/>
  <outline>
    <contour>
      <point x="497" y="491" type="curve" smooth="yes"/>
      <point x="511" y="452"/>
      <point x="415" y="358"/>
      <point x="324" y="275" type="curve" smooth="yes"/>
      <point x="238" y="198"/>
      <point x="160" y="151"/>
      <point x="193" y="99" type="curve" smooth="yes"/>
      <point x="221" y="56"/>
      <point x="305" y="106"/>
      <point x="393" y="193" type="curve" smooth="yes"/>
      <point x="443" y="243"/>
      <point x="492" y="297"/>
      <point x="539" y="364" type="curve"/>
      <point x="635" y="271" type="line"/>
      <point x="518" y="94"/>
      <point x="321" y="-84"/>
      <point x="229" y="-11" type="curve" smooth="yes"/>
      <point x="159" y="43"/>
      <point x="117" y="85"/>
      <point x="70" y="151" type="curve" smooth="yes"/>
      <point x="21" y="219"/>
      <point x="133" y="291"/>
      <point x="232" y="370" type="curve" smooth="yes"/>
      <point x="337" y="454"/>
      <point x="418" y="540"/>
      <point x="361" y="573" type="curve" smooth="yes"/>
      <point x="300" y="608"/>
      <point x="158" y="517"/>
      <point x="258" y="405" type="curve" smooth="yes"/>
      <point x="282" y="377"/>
      <point x="554" y="125"/>
      <point x="671" y="22" type="curve"/>
      <point x="610" y="-29" type="line"/>
      <point x="528" y="49"/>
      <point x="137" y="410"/>
      <point x="98" y="474" type="curve" smooth="yes"/>
      <point x="66" y="525"/>
      <point x="188" y="674"/>
      <point x="290" y="674" type="curve" smooth="yes"/>
      <point x="316" y="674"/>
      <point x="473" y="560"/>
    </contour>
  </outline>
</glyph>
<glyph name="comma" format="1">
  <advance width="263"/>
  <unicode hex="002C"/>
  <outline>
    <contour>
      <point x="130" y="-147" type="curve"/>
      <point x="89" y="-120" type="line"/>
      <point x="101" y="-82"/>
      <point x="113" y="-25"/>
      <point x="111" y="-4" type="curve"/>
      <point x="95" y="10"/>
      <point x="76" y="31"/>
      <point x="66" y="51" type="curve"/>
      <point x="69" y="74"/>
      <point x="120" y="116"/>
      <point x="141" y="121" type="curve"/>
      <point x="173" y="106"/>
      <point x="218" y="67"/>
      <point x="216" y="39" type="curve"/>
      <point x="208" y="-12"/>
      <point x="159" y="-114"/>
    </contour>
  </outline>
</glyph>
<glyph name="zero" format="1">
  <advance width="513"/>
  <unicode hex="0030"/>
  <outline>
    <contour>
      <point x="414" y="723" type="move" name="top"/>
    </contour>
  </outline>
</glyph>
<glyph name="three" format="1">
  <advance width="579"/>
  <unicode hex="0033"/>
  <outline>
    <contour>
      <point x="471" y="519" type="curve" smooth="yes"/>
      <point x="413" y="579"/>
      <point x="392" y="595"/>
      <point x="333" y="646" type="curve" smooth="yes"/>
      <point x="260" y="708"/>
      <point x="134" y="625"/>
      <point x="82" y="594" type="curve"/>
      <point x="151" y="511" type="line"/>
      <point x="229" y="557"/>
      <point x="360" y="625"/>
      <point x="395" y="533" type="curve"/>
      <point x="431" y="442"/>
      <point x="343" y="379"/>
      <point x="205" y="363" type="curve"/>
      <point x="261" y="265" type="line"/>
      <point x="312" y="267"/>
      <point x="359" y="283"/>
      <point x="396" y="306" type="curve"/>
      <point x="552" y="140"/>
      <point x="236" y="-27"/>
      <point x="86" y="180" type="curve"/>
      <point x="40" y="137" type="line"/>
      <point x="100" y="75"/>
      <point x="123" y="57"/>
      <point x="164" y="22" type="curve" smooth="yes"/>
      <point x="362" y="-148"/>
      <point x="626" y="155"/>
      <point x="532" y="253" type="curve" smooth="yes"/>
      <point x="504" y="282"/>
      <point x="480" y="306"/>
      <point x="440" y="340" type="curve"/>
      <point x="498" y="396"/>
      <point x="518" y="471"/>
    </contour>
  </outline>
</glyph>
<glyph name="four" format="1">
  <advance width="625"/>
  <unicode hex="0034"/>
  <outline>
    <contour>
      <point x="359" y="539" type="line"/>
      <point x="231" y="580" type="line"/>
      <point x="66" y="261" type="line"/>
      <point x="70" y="260" type="line"/>
      <point x="63" y="260" type="line"/>
      <point x="143" y="170" type="line"/>
      <point x="445" y="170" type="line"/>
      <point x="445" y="0" type="line"/>
      <point x="575" y="-29" type="line"/>
      <point x="573" y="625" type="line"/>
      <point x="445" y="666" type="line"/>
      <point x="445" y="260" type="line"/>
      <point x="211" y="260" type="line"/>
    </contour>
  </outline>
</glyph>
<glyph name="five" format="1">
  <advance width="669"/>
  <unicode hex="0035"/>
  <outline>
    <contour>
      <point x="62" y="151" type="line"/>
      <point x="94" y="125"/>
      <point x="211" y="-29"/>
      <point x="366" y="-30" type="curve" smooth="yes"/>
      <point x="568" y="-31"/>
      <point x="647" y="189"/>
      <point x="617" y="235" type="curve" smooth="yes"/>
      <point x="588" y="280"/>
      <point x="495" y="346"/>
      <point x="447" y="386" type="curve" smooth="yes"/>
      <point x="433" y="398"/>
      <point x="252" y="352"/>
      <point x="205" y="356" type="curve"/>
      <point x="200" y="393"/>
      <point x="221" y="473"/>
      <point x="232" y="535" type="curve"/>
      <point x="550" y="535" type="line"/>
      <point x="470" y="625" type="line"/>
      <point x="113" y="625" type="line"/>
      <point x="115" y="623" type="line"/>
      <point x="112" y="624" type="line"/>
      <point x="109" y="541"/>
      <point x="99" y="363"/>
      <point x="108" y="352" type="curve" smooth="yes"/>
      <point x="143" y="309"/>
      <point x="172" y="272"/>
      <point x="221" y="232" type="curve" smooth="yes"/>
      <point x="275" y="189"/>
      <point x="452" y="337"/>
      <point x="495" y="284" type="curve" smooth="yes"/>
      <point x="544" y="224"/>
      <point x="448" y="55"/>
      <point x="299" y="58" type="curve" smooth="yes"/>
      <point x="213" y="60"/>
      <point x="110" y="163"/>
      <point x="83" y="195" type="curve"/>
    </contour>
  </outline>
</glyph>
<glyph name="seven" format="1">
  <advance width="534"/>
  <unicode hex="0037"/>
  <outline>
    <contour>
      <point x="304" y="-29" type="line"/>
      <point x="164" y="0" type="line"/>
      <point x="366" y="559" type="line"/>
      <point x="504" y="518" type="line"/>
    </contour>
    <contour>
      <point x="504" y="518" type="line"/>
      <point x="100" y="518" type="line"/>
      <point x="10" y="618" type="line"/>
      <point x="414" y="618" type="line"/>
    </contour>
  </outline>
</glyph>
<glyph name="eight" format="1">
  <advance width="544"/>
  <unicode hex="0038"/>
  <outline>
    <contour>
      <point x="239" y="365" type="curve"/>
      <point x="303" y="405"/>
      <point x="420" y="489"/>
      <point x="363" y="560" type="curve" smooth="yes"/>
      <point x="280" y="663"/>
      <point x="71" y="453"/>
    </contour>
    <contour>
      <point x="200" y="46" type="curve" smooth="yes"/>
      <point x="295" y="-5"/>
      <point x="488" y="168"/>
      <point x="300" y="287" type="curve"/>
      <point x="192" y="247"/>
      <point x="82" y="109"/>
    </contour>
    <contour>
      <point x="474" y="508" type="curve" smooth="yes"/>
      <point x="512" y="454"/>
      <point x="446" y="387"/>
      <point x="336" y="310" type="curve"/>
      <point x="402" y="267"/>
      <point x="481" y="197"/>
      <point x="492" y="180" type="curve" smooth="yes"/>
      <point x="523" y="133"/>
      <point x="447" y="-45"/>
      <point x="292" y="-37" type="curve" smooth="yes"/>
      <point x="267" y="-36"/>
      <point x="82" y="63"/>
      <point x="65" y="92" type="curve" smooth="yes"/>
      <point x="7" y="186"/>
      <point x="88" y="297"/>
      <point x="207" y="346" type="curve"/>
      <point x="150" y="382"/>
      <point x="77" y="434"/>
      <point x="67" y="465" type="curve" smooth="yes"/>
      <point x="50" y="518"/>
      <point x="140" y="676"/>
      <point x="295" y="668" type="curve" smooth="yes"/>
      <point x="320" y="667"/>
      <point x="455" y="536"/>
    </contour>
  </outline>
</glyph>
<glyph name="colon" format="1">
  <advance width="246"/>
  <unicode hex="003A"/>
  <outline>
    <contour>
      <point x="142" y="-22" type="curve"/>
      <point x="114" y="-9"/>
      <point x="83" y="17"/>
      <point x="66" y="51" type="curve"/>
      <point x="69" y="74"/>
      <point x="120" y="116"/>
      <point x="141" y="121" type="curve"/>
      <point x="186" y="101"/>
      <point x="207" y="68"/>
      <point x="216" y="50" type="curve"/>
      <point x="207" y="27"/>
      <point x="183" y="-1"/>
    </contour>
    <contour>
      <point x="142" y="336" type="curve"/>
      <point x="114" y="349"/>
      <point x="83" y="375"/>
      <point x="66" y="409" type="curve"/>
      <point x="69" y="432"/>
      <point x="120" y="474"/>
      <point x="141" y="479" type="curve"/>
      <point x="186" y="459"/>
      <point x="207" y="426"/>
      <point x="216" y="408" type="curve"/>
      <point x="207" y="385"/>
      <point x="183" y="357"/>
    </contour>
  </outline>
</glyph>
<glyph name="less" format="1">
  <advance width="499"/>
  <unicode hex="003C"/>
  <outline>
    <contour>
      <point x="362" y="582" type="line"/>
      <point x="459" y="520" type="line"/>
      <point x="136" y="271" type="line"/>
      <point x="43" y="341" type="line"/>
    </contour>
    <contour>
      <point x="421" y="139" type="line"/>
      <point x="366" y="75" type="line"/>
      <point x="43" y="341" type="line"/>
      <point x="108" y="383" type="line"/>
    </contour>
  </outline>
</glyph>
<glyph name="question" format="1">
  <advance width="475"/>
  <unicode hex="003F"/>
  <outline>
    <contour>
      <point x="207" y="90" type="curve" smooth="yes"/>
      <point x="238" y="90"/>
      <point x="267" y="66"/>
      <point x="267" y="31" type="curve" smooth="yes"/>
      <point x="267" y="-6"/>
      <point x="237" y="-29"/>
      <point x="207" y="-29" type="curve" smooth="yes"/>
      <point x="175" y="-29"/>
      <point x="146" y="-5"/>
      <point x="146" y="31" type="curve" smooth="yes"/>
      <point x="146" y="66"/>
      <point x="175" y="90"/>
    </contour>
    <contour>
      <point x="123" y="448" type="line"/>
      <point x="-100" y="562"/>
      <point x="129" y="764"/>
      <point x="238" y="698" type="curve" smooth="yes"/>
      <point x="307" y="656"/>
      <point x="403" y="542"/>
      <point x="415" y="509" type="curve" smooth="yes"/>
      <point x="447" y="419"/>
      <point x="308" y="261"/>
      <point x="218" y="201" type="curve"/>
      <point x="275" y="156" type="line"/>
      <point x="254" y="135" type="line"/>
      <point x="219" y="170"/>
      <point x="186" y="188"/>
      <point x="101" y="267" type="curve" smooth="yes"/>
      <point x="80" y="256"/>
      <point x="384" y="505"/>
      <point x="297" y="590" type="curve" smooth="yes"/>
      <point x="219" y="666"/>
      <point x="62" y="549"/>
      <point x="159" y="477" type="curve"/>
    </contour>
  </outline>
</glyph>
<glyph name="B" format="1">
  <advance width="694"/>
  <unicode hex="0042"/>
  <outline>
    <contour>
      <point x="165" y="353" type="line"/>
      <point x="480" y="331"/>
      <point x="493" y="535"/>
      <point x="456" y="575" type="curve" smooth="yes"/>
      <point x="399" y="637"/>
      <point x="191" y="583"/>
      <point x="94" y="531" type="curve"/>
      <point x="70" y="669" type="line"/>
      <point x="184" y="700"/>
      <point x="378" y="701"/>
      <point x="414" y="678" type="curve" smooth="yes"/>
      <point x="459" y="649"/>
      <point x="545" y="564"/>
      <point x="580" y="523" type="curve" smooth="yes"/>
      <point x="635" y="458"/>
      <point x="524" y="179"/>
      <point x="163" y="317" type="curve"/>
    </contour>
    <contour>
      <point x="210" y="-1" type="line"/>
      <point x="70" y="30" type="line"/>
      <point x="70" y="666" type="line"/>
      <point x="208" y="625" type="line"/>
    </contour>
    <contour>
      <point x="209" y="52" type="line"/>
      <point x="550" y="17"/>
      <point x="585" y="280"/>
      <point x="410" y="323" type="curve"/>
      <point x="483" y="346" type="line"/>
      <point x="542" y="319"/>
      <point x="609" y="267"/>
      <point x="644" y="226" type="curve" smooth="yes"/>
      <point x="699" y="161"/>
      <point x="594" y="-92"/>
      <point x="210" y="-1" type="curve"/>
    </contour>
  </outline>
</glyph>
<glyph name="D" format="1">
  <advance width="848"/>
  <unicode hex="0044"/>
  <outline>
    <contour>
      <point x="429" y="683" type="move" name="top"/>
    </contour>
    <contour>
      <point x="254" y="1" type="line"/>
      <point x="348" y="-24"/>
      <point x="496" y="-25"/>
      <point x="570" y="4" type="curve" smooth="yes"/>
      <point x="801" y="93"/>
      <point x="810" y="418"/>
      <point x="718" y="491" type="curve" smooth="yes"/>
      <point x="623" y="567"/>
      <point x="578" y="602"/>
      <point x="476" y="663" type="curve" smooth="yes"/>
      <point x="429" y="691"/>
      <point x="174" y="682"/>
      <point x="125" y="666" type="curve"/>
      <point x="125" y="665" type="line"/>
      <point x="124" y="666" type="line"/>
      <point x="124" y="30" type="line"/>
    </contour>
    <contour>
      <point x="556" y="532" type="curve" smooth="yes"/>
      <point x="722" y="431"/>
      <point x="655" y="188"/>
      <point x="509" y="93" type="curve" smooth="yes"/>
      <point x="442" y="49"/>
      <point x="343" y="52"/>
      <point x="253" y="71" type="curve"/>
      <point x="252" y="556" type="line"/>
      <point x="353" y="571"/>
      <point x="494" y="570"/>
    </contour>
  </outline>
</glyph>
<glyph name="F" format="1">
  <advance width="597"/>
  <unicode hex="0046"/>
  <outline>
    <contour>
      <point x="213" y="625" type="line"/>
      <point x="85" y="666" type="line"/>
      <point x="85" y="0" type="line"/>
      <point x="215" y="-29" type="line"/>
    </contour>
    <contour>
      <point x="165" y="577" type="line"/>
      <point x="592" y="577" type="line"/>
      <point x="512" y="667" type="line"/>
      <point x="85" y="667" type="line"/>
    </contour>
    <contour>
      <point x="165" y="265" type="line"/>
      <point x="552" y="265" type="line"/>
      <point x="472" y="355" type="line"/>
      <point x="85" y="355" type="line"/>
    </contour>
  </outline>
</glyph>
<glyph name="H" format="1">
  <advance width="762"/>
  <unicode hex="0048"/>
  <outline>
    <contour>
      <point x="215" y="-29" type="line"/>
      <point x="85" y="0" type="line"/>
      <point x="85" y="666" type="line"/>
      <point x="213" y="626" type="line"/>
      <point x="214" y="346" type="line"/>
      <point x="547" y="364" type="line"/>
      <point x="547" y="666" type="line"/>
      <point x="677" y="626" type="line"/>
      <point x="677" y="-29" type="line"/>
      <point x="547" y="0" type="line"/>
      <point x="547" y="279" type="line"/>
      <point x="214" y="261" type="line"/>
    </contour>
  </outline>
</glyph>
<glyph name="L" format="1">
  <advance width="546"/>
  <unicode hex="004C"/>
  <outline>
    <contour>
      <point x="338" y="743" type="move" name="top"/>
    </contour>
  </outline>
</glyph>
<glyph name="P" format="1">
  <advance width="549"/>
  <unicode hex="0050"/>
  <outline>
    <contour>
      <point x="119" y="234" type="line"/>
      <point x="493" y="81"/>
      <point x="573" y="427"/>
      <point x="543" y="473" type="curve" smooth="yes"/>
      <point x="514" y="518"/>
      <point x="472" y="611"/>
      <point x="427" y="652" type="curve" smooth="yes"/>
      <point x="413" y="664"/>
      <point x="131" y="666"/>
      <point x="45" y="666" type="curve"/>
      <point x="70" y="512" type="line"/>
      <point x="140" y="539"/>
      <point x="373" y="579"/>
      <point x="421" y="531" type="curve" smooth="yes"/>
      <point x="474" y="479"/>
      <point x="419" y="221"/>
      <point x="115" y="317" type="curve"/>
    </contour>
    <contour>
      <point x="173" y="625" type="line"/>
      <point x="45" y="666" type="line"/>
      <point x="45" y="0" type="line"/>
      <point x="175" y="-29" type="line"/>
    </contour>
  </outline>
</glyph>
<glyph name="R" format="1">
  <advance width="694"/>
  <unicode hex="0052"/>
  <outline>
    <contour>
      <point x="407" y="743" type="move" name="top"/>
    </contour>
    <contour>
      <point x="444" y="256" type="curve"/>
      <point x="464" y="239"/>
      <point x="484" y="219"/>
      <point x="492" y="208" type="curve"/>
      <point x="503" y="164"/>
      <point x="510" y="101"/>
      <point x="513" y="53" type="curve" smooth="yes"/>
      <point x="519" y="-53"/>
      <point x="586" y="-115"/>
      <point x="692" y="-94" type="curve"/>
      <point x="603" y="-66"/>
      <point x="624" y="-11"/>
      <point x="625" y="53" type="curve" smooth="yes"/>
      <point x="626" y="109"/>
      <point x="642" y="174"/>
      <point x="605" y="228" type="curve"/>
      <point x="599" y="235"/>
      <point x="546" y="260"/>
      <point x="498" y="282" type="curve"/>
      <point x="608" y="348"/>
      <point x="645" y="468"/>
      <point x="613" y="506" type="curve" smooth="yes"/>
      <point x="578" y="547"/>
      <point x="467" y="657"/>
      <point x="430" y="690" type="curve" smooth="yes"/>
      <point x="399" y="719"/>
      <point x="199" y="700"/>
      <point x="85" y="669" type="curve"/>
      <point x="85" y="0" type="line"/>
      <point x="215" y="-29" type="line"/>
      <point x="214" y="252" type="line"/>
      <point x="306" y="229"/>
      <point x="383" y="235"/>
    </contour>
    <contour>
      <point x="475" y="577" type="curve" smooth="yes"/>
      <point x="544" y="506"/>
      <point x="466" y="283"/>
      <point x="214" y="308" type="curve"/>
      <point x="213" y="597" type="line"/>
      <point x="303" y="614"/>
      <point x="424" y="629"/>
    </contour>
  </outline>
</glyph>
<glyph name="S" format="1">
  <advance width="816"/>
  <unicode hex="0053"/>
  <outline>
    <contour>
      <point x="480" y="743" type="move" name="top"/>
    </contour>
    <contour>
      <point x="271" y="0" type="move" name="cedilla"/>
    </contour>
    <contour>
      <point x="635" y="504" type="line"/>
      <point x="565" y="546"/>
      <point x="488" y="570"/>
      <point x="437" y="572" type="curve" smooth="yes"/>
      <point x="383" y="574"/>
      <point x="240" y="494"/>
      <point x="262" y="397" type="curve" smooth="yes"/>
      <point x="268" y="371"/>
      <point x="556" y="421"/>
      <point x="591" y="390" type="curve" smooth="yes"/>
      <point x="657" y="331"/>
      <point x="702" y="279"/>
      <point x="730" y="227" type="curve" smooth="yes"/>
      <point x="781" y="133"/>
      <point x="501" y="-271"/>
      <point x="80" y="186" type="curve"/>
      <point x="111" y="213" type="line"/>
      <point x="196" y="157"/>
      <point x="294" y="97"/>
      <point x="383" y="95" type="curve" smooth="yes"/>
      <point x="510" y="92"/>
      <point x="628" y="180"/>
      <point x="609" y="303" type="curve" smooth="yes"/>
      <point x="606" y="326"/>
      <point x="340" y="221"/>
      <point x="282" y="269" type="curve" smooth="yes"/>
      <point x="242" y="301"/>
      <point x="214" y="332"/>
      <point x="157" y="395" type="curve" smooth="yes"/>
      <point x="59" y="502"/>
      <point x="236" y="684"/>
      <point x="410" y="684" type="curve" smooth="yes"/>
      <point x="447" y="684"/>
      <point x="600" y="593"/>
      <point x="672" y="541" type="curve"/>
    </contour>
  </outline>
</glyph>
<glyph name="V" format="1">
  <advance width="647"/>
  <unicode hex="0056"/>
  <outline>
    <contour>
      <point x="378" y="40" type="line"/>
      <point x="269" y="12" type="line"/>
      <point x="0" y="666" type="line"/>
      <point x="139" y="637" type="line"/>
    </contour>
    <contour>
      <point x="507" y="666" type="line"/>
      <point x="657" y="637" type="line"/>
      <point x="415" y="-29" type="line"/>
      <point x="267" y="12" type="line"/>
    </contour>
  </outline>
</glyph>
<glyph name="Z" format="1">
  <advance width="646"/>
  <unicode hex="005A"/>
  <outline>
    <contour>
      <point x="378" y="743" type="move" name="top"/>
    </contour>
  </outline>
</glyph>
<glyph name="a" format="1">
  <advance width="580"/>
  <unicode hex="0061"/>
  <outline>
    <contour>
      <point x="432" y="507" type="move" name="top"/>
    </contour>
    <contour>
      <point x="402" y="7" type="move" name="ogonek"/>
    </contour>
    <contour>
      <point x="116" y="343" type="line"/>
      <point x="239" y="391"/>
      <point x="404" y="433"/>
      <point x="402" y="328" type="curve" smooth="yes"/>
      <point x="402" y="322" type="line"/>
      <point x="375" y="321"/>
      <point x="55" y="273"/>
      <point x="54" y="176" type="curve" smooth="yes"/>
      <point x="54" y="130"/>
      <point x="186" y="-29"/>
      <point x="255" y="-30" type="curve" smooth="yes"/>
      <point x="302" y="-30"/>
      <point x="365" y="40"/>
      <point x="397" y="80" type="curve"/>
      <point x="396" y="0" type="line"/>
      <point x="510" y="-29" type="line"/>
      <point x="506" y="56"/>
      <point x="524" y="300"/>
      <point x="506" y="327" type="curve" smooth="yes"/>
      <point x="481" y="364"/>
      <point x="361" y="489"/>
      <point x="329" y="491" type="curve" smooth="yes"/>
      <point x="297" y="493"/>
      <point x="150" y="463"/>
      <point x="66" y="442" type="curve"/>
    </contour>
    <contour>
      <point x="186" y="182" type="curve" smooth="yes"/>
      <point x="282" y="223"/>
      <point x="344" y="243"/>
      <point x="401" y="261" type="curve"/>
      <point x="399" y="191" type="line"/>
      <point x="174" y="-35"/>
      <point x="133" y="159"/>
    </contour>
  </outline>
</glyph>
<glyph name="g" format="1">
  <advance width="599"/>
  <unicode hex="0067"/>
  <outline>
    <contour>
      <point x="343" y="507" type="move" name="top"/>
    </contour>
    <contour>
      <point x="406" y="104" type="curve"/>
      <point x="332" y="49"/>
      <point x="155" y="23"/>
      <point x="164" y="5" type="curve" smooth="yes"/>
      <point x="187" y="-42"/>
      <point x="404" y="64"/>
      <point x="445" y="22" type="curve" smooth="yes"/>
      <point x="594" y="-131"/>
      <point x="457" y="-264"/>
      <point x="270" y="-255" type="curve" smooth="yes"/>
      <point x="171" y="-250"/>
      <point x="101" y="-197"/>
      <point x="45" y="-131" type="curve"/>
      <point x="78" y="-109" type="line"/>
      <point x="190" y="-243"/>
      <point x="393" y="-207"/>
      <point x="409" y="-56" type="curve" smooth="yes"/>
      <point x="411" y="-36"/>
      <point x="209" y="-141"/>
      <point x="157" y="-91" type="curve" smooth="yes"/>
      <point x="135" y="-70"/>
      <point x="71" y="31"/>
      <point x="53" y="58" type="curve" smooth="yes"/>
      <point x="34" y="87"/>
      <point x="114" y="102"/>
      <point x="198" y="127" type="curve"/>
      <point x="174" y="142"/>
      <point x="157" y="156"/>
      <point x="136" y="175" type="curve" smooth="yes"/>
      <point x="-40" y="329"/>
      <point x="116" y="572"/>
      <point x="318" y="458" type="curve"/>
      <point x="360" y="432" type="line"/>
      <point x="548" y="432" type="line"/>
      <point x="578" y="362" type="line"/>
      <point x="437" y="362" type="line"/>
      <point x="511" y="267"/>
      <point x="485" y="150"/>
    </contour>
    <contour>
      <point x="332" y="390" type="curve" smooth="yes"/>
      <point x="209" y="476"/>
      <point x="86" y="256"/>
      <point x="209" y="179" type="curve" smooth="yes"/>
      <point x="328" y="104"/>
      <point x="442" y="313"/>
    </contour>
  </outline>
</glyph>
<glyph name="i" format="1">
  <advance width="251"/>
  <unicode hex="0069"/>
  <outline>
    <contour>
      <point x="41" y="7" type="move" name="ogonek"/>
    </contour>
    <contour>
      <point x="126" y="668" type="curve" smooth="yes"/>
      <point x="157" y="668"/>
      <point x="186" y="644"/>
      <point x="186" y="609" type="curve" smooth="yes"/>
      <point x="186" y="572"/>
      <point x="156" y="549"/>
      <point x="126" y="549" type="curve" smooth="yes"/>
      <point x="94" y="549"/>
      <point x="65" y="573"/>
      <point x="65" y="609" type="curve" smooth="yes"/>
      <point x="65" y="644"/>
      <point x="94" y="668"/>
    </contour>
    <contour>
      <point x="180" y="450" type="line"/>
      <point x="65" y="478" type="line"/>
      <point x="65" y="-1" type="line"/>
      <point x="180" y="-29" type="line"/>
    </contour>
  </outline>
</glyph>
<glyph name="m" format="1">
  <advance width="877"/>
  <unicode hex="006D"/>
  <outline>
    <contour>
      <point x="180" y="450" type="line"/>
      <point x="65" y="478" type="line"/>
      <point x="65" y="-1" type="line"/>
      <point x="180" y="-29" type="line"/>
      <point x="180" y="250" type="line"/>
      <point x="253" y="332"/>
      <point x="359" y="412"/>
      <point x="394" y="349" type="curve" smooth="yes"/>
      <point x="405" y="329"/>
      <point x="399" y="-1"/>
      <point x="399" y="-1" type="curve"/>
      <point x="399" y="-1"/>
      <point x="514" y="-29"/>
      <point x="513" y="-29" type="curve" smooth="yes"/>
      <point x="513" y="-29"/>
      <point x="514" y="170"/>
      <point x="511" y="261" type="curve"/>
      <point x="584" y="339"/>
      <point x="682" y="409"/>
      <point x="715" y="349" type="curve" smooth="yes"/>
      <point x="726" y="329"/>
      <point x="720" y="-1"/>
      <point x="720" y="-1" type="curve"/>
      <point x="720" y="-1"/>
      <point x="835" y="-29"/>
      <point x="834" y="-29" type="curve" smooth="yes"/>
      <point x="834" y="-29"/>
      <point x="835" y="270"/>
      <point x="830" y="303" type="curve" smooth="yes"/>
      <point x="824" y="339"/>
      <point x="706" y="485"/>
      <point x="662" y="488" type="curve" smooth="yes"/>
      <point x="598" y="492"/>
      <point x="518" y="424"/>
      <point x="468" y="372" type="curve"/>
      <point x="428" y="425"/>
      <point x="369" y="486"/>
      <point x="341" y="488" type="curve" smooth="yes"/>
      <point x="289" y="491"/>
      <point x="228" y="443"/>
      <point x="180" y="393" type="curve"/>
    </contour>
  </outline>
</glyph>
<glyph name="o" format="1">
  <advance width="600"/>
  <unicode hex="006F"/>
  <outline>
    <contour>
      <point x="350" y="482" type="move" name="top"/>
    </contour>
    <contour>
      <point x="478" y="368" type="curve" smooth="yes"/>
      <point x="646" y="236"/>
      <point x="469" y="-138"/>
      <point x="244" y="1" type="curve" smooth="yes"/>
      <point x="189" y="35"/>
      <point x="169" y="49"/>
      <point x="139" y="73" type="curve" smooth="yes"/>
      <point x="-72" y="242"/>
      <point x="164" y="567"/>
      <point x="325" y="473" type="curve" smooth="yes"/>
      <point x="399" y="430"/>
      <point x="431" y="405"/>
    </contour>
    <contour>
      <point x="377" y="373" type="curve" smooth="yes"/>
      <point x="238" y="472"/>
      <point x="69" y="175"/>
      <point x="229" y="77" type="curve" smooth="yes"/>
      <point x="374" y="-12"/>
      <point x="519" y="272"/>
    </contour>
  </outline>
</glyph>
<glyph name="r" format="1">
  <advance width="493"/>
  <unicode hex="0072"/>
  <outline>
    <contour>
      <point x="212" y="507" type="move" name="top"/>
    </contour>
    <contour>
      <point x="130" y="271" type="line"/>
      <point x="130" y="271"/>
      <point x="234" y="491"/>
      <point x="313" y="491" type="curve" smooth="yes"/>
      <point x="347" y="491"/>
      <point x="445" y="447"/>
      <point x="496" y="413" type="curve"/>
      <point x="427" y="313" type="line"/>
      <point x="267" y="431"/>
      <point x="223" y="331"/>
      <point x="147" y="202" type="curve"/>
    </contour>
    <contour>
      <point x="189" y="-29" type="line"/>
      <point x="64" y="-1" type="line"/>
      <point x="64" y="478" type="line"/>
      <point x="189" y="450" type="line"/>
    </contour>
  </outline>
</glyph>
<glyph name="t" format="1">
  <advance width="430"/>
  <unicode hex="0074"/>
  <outline>
    <contour>
      <point x="180" y="15" type="move" name="cedilla"/>
    </contour>
    <contour>
      <point x="218" y="558" type="line"/>
      <point x="105" y="586" type="line"/>
      <point x="105" y="478" type="line"/>
      <point x="23" y="478" type="line"/>
      <point x="53" y="408" type="line"/>
      <point x="105" y="408" type="line"/>
      <point x="105" y="122" type="line" smooth="yes"/>
      <point x="105" y="61"/>
      <point x="255" y="-53"/>
      <point x="319" y="-17" type="curve" smooth="yes"/>
      <point x="348" y="-1"/>
      <point x="375" y="20"/>
      <point x="416" y="57" type="curve"/>
      <point x="389" y="88" type="line"/>
      <point x="210" y="-29"/>
      <point x="213" y="192"/>
      <point x="218" y="281" type="curve"/>
      <point x="218" y="408" type="line"/>
      <point x="380" y="408" type="line"/>
      <point x="350" y="478" type="line"/>
      <point x="218" y="478" type="line"/>
    </contour>
  </outline>
</glyph>
<glyph name="y" format="1">
  <advance width="562"/>
  <unicode hex="0079"/>
  <outline>
    <contour>
      <point x="345" y="507" type="move" name="top"/>
    </contour>
    <contour>
      <point x="401" y="229" type="line"/>
      <point x="361" y="119"/>
      <point x="231" y="23"/>
      <point x="187" y="87" type="curve" smooth="yes"/>
      <point x="174" y="106"/>
      <point x="180" y="452"/>
      <point x="180" y="452" type="curve"/>
      <point x="180" y="452"/>
      <point x="65" y="480"/>
      <point x="66" y="480" type="curve" smooth="yes"/>
      <point x="66" y="480"/>
      <point x="67" y="178"/>
      <point x="72" y="145" type="curve" smooth="yes"/>
      <point x="78" y="109"/>
      <point x="208" y="-26"/>
      <point x="252" y="-29" type="curve" smooth="yes"/>
      <point x="354" y="-36"/>
      <point x="460" y="139"/>
      <point x="460" y="139" type="curve"/>
    </contour>
    <contour>
      <point x="492" y="450" type="line"/>
      <point x="377" y="478" type="line"/>
      <point x="377" y="-3" type="line"/>
      <point x="377" y="-168"/>
      <point x="272" y="-206"/>
      <point x="184" y="-162" type="curve" smooth="yes"/>
      <point x="154" y="-147"/>
      <point x="128" y="-131"/>
      <point x="104" y="-117" type="curve"/>
      <point x="78" y="-156" type="line"/>
      <point x="137" y="-190"/>
      <point x="213" y="-238"/>
      <point x="243" y="-251" type="curve" smooth="yes"/>
      <point x="310" y="-280"/>
      <point x="492" y="-188"/>
      <point x="492" y="-62" type="curve"/>
    </contour>
  </outline>
</glyph>
<glyph name="z" format="1">
  <advance width="480"/>
  <unicode hex="007A"/>
  <outline>
    <contour>
      <point x="256" y="507" type="move" name="top"/>
    </contour>
  </outline>
</glyph>
<glyph name="braceleft" format="1">
  <advance width="493"/>
  <unicode hex="007B"/>
  <outline>
    <contour>
      <point x="393" y="-15" type="line"/>
      <point x="393" y="-15"/>
      <point x="325" y="-45"/>
      <point x="281" y="-10" type="curve" smooth="yes"/>
      <point x="242" y="21"/>
      <point x="265" y="198"/>
      <point x="265" y="303" type="curve" smooth="yes"/>
      <point x="265" y="351"/>
      <point x="196" y="365"/>
      <point x="197" y="371" type="curve" smooth="yes"/>
      <point x="198" y="378"/>
      <point x="265" y="389"/>
      <point x="265" y="439" type="curve" smooth="yes"/>
      <point x="265" y="554"/>
      <point x="255" y="693"/>
      <point x="320" y="724" type="curve" smooth="yes"/>
      <point x="369" y="748"/>
      <point x="429" y="763"/>
      <point x="429" y="763" type="curve"/>
      <point x="355" y="847" type="line"/>
      <point x="355" y="847"/>
      <point x="245" y="832"/>
      <point x="187" y="793" type="curve" smooth="yes"/>
      <point x="172" y="783"/>
      <point x="149" y="615"/>
      <point x="149" y="470" type="curve" smooth="yes"/>
      <point x="149" y="422"/>
      <point x="74" y="381"/>
      <point x="75" y="371" type="curve" smooth="yes"/>
      <point x="76" y="363"/>
      <point x="144" y="316"/>
      <point x="149" y="282" type="curve" smooth="yes"/>
      <point x="162" y="182"/>
      <point x="124" y="18"/>
      <point x="152" y="-8" type="curve" smooth="yes"/>
      <point x="191" y="-44"/>
      <point x="223" y="-68"/>
      <point x="276" y="-95" type="curve" smooth="yes"/>
      <point x="312" y="-113"/>
      <point x="441" y="-56"/>
      <point x="441" y="-56" type="curve"/>
    </contour>
  </outline>
</glyph>
<glyph name="copyright" format="1">
  <advance width="882"/>
  <unicode hex="00A9"/>
  <outline>
    <contour>
      <point x="508" y="510" type="move" name="top"/>
    </contour>
    <contour>
      <point x="407" y="198" type="move" name="cedilla"/>
    </contour>
    <contour>
      <point x="591" y="586" type="curve" smooth="yes"/>
      <point x="853" y="416"/>
      <point x="594" y="-39"/>
      <point x="305" y="127" type="curve" smooth="yes"/>
      <point x="33" y="283"/>
      <point x="289" y="782"/>
    </contour>
    <contour>
      <point x="726" y="547" type="curve" smooth="yes"/>
      <point x="660" y="603"/>
      <point x="609" y="637"/>
      <point x="501" y="688" type="curve" smooth="yes"/>
      <point x="218" y="824"/>
      <point x="-62" y="365"/>
      <point x="156" y="180" type="curve" smooth="yes"/>
      <point x="256" y="95"/>
      <point x="277" y="85"/>
      <point x="354" y="47" type="curve" smooth="yes"/>
      <point x="666" y="-110"/>
      <point x="952" y="352"/>
    </contour>
    <contour>
      <point x="572" y="471" type="line"/>
      <point x="497" y="507"/>
      <point x="445" y="526"/>
      <point x="433" y="526" type="curve" smooth="yes"/>
      <point x="308" y="526"/>
      <point x="220" y="352"/>
      <point x="308" y="256" type="curve" smooth="yes"/>
      <point x="342" y="218"/>
      <point x="389" y="187"/>
      <point x="420" y="176" type="curve" smooth="yes"/>
      <point x="479" y="153"/>
      <point x="527" y="177"/>
      <point x="594" y="228" type="curve"/>
      <point x="594" y="228"/>
      <point x="544" y="286"/>
      <point x="543" y="285" type="curve" smooth="yes"/>
      <point x="500" y="252"/>
      <point x="427" y="210"/>
      <point x="394" y="231" type="curve" smooth="yes"/>
      <point x="289" y="296"/>
      <point x="381" y="465"/>
      <point x="454" y="468" type="curve" smooth="yes"/>
      <point x="471" y="468"/>
      <point x="505" y="454"/>
      <point x="550" y="438" type="curve"/>
    </contour>
  </outline>
</glyph>
<glyph name="Atilde" format="1">
  <advance width="631"/>
  <unicode hex="00C3"/>
  <outline>
    <contour>
      <point x="332" y="743" type="move" name="top"/>
    </contour>
    <contour>
      <point x="397" y="8" type="move" name="ogonek"/>
    </contour>
  </outline>
</glyph>
<glyph name="Ecircumflex" format="1">
  <advance width="647"/>
  <unicode hex="00CA"/>
  <outline>
    <contour>
      <point x="342" y="743" type="move" name="top"/>
    </contour>
    <contour>
      <point x="440" y="101" type="move" name="ogonek"/>
    </contour>
    <component base="circumflex" xOffset="149" yOffset="161"/>
    <component base="E" xOffset="15"/>
  </outline>
</glyph>
<glyph name="Ograve" format="1">
  <advance width="619"/>
  <unicode hex="00D2"/>
  <outline>
    <contour>
      <point x="454" y="743" type="move" name="top"/>
    </contour>
  </outline>
</glyph>
<glyph name="Otilde" format="1">
  <advance width="823"/>
  <unicode hex="00D5"/>
  <outline>
    <contour>
      <point x="454" y="743" type="move" name="top"/>
    </contour>
    <component base="O"/>
    <component base="tilde" xOffset="226" yOffset="201"/>
  </outline>
</glyph>
<glyph name="Yacute" format="1">
  <advance width="591"/>
  <unicode hex="00DD"/>
  <outline>
    <contour>
      <point x="336" y="743" type="move" name="top"/>
    </contour>
    <component base="Y"/>
    <component base="acute" xOffset="71" yOffset="160"/>
  </outline>
</glyph>
<glyph name="aacute" format="1">
  <advance width="580"/>
  <unicode hex="00E1"/>
  <outline>
    <contour>
      <point x="374" y="507" type="move" name="top"/>
    </contour>
    <contour>
      <point x="344" y="7" type="move" name="ogonek"/>
    </contour>
    <component base="a" xOffset="14"/>
    <component base="acute" xOffset="119"/>
  </outline>
</glyph>
<glyph name="aring" format="1">
  <advance width="580"/>
  <unicode hex="00E5"/>
  <outline>
    <contour>
      <point x="374" y="507" type="move" name="top"/>
    </contour>
    <contour>
      <point x="344" y="7" type="move" name="ogonek"/>
    </contour>
    <component base="a" xOffset="14"/>
    <component base="ring" xOffset="170"/>
  </outline>
</glyph>
<glyph name="edieresis" format="1">
  <advance width="558"/>
  <unicode hex="00EB"/>
  <outline>
    <contour>
      <point x="263" y="507" type="move" name="top"/>
    </contour>
    <contour>
      <point x="279" y="43" type="move" name="ogonek"/>
    </contour>
    <component base="dieresis" xOffset="112"/>
    <component base="e"/>
  </outline>
</glyph>
<glyph name="ntilde" format="1">
  <advance width="552"/>
  <unicode hex="00F1"/>
  <outline>
    <contour>
      <point x="287" y="507" type="move" name="top"/>
    </contour>
  </outline>
</glyph>
<glyph name="udieresis" format="1">
  <advance width="592"/>
  <unicode hex="00FC"/>
  <outline>
    <contour>
      <point x="287" y="507" type="move" name="top"/>
    </contour>
    <contour>
      <point x="283" y="7" type="move" name="ogonek"/>
    </contour>
    <component base="dieresis" xOffset="118"/>
    <component base="u"/>
  </outline>
</glyph>
<glyph name="ydieresis" format="1">
  <advance width="520"/>
  <unicode hex="00FF"/>
  <outline>
    <contour>
      <point x="310" y="507" type="move" name="top"/>
    </contour>
  </outline>
</glyph>
<glyph name="Aogonek" format="1">
  <advance width="631"/>
  <unicode hex="0104"/>
  <outline>
    <contour>
      <point x="332" y="743" type="move" name="top"/>
    </contour>
    <contour>
      <point x="397" y="8" type="move" name="ogonek"/>
    </contour>
  </outline>
</glyph>
<glyph name="Ecaron" format="1">
  <advance width="647"/>
  <unicode hex="011A"/>
  <outline>
    <contour>
      <point x="342" y="743" type="move" name="top"/>
    </contour>
    <contour>
      <point x="440" y="101" type="move" name="ogonek"/>
    </contour>
    <component base="caron" xOffset="167" yOffset="192"/>
    <component base="E" xOffset="15"/>
  </outline>
</glyph>
<glyph name="lacute" format="1">
  <advance width="241"/>
  <unicode hex="013A"/>
  <outline>
    <contour>
      <point x="242" y="733" type="move" name="top"/>
    </contour>
    <component base="acute" xOffset="-97" yOffset="203"/>
    <component base="l"/>
  </outline>
</glyph>
<glyph name="Lslash" format="1">
  <advance width="546"/>
  <unicode hex="0141"/>
  <outline>
    <contour>
      <point x="307" y="657" type="move" name="top"/>
    </contour>
  </outline>
</glyph>
<glyph name="lslash" format="1">
  <advance width="350"/>
  <unicode hex="0142"/>
  <outline>
    <contour>
      <point x="249" y="733" type="move" name="top"/>
    </contour>
    <contour>
      <point x="332" y="397" type="line"/>
      <point x="296" y="474" type="line"/>
      <point x="223" y="445" type="line"/>
      <point x="223" y="682" type="line"/>
      <point x="108" y="710" type="line"/>
      <point x="108" y="399" type="line"/>
      <point x="19" y="364" type="line"/>
      <point x="34" y="307" type="line"/>
      <point x="108" y="329" type="line"/>
      <point x="108" y="-1" type="line"/>
      <point x="223" y="-29" type="line"/>
      <point x="223" y="364" type="line"/>
    </contour>
  </outline>
</glyph>
<glyph name="Racute" format="1">
  <advance width="575"/>
  <unicode hex="0154"/>
  <outline>
    <contour>
      <point x="354" y="743" type="move" name="top"/>
    </contour>
  </outline>
</glyph>
<glyph name="Rcommaaccent" format="1">
  <advance width="694"/>
  <unicode hex="0156"/>
  <outline>
    <contour>
      <point x="354" y="743" type="move" name="top"/>
    </contour>
    <component base="R"/>
    <component base="comma" xOffset="228" yOffset="-174"/>
  </outline>
</glyph>
<glyph name="rcommaaccent" format="1">
  <advance width="326"/>
  <unicode hex="0157"/>
  <outline>
    <contour>
      <point x="207" y="507" type="move" name="top"/>
    </contour>
  </outline>
</glyph>
<glyph name="scedilla" format="1">
  <advance width="467"/>
  <unicode hex="015F"/>
  <outline>
    <contour>
      <point x="261" y="507" type="move" name="top"/>
    </contour>
    <contour>
      <point x="170" y="7" type="move" name="cedilla"/>
    </contour>
  </outline>
</glyph>
<glyph name="Scaron" format="1">
  <advance width="756"/>
  <unicode hex="0160"/>
  <outline>
    <contour>
      <point x="400" y="743" type="move" name="top"/>
    </contour>
    <contour>
      <point x="191" y="0" type="move" name="cedilla"/>
    </contour>
    <component base="caron" xOffset="208" yOffset="203"/>
    <component base="S"/>
  </outline>
</glyph>
<glyph name="Tcaron" format="1">
  <advance width="647"/>
  <unicode hex="0164"/>
  <outline>
    <contour>
      <point x="328" y="743" type="move" name="top"/>
    </contour>
    <contour>
      <point x="156" y="0" type="move" name="cedilla"/>
    </contour>
    <component base="caron" xOffset="153" yOffset="185"/>
    <component base="T"/>
  </outline>
</glyph>
<glyph name="tcaron" format="1">
  <advance width="522"/>
  <unicode hex="0165"/>
  <outline>
    <contour>
      <point x="91" y="7" type="move" name="cedilla"/>
    </contour>
  </outline>
</glyph>
<glyph name="uogonek" format="1">
  <advance width="592"/>
  <unicode hex="0173"/>
  <outline>
    <contour>
      <point x="287" y="507" type="move" name="top"/>
    </contour>
    <contour>
      <point x="283" y="7" type="move" name="ogonek"/>
    </contour>
    <contour>
      <point x="529" y="-29" type="line"/>
      <point x="451" y="-88"/>
      <point x="399" y="-153"/>
      <point x="448" y="-172" type="curve" smooth="yes"/>
      <point x="471" y="-181"/>
      <point x="503" y="-170"/>
      <point x="560" y="-126" type="curve" smooth="yes"/>
      <point x="561" y="-125"/>
      <point x="628" y="-195"/>
      <point x="628" y="-195" type="curve"/>
      <point x="548" y="-246"/>
      <point x="525" y="-258"/>
      <point x="480" y="-245" type="curve" smooth="yes"/>
      <point x="450" y="-236"/>
      <point x="389" y="-196"/>
      <point x="360" y="-161" type="curve" smooth="yes"/>
      <point x="329" y="-123"/>
      <point x="327" y="-83"/>
      <point x="415" y="2" type="curve"/>
    </contour>
    <component base="u" xOffset="15"/>
  </outline>
</glyph>
<glyph name="Ydieresis" format="1">
  <advance width="591"/>
  <unicode hex="0178"/>
  <outline>
    <contour>
      <point x="336" y="743" type="move" name="top"/>
    </contour>
    <component base="Y"/>
    <component base="dieresis" xOffset="114" yOffset="185"/>
  </outline>
</glyph>
<glyph name="zdotaccent" format="1">
  <advance width="484"/>
  <unicode hex="017C"/>
  <outline>
    <contour>
      <point x="257" y="507" type="move" name="top"/>
    </contour>
    <component base="z" xOffset="-5"/>
    <component base="dotaccent" xOffset="132"/>
  </outline>
</glyph>
<glyph name="Tcommaaccent" format="1">
  <advance width="647"/>
  <unicode hex="021A"/>
  <outline>
    <contour>
      <point x="360" y="743" type="move" name="top"/>
    </contour>
    <contour>
      <point x="188" y="0" type="move" name="cedilla"/>
    </contour>
    <component base="comma" xOffset="194" yOffset="-179"/>
    <component base="T"/>
  </outline>
</glyph>
<glyph name="circumflex" format="1">
  <advance width="354"/>
  <unicode hex="02C6"/>
  <outline>
    <contour>
      <point x="35" y="551" type="curve"/>
      <point x="27" y="552"/>
      <point x="-8" y="591"/>
      <point x="-9" y="596" type="curve"/>
      <point x="-9" y="601"/>
      <point x="172" y="755"/>
      <point x="178" y="754" type="curve"/>
      <point x="186" y="752"/>
      <point x="351" y="618"/>
      <point x="350" y="611" type="curve"/>
      <point x="350" y="605"/>
      <point x="288" y="548"/>
      <point x="283" y="551" type="curve"/>
      <point x="269" y="552"/>
      <point x="164" y="665"/>
      <point x="155" y="673" type="curve"/>
      <point x="148" y="668"/>
      <point x="44" y="554"/>
    </contour>
  </outline>
</glyph>
<glyph name="hungarumlaut" format="1">
  <advance width="374"/>
  <unicode hex="02DD"/>
  <outline>
    <contour>
      <point x="55" y="542" type="line"/>
      <point x="67" y="609"/>
      <point x="68" y="656"/>
      <point x="75" y="728" type="curve"/>
      <point x="76" y="751"/>
      <point x="183" y="689"/>
      <point x="190" y="675" type="curve"/>
      <point x="157" y="597"/>
      <point x="147" y="587"/>
      <point x="105" y="528" type="curve"/>
    </contour>
    <contour>
      <point x="225" y="532" type="line"/>
      <point x="237" y="599"/>
      <point x="238" y="646"/>
      <point x="245" y="718" type="curve"/>
      <point x="246" y="741"/>
      <point x="353" y="679"/>
      <point x="360" y="665" type="curve"/>
      <point x="327" y="587"/>
      <point x="317" y="577"/>
      <point x="275" y="518" type="curve"/>
    </contour>
  </outline>
</glyph>
<glyph name="dvmvL" format="1">
  <advance width="0"/>
  <unicode hex="0962"/>
  <outline>
    <contour>
      <point x="40" y="-326" type="line"/>
      <point x="-25" y="-381"/>
      <point x="-69" y="-364"/>
      <point x="-90" y="-347" type="curve" smooth="yes"/>
      <point x="-121" y="-323"/>
      <point x="-144" y="-294"/>
      <point x="-166" y="-264" type="curve" smooth="yes"/>
      <point x="-221" y="-189"/>
      <point x="-4" y="-151"/>
      <point x="-56" y="-100" type="curve" smooth="yes"/>
      <point x="-102" y="-56"/>
      <point x="-179" y="-140"/>
      <point x="-194" y="-200" type="curve"/>
      <point x="-262" y="-159" type="line"/>
      <point x="-259" y="-148"/>
      <point x="-251" y="-130"/>
      <point x="-238" y="-111" type="curve"/>
      <point x="-410" y="-34"/>
      <point x="-374" y="-227"/>
      <point x="-294" y="-279" type="curve"/>
      <point x="-309" y="-301" type="line"/>
      <point x="-386" y="-263"/>
      <point x="-440" y="-168"/>
      <point x="-446" y="-127" type="curve"/>
      <point x="-451" y="-84"/>
      <point x="-351" y="-11"/>
      <point x="-314" y="-23" type="curve"/>
      <point x="-288" y="-30"/>
      <point x="-249" y="-66"/>
      <point x="-223" y="-91" type="curve"/>
      <point x="-198" y="-61"/>
      <point x="-161" y="-33"/>
      <point x="-118" y="-32" type="curve" smooth="yes"/>
      <point x="-93" y="-31"/>
      <point x="-1" y="-93"/>
      <point x="18" y="-123" type="curve" smooth="yes"/>
      <point x="75" y="-211"/>
      <point x="-146" y="-219"/>
      <point x="-99" y="-292" type="curve" smooth="yes"/>
      <point x="-85" y="-314"/>
      <point x="-47" y="-319"/>
      <point x="-19" y="-282" type="curve"/>
    </contour>
  </outline>
</glyph>
<glyph name="quoteleft" format="1">
  <advance width="221"/>
  <unicode hex="2018"/>
  <outline>
    <contour>
      <point x="168" y="782" type="line"/>
      <point x="156" y="744"/>
      <point x="144" y="687"/>
      <point x="146" y="666" type="curve"/>
      <point x="162" y="652"/>
      <point x="181" y="631"/>
      <point x="191" y="611" type="curve"/>
      <point x="188" y="588"/>
      <point x="137" y="546"/>
      <point x="116" y="541" type="curve"/>
      <point x="84" y="556"/>
      <point x="39" y="595"/>
      <point x="41" y="623" type="curve"/>
      <point x="49" y="674"/>
      <point x="98" y="776"/>
      <point x="127" y="809" type="curve"/>
    </contour>
  </outline>
</glyph>
<glyph name="quoteright" format="1">
  <advance width="221"/>
  <unicode hex="2019"/>
  <outline>
    <contour>
      <point x="94" y="541" type="line"/>
      <point x="123" y="574"/>
      <point x="172" y="676"/>
      <point x="180" y="727" type="curve"/>
      <point x="182" y="755"/>
      <point x="137" y="794"/>
      <point x="105" y="809" type="curve"/>
      <point x="84" y="804"/>
      <point x="33" y="762"/>
      <point x="30" y="739" type="curve"/>
      <point x="40" y="719"/>
      <point x="59" y="698"/>
      <point x="75" y="684" type="curve"/>
      <point x="77" y="663"/>
      <point x="65" y="606"/>
      <point x="53" y="568" type="curve"/>
    </contour>
  </outline>
</glyph>
<glyph name="guilsinglleft" format="1">
  <advance width="389"/>
  <unicode hex="2039"/>
  <outline>
    <contour>
      <point x="237" y="489" type="line"/>
      <point x="329" y="421" type="line"/>
      <point x="101" y="222" type="line"/>
      <point x="20" y="285" type="line"/>
    </contour>
    <contour>
      <point x="322" y="119" type="line"/>
      <point x="275" y="67" type="line"/>
      <point x="20" y="285" type="line"/>
      <point x="75" y="321" type="line"/>
    </contour>
  </outline>
</glyph>
<glyph name="Omega.math" format="1">
  <advance width="910"/>
  <unicode hex="2126"/>
  <outline>
    <contour>
      <point x="30" y="90" type="line"/>
      <point x="266" y="90" type="line"/>
      <point x="346" y="0" type="line"/>
      <point x="108" y="0" type="line"/>
    </contour>
    <contour>
      <point x="564" y="90" type="line"/>
      <point x="800" y="90" type="line"/>
      <point x="880" y="0" type="line"/>
      <point x="642" y="0" type="line"/>
    </contour>
    <contour>
      <point x="699" y="31" type="curve"/>
      <point x="699" y="31"/>
      <point x="565" y="86"/>
      <point x="564" y="89" type="curve"/>
      <point x="664" y="205"/>
      <point x="692" y="423"/>
      <point x="553" y="514" type="curve" smooth="yes"/>
      <point x="317" y="669"/>
      <point x="126" y="271"/>
      <point x="266" y="90" type="curve"/>
      <point x="267" y="86"/>
      <point x="193" y="56"/>
      <point x="193" y="56" type="curve"/>
      <point x="179" y="69"/>
      <point x="167" y="81"/>
      <point x="153" y="94" type="curve" smooth="yes"/>
      <point x="-50" y="288"/>
      <point x="223" y="767"/>
      <point x="486" y="625" type="curve" smooth="yes"/>
      <point x="586" y="571"/>
      <point x="648" y="524"/>
      <point x="709" y="465" type="curve" smooth="yes"/>
      <point x="824" y="353"/>
      <point x="795" y="160"/>
    </contour>
  </outline>
</glyph>
<glyph name="Delta.math" format="1">
  <advance width="681"/>
  <unicode hex="2206"/>
  <outline>
    <contour>
      <point x="66" y="90" type="line"/>
      <point x="573" y="90" type="line"/>
      <point x="653" y="0" type="line"/>
      <point x="146" y="0" type="line"/>
    </contour>
    <contour>
      <point x="306" y="599" type="line"/>
      <point x="385" y="625" type="line"/>
      <point x="654" y="1" type="line"/>
      <point x="535" y="30" type="line"/>
    </contour>
    <contour>
      <point x="147" y="1" type="line"/>
      <point x="17" y="30" type="line"/>
      <point x="259" y="666" type="line"/>
      <point x="387" y="625" type="line"/>
    </contour>
  </outline>
</glyph>
<glyph name="integral" format="1">
  <advance width="555"/>
  <unicode hex="222B"/>
  <outline>
    <contour>
      <point x="189" y="584" type="curve" smooth="yes"/>
      <point x="227" y="797"/>
      <point x="351" y="820"/>
      <point x="414" y="783" type="curve"/>
      <point x="489" y="710" type="line"/>
      <point x="377" y="755"/>
      <point x="306" y="710"/>
      <point x="278" y="489" type="curve" smooth="yes"/>
      <point x="264" y="375"/>
      <point x="219" y="90"/>
      <point x="191" y="-29" type="curve" smooth="yes"/>
      <point x="174" y="-105"/>
      <point x="118" y="-187"/>
      <point x="-32" y="-134" type="curve"/>
      <point x="62" y="-134"/>
      <point x="86" y="-27"/>
      <point x="92" y="4" type="curve" smooth="yes"/>
      <point x="130" y="187"/>
      <point x="166" y="457"/>
    </contour>
  </outline>
</glyph>
<glyph name="lozenge" format="1">
  <advance width="542"/>
  <unicode hex="25CA"/>
  <outline>
    <contour>
      <point x="305" y="7" type="line"/>
      <point x="224" y="27" type="line"/>
      <point x="64" y="324" type="line"/>
      <point x="215" y="623" type="line"/>
      <point x="215" y="623" type="line"/>
      <point x="215" y="623" type="line"/>
      <point x="296" y="603" type="line"/>
      <point x="296" y="603" type="line"/>
      <point x="456" y="305" type="line"/>
    </contour>
    <contour>
      <point x="376" y="325" type="line"/>
      <point x="262" y="537" type="line"/>
      <point x="144" y="305" type="line"/>
      <point x="258" y="94" type="line"/>
    </contour>
  </outline>
</glyph>
<glyph name="dvAU.init" format="1">
  <advance width="1030"/>
  <outline>
    <contour>
      <point x="980" y="625" type="move" name="abvm.bindu"/>
    </contour>
    <component base="dvmAI" xOffset="1047"/>
    <component base="dvAA.init"/>
  </outline>
</glyph>
<glyph name="dvA" format="1">
  <advance width="790"/>
  <outline>
    <contour>
      <point x="702" y="662" type="move" name="abvm.bindu"/>
    </contour>
    <contour>
      <point x="645" y="-10" type="move" name="blwm.virama"/>
    </contour>
    <contour>
      <point x="680" y="619" type="move" name="abvm.e"/>
    </contour>
    <contour>
      <point x="645" y="0" type="move" name="blwm.u"/>
    </contour>
    <contour>
      <point x="614" y="537" type="line"/>
      <point x="738" y="537" type="line"/>
      <point x="738" y="-56" type="line"/>
      <point x="614" y="0" type="line"/>
    </contour>
    <contour>
      <point x="483" y="619" type="line"/>
      <point x="804" y="619" type="line"/>
      <point x="804" y="522" type="line"/>
      <point x="521" y="522" type="line"/>
    </contour>
    <contour>
      <point x="410" y="310" type="line"/>
      <point x="459" y="277"/>
      <point x="524" y="242"/>
      <point x="552" y="162" type="curve" smooth="yes"/>
      <point x="589" y="59"/>
      <point x="370" y="-66"/>
      <point x="269" y="-6" type="curve" smooth="yes"/>
      <point x="198" y="37"/>
      <point x="105" y="160"/>
      <point x="19" y="287" type="curve"/>
      <point x="44" y="305" type="line"/>
      <point x="103" y="228"/>
      <point x="242" y="21"/>
      <point x="396" y="103" type="curve" smooth="yes"/>
      <point x="474" y="144"/>
      <point x="455" y="221"/>
      <point x="378" y="286" type="curve"/>
    </contour>
    <contour>
      <point x="476" y="486" type="curve" smooth="yes"/>
      <point x="554" y="407"/>
      <point x="441" y="261"/>
      <point x="271" y="253" type="curve"/>
      <point x="217" y="346" type="line"/>
      <point x="351" y="361"/>
      <point x="437" y="413"/>
      <point x="413" y="473" type="curve" smooth="yes"/>
      <point x="368" y="586"/>
      <point x="215" y="486"/>
      <point x="170" y="455" type="curve"/>
      <point x="109" y="542" type="line"/>
      <point x="145" y="566"/>
      <point x="271" y="665"/>
      <point x="342" y="606" type="curve" smooth="yes"/>
      <point x="399" y="558"/>
      <point x="419" y="543"/>
    </contour>
    <contour>
      <point x="431" y="319" type="line"/>
      <point x="532" y="299"/>
      <point x="589" y="345"/>
      <point x="631" y="394" type="curve" smooth="yes"/>
      <point x="632" y="395"/>
      <point x="682" y="309"/>
      <point x="683" y="308" type="curve"/>
      <point x="573" y="217"/>
      <point x="490" y="274"/>
      <point x="423" y="308" type="curve"/>
    </contour>
  </outline>
</glyph>
<glyph name="dvBA" format="1">
  <advance width="588"/>
  <outline>
    <contour>
      <point x="-7" y="522" type="line"/>
      <point x="595" y="522" type="line"/>
      <point x="594" y="619" type="line"/>
      <point x="-8" y="619" type="line"/>
    </contour>
    <contour>
      <point x="394" y="1" type="line"/>
      <point x="519" y="-55" type="line"/>
      <point x="519" y="538" type="line"/>
      <point x="394" y="538" type="line"/>
    </contour>
    <contour>
      <point x="365" y="149" type="line"/>
      <point x="385" y="169" type="line"/>
      <point x="187" y="361" type="line"/>
      <point x="167" y="340" type="line"/>
    </contour>
    <contour>
      <point x="424" y="368" type="line"/>
      <point x="388" y="391"/>
      <point x="321" y="436"/>
      <point x="287" y="460" type="curve" smooth="yes"/>
      <point x="228" y="500"/>
      <point x="9" y="348"/>
      <point x="54" y="263" type="curve" smooth="yes"/>
      <point x="91" y="191"/>
      <point x="166" y="71"/>
      <point x="272" y="71" type="curve"/>
      <point x="374" y="72"/>
      <point x="442" y="214"/>
      <point x="442" y="214" type="curve"/>
      <point x="417" y="306" type="line"/>
      <point x="304" y="120"/>
      <point x="178" y="171"/>
      <point x="151" y="201" type="curve" smooth="yes"/>
      <point x="97" y="258"/>
      <point x="271" y="445"/>
      <point x="421" y="314" type="curve"/>
    </contour>
  </outline>
</glyph>
<glyph name="dvBH_NA" format="1">
  <advance width="844"/>
  <outline>
    <contour>
      <point x="318" y="619" type="line"/>
      <point x="859" y="619" type="line"/>
      <point x="859" y="523" type="line"/>
      <point x="784" y="523" type="line"/>
      <point x="784" y="-56" type="line"/>
      <point x="660" y="0" type="line"/>
      <point x="660" y="83" type="line"/>
      <point x="593" y="66" type="line"/>
      <point x="682" y="-8"/>
      <point x="567" y="-139"/>
      <point x="521" y="-117" type="curve"/>
      <point x="466" y="-93"/>
      <point x="436" y="-77"/>
      <point x="395" y="-50" type="curve" smooth="yes"/>
      <point x="331" y="-8"/>
      <point x="360" y="74"/>
      <point x="413" y="113" type="curve"/>
      <point x="414" y="113"/>
      <point x="414" y="114"/>
      <point x="413" y="114" type="curve" smooth="yes"/>
      <point x="428" y="117"/>
      <point x="476" y="130"/>
      <point x="627" y="172" type="curve"/>
      <point x="344" y="172" type="line"/>
      <point x="344" y="-9"/>
      <point x="216" y="7"/>
      <point x="188" y="26" type="curve" smooth="yes"/>
      <point x="166" y="41"/>
      <point x="115" y="80"/>
      <point x="82" y="119" type="curve" smooth="yes"/>
      <point x="51" y="156"/>
      <point x="62" y="280"/>
      <point x="220" y="273" type="curve"/>
      <point x="220" y="340" type="line"/>
      <point x="197" y="338"/>
      <point x="178" y="340"/>
      <point x="174" y="345" type="curve" smooth="yes"/>
      <point x="119" y="400"/>
      <point x="93" y="414"/>
      <point x="42" y="462" type="curve"/>
      <point x="-21" y="519"/>
      <point x="101" y="679"/>
      <point x="187" y="607" type="curve" smooth="yes"/>
      <point x="250" y="554"/>
      <point x="308" y="510"/>
      <point x="346" y="467" type="curve"/>
      <point x="344" y="391" type="line"/>
      <point x="344" y="270" type="line"/>
      <point x="660" y="271" type="line"/>
      <point x="660" y="523" type="line"/>
      <point x="356" y="523" type="line"/>
    </contour>
    <contour>
      <point x="220" y="432" type="curve"/>
      <point x="220" y="472"/>
      <point x="221" y="521"/>
      <point x="214" y="528" type="curve" smooth="yes"/>
      <point x="163" y="580"/>
      <point x="90" y="465"/>
      <point x="124" y="437" type="curve" smooth="yes"/>
      <point x="138" y="426"/>
      <point x="183" y="426"/>
    </contour>
    <contour>
      <point x="219" y="176" type="curve"/>
      <point x="153" y="184"/>
      <point x="137" y="138"/>
      <point x="157" y="115" type="curve" smooth="yes"/>
      <point x="173" y="97"/>
      <point x="220" y="99"/>
    </contour>
  </outline>
</glyph>
<glyph name="dvBH_VA" format="1">
  <advance width="1031"/>
  <outline>
    <contour>
      <point x="378" y="619" type="line"/>
      <point x="759" y="619" type="line"/>
      <point x="759" y="523" type="line"/>
      <point x="416" y="523" type="line"/>
    </contour>
    <component base="dvBH" xOffset="4"/>
    <component base="dvVA" xOffset="442"/>
  </outline>
</glyph>
<glyph name="dvB_BHA" format="1">
  <advance width="967"/>
  <outline>
    <contour>
      <point x="467" y="242" type="line"/>
      <point x="467" y="242"/>
      <point x="369" y="71"/>
      <point x="267" y="71" type="curve" smooth="yes"/>
      <point x="161" y="71"/>
      <point x="86" y="191"/>
      <point x="49" y="263" type="curve" smooth="yes"/>
      <point x="4" y="348"/>
      <point x="191" y="478"/>
      <point x="259" y="456" type="curve" smooth="yes"/>
      <point x="293" y="445"/>
      <point x="427" y="307"/>
      <point x="452" y="262" type="curve"/>
      <point x="444" y="253" type="line"/>
    </contour>
    <contour>
      <point x="-13" y="619" type="line"/>
      <point x="427" y="619" type="line"/>
      <point x="427" y="523" type="line"/>
      <point x="-13" y="523" type="line"/>
    </contour>
    <contour>
      <point x="146" y="201" type="curve"/>
      <point x="165" y="179"/>
      <point x="226" y="163"/>
      <point x="312" y="195" type="curve"/>
      <point x="175" y="327" type="line"/>
      <point x="136" y="289"/>
      <point x="122" y="226"/>
    </contour>
    <contour>
      <point x="206" y="348" type="curve"/>
      <point x="348" y="211" type="line"/>
      <point x="367" y="220"/>
      <point x="387" y="233"/>
      <point x="408" y="247" type="curve"/>
      <point x="326" y="357"/>
      <point x="255" y="371"/>
    </contour>
    <component base="dvBHA" xOffset="290"/>
  </outline>
</glyph>
<glyph name="dvB_SHA" format="1">
  <advance width="1074"/>
  <outline>
    <contour>
      <point x="435" y="243" type="line"/>
      <point x="222" y="472"/>
      <point x="95" y="278"/>
      <point x="152" y="201" type="curve" smooth="yes"/>
      <point x="176" y="169"/>
      <point x="308" y="127"/>
      <point x="437" y="249" type="curve"/>
      <point x="462" y="157" type="line"/>
      <point x="462" y="157"/>
      <point x="375" y="71"/>
      <point x="273" y="71" type="curve" smooth="yes"/>
      <point x="167" y="71"/>
      <point x="92" y="191"/>
      <point x="55" y="263" type="curve" smooth="yes"/>
      <point x="10" y="348"/>
      <point x="229" y="500"/>
      <point x="288" y="460" type="curve" smooth="yes"/>
      <point x="322" y="436"/>
      <point x="452" y="260"/>
      <point x="488" y="237" type="curve"/>
    </contour>
    <contour>
      <point x="168" y="340" type="line"/>
      <point x="192" y="368" type="line"/>
      <point x="390" y="176" type="line"/>
      <point x="366" y="149" type="line"/>
    </contour>
    <contour>
      <point x="-7" y="619" type="line"/>
      <point x="540" y="619" type="line"/>
      <point x="540" y="523" type="line"/>
      <point x="-7" y="523" type="line"/>
    </contour>
    <component base="dvSHA" xOffset="369"/>
  </outline>
</glyph>
<glyph name="dvCH" format="1">
  <advance width="595"/>
  <outline>
    <contour>
      <point x="618" y="397" type="curve" smooth="yes"/>
      <point x="717" y="223"/>
      <point x="335" y="-125"/>
      <point x="203" y="7" type="curve" smooth="yes"/>
      <point x="144" y="66"/>
      <point x="107" y="112"/>
      <point x="57" y="177" type="curve" smooth="yes"/>
      <point x="16" y="231"/>
      <point x="175" y="342"/>
      <point x="252" y="351" type="curve"/>
      <point x="314" y="286" type="line"/>
      <point x="219" y="248"/>
      <point x="118" y="169"/>
      <point x="170" y="110" type="curve" smooth="yes"/>
      <point x="293" y="-29"/>
      <point x="629" y="341"/>
      <point x="536" y="439" type="curve" smooth="yes"/>
      <point x="499" y="478"/>
      <point x="379" y="271"/>
      <point x="477" y="181" type="curve"/>
      <point x="459" y="160" type="line"/>
      <point x="424" y="191"/>
      <point x="373" y="250"/>
      <point x="357" y="276" type="curve" smooth="yes"/>
      <point x="326" y="323"/>
      <point x="406" y="532"/>
      <point x="501" y="532" type="curve" smooth="yes"/>
      <point x="526" y="532"/>
      <point x="601" y="426"/>
    </contour>
    <contour>
      <point x="170" y="560" type="curve"/>
      <point x="269" y="523" type="line"/>
      <point x="141" y="466"/>
      <point x="71" y="418"/>
      <point x="182" y="324" type="curve"/>
      <point x="163" y="304" type="line"/>
      <point x="90" y="344"/>
      <point x="-73" y="467"/>
    </contour>
    <contour>
      <point x="-28" y="619" type="line"/>
      <point x="697" y="619" type="line"/>
      <point x="697" y="523" type="line"/>
      <point x="-28" y="523" type="line"/>
    </contour>
  </outline>
</glyph>
<glyph name="dvCH_RA" format="1">
  <advance width="728"/>
  <outline>
    <contour>
      <point x="604" y="619" type="move" name="abvm.bindu"/>
    </contour>
    <contour>
      <point x="344" y="-200" type="move" name="blwm.virama"/>
    </contour>
    <contour>
      <point x="591" y="621" type="move" name="abvm.e"/>
    </contour>
    <contour>
      <point x="344" y="-190" type="move" name="blwm.u"/>
    </contour>
    <component base="dvCHA"/>
    <component base="dvRashtrasign" xOffset="617"/>
  </outline>
</glyph>
<glyph name="dvC" format="1">
  <advance width="541"/>
  <outline>
    <contour>
      <point x="408" y="319" type="line"/>
      <point x="97" y="212"/>
      <point x="333" y="24"/>
      <point x="569" y="347" type="curve"/>
      <point x="647" y="275" type="line"/>
      <point x="532" y="73"/>
      <point x="365" y="39"/>
      <point x="303" y="89" type="curve" smooth="yes"/>
      <point x="242" y="138"/>
      <point x="218" y="159"/>
      <point x="165" y="220" type="curve" smooth="yes"/>
      <point x="140" y="248"/>
      <point x="153" y="285"/>
      <point x="180" y="319" type="curve"/>
      <point x="88" y="319" type="line"/>
      <point x="-8" y="402" type="line"/>
      <point x="310" y="402" type="line"/>
    </contour>
    <contour>
      <point x="-70" y="619" type="line"/>
      <point x="657" y="619" type="line"/>
      <point x="657" y="522" type="line"/>
      <point x="-70" y="522" type="line"/>
    </contour>
  </outline>
</glyph>
<glyph name="dvC_CA" format="1">
  <advance width="1264"/>
  <outline>
    <contour>
      <point x="-9" y="619" type="line"/>
      <point x="718" y="619" type="line"/>
      <point x="718" y="523" type="line"/>
      <point x="-9" y="523" type="line"/>
    </contour>
    <contour>
      <point x="53" y="402" type="line"/>
      <point x="371" y="402" type="line"/>
      <point x="469" y="319" type="line"/>
      <point x="149" y="319" type="line"/>
    </contour>
    <contour>
      <point x="469" y="319" type="line"/>
      <point x="158" y="212"/>
      <point x="446" y="2"/>
      <point x="682" y="325" type="curve"/>
      <point x="760" y="253" type="line"/>
      <point x="645" y="51"/>
      <point x="426" y="39"/>
      <point x="364" y="89" type="curve" smooth="yes"/>
      <point x="303" y="138"/>
      <point x="279" y="159"/>
      <point x="226" y="220" type="curve" smooth="yes"/>
      <point x="170" y="284"/>
      <point x="306" y="401"/>
      <point x="379" y="395" type="curve"/>
    </contour>
    <component base="dvCA" xOffset="498"/>
  </outline>
</glyph>
<glyph name="dvC_R" format="1">
  <advance width="541"/>
  <outline>
    <contour>
      <point x="591" y="141" type="line"/>
      <point x="560" y="91"/>
      <point x="513" y="4"/>
      <point x="411" y="-77" type="curve"/>
      <point x="327" y="-11" type="line"/>
      <point x="416" y="55"/>
      <point x="498" y="117"/>
      <point x="560" y="190" type="curve"/>
    </contour>
    <component base="dvC"/>
  </outline>
</glyph>
<glyph name="dvDA" format="1">
  <advance width="605"/>
  <outline>
    <contour>
      <point x="432" y="662" type="move" name="abvm.bindu"/>
    </contour>
    <contour>
      <point x="227" y="-231" type="move" name="blwm.virama"/>
    </contour>
    <contour>
      <point x="458" y="621" type="move" name="abvm.e"/>
    </contour>
    <contour>
      <point x="447" y="-160" type="move" name="blwm.u"/>
    </contour>
    <contour>
      <point x="-8" y="522" type="line"/>
      <point x="349" y="522" type="line"/>
      <point x="349" y="468" type="line"/>
      <point x="165" y="457" type="line"/>
      <point x="88" y="449"/>
      <point x="10" y="261"/>
      <point x="60" y="187" type="curve" smooth="yes"/>
      <point x="102" y="125"/>
      <point x="164" y="75"/>
      <point x="228" y="23" type="curve" smooth="yes"/>
      <point x="261" y="-4"/>
      <point x="293" y="-24"/>
      <point x="343" y="-20" type="curve" smooth="yes"/>
      <point x="394" y="-15"/>
      <point x="433" y="1"/>
      <point x="466" y="24" type="curve"/>
      <point x="580" y="-119" type="line"/>
      <point x="619" y="-92" type="line"/>
      <point x="504" y="51" type="line"/>
      <point x="557" y="104" type="line" smooth="yes"/>
      <point x="587" y="134"/>
      <point x="570" y="180"/>
      <point x="543" y="212" type="curve" smooth="yes"/>
      <point x="511" y="250"/>
      <point x="476" y="278"/>
      <point x="429" y="248" type="curve" smooth="yes"/>
      <point x="411" y="237"/>
      <point x="374" y="209"/>
      <point x="359" y="179" type="curve" smooth="yes"/>
      <point x="355" y="171"/>
      <point x="360" y="160"/>
      <point x="396" y="113" type="curve"/>
      <point x="367" y="90"/>
      <point x="332" y="75"/>
      <point x="286" y="79" type="curve" smooth="yes"/>
      <point x="121" y="92"/>
      <point x="164" y="380"/>
      <point x="269" y="381" type="curve"/>
      <point x="460" y="381" type="line"/>
      <point x="460" y="522" type="line"/>
      <point x="610" y="522" type="line"/>
      <point x="610" y="619" type="line"/>
      <point x="-8" y="619" type="line"/>
    </contour>
  </outline>
</glyph>
<glyph name="dvDA_mU" format="1">
  <advance width="639"/>
  <outline>
    <contour>
      <point x="428" y="619" type="move" name="abvm.bindu"/>
    </contour>
    <contour>
      <point x="407" y="619" type="move" name="abvm.e"/>
    </contour>
    <contour>
      <point x="488" y="-18" type="curve" smooth="yes"/>
      <point x="534" y="-20"/>
      <point x="585" y="-94"/>
      <point x="628" y="-154" type="curve" smooth="yes"/>
      <point x="700" y="-255"/>
      <point x="622" y="-345"/>
      <point x="499" y="-365" type="curve" smooth="yes"/>
      <point x="361" y="-387"/>
      <point x="258" y="-284"/>
      <point x="161" y="-172" type="curve"/>
      <point x="193" y="-146" type="line"/>
      <point x="341" y="-316"/>
      <point x="513" y="-316"/>
      <point x="551" y="-206" type="curve" smooth="yes"/>
      <point x="572" y="-148"/>
      <point x="551" y="-36"/>
      <point x="363" y="-169" type="curve"/>
      <point x="281" y="-97" type="line"/>
      <point x="337" y="-61"/>
      <point x="455" y="-17"/>
    </contour>
    <contour>
      <point x="349" y="468" type="line"/>
      <point x="349" y="546" type="line"/>
      <point x="460" y="546" type="line"/>
      <point x="460" y="381" type="line"/>
      <point x="269" y="381" type="line"/>
      <point x="164" y="380"/>
      <point x="121" y="92"/>
      <point x="286" y="79" type="curve" smooth="yes"/>
      <point x="388" y="71"/>
      <point x="432" y="151"/>
      <point x="483" y="212" type="curve"/>
      <point x="568" y="137" type="line"/>
      <point x="509" y="55"/>
      <point x="458" y="-9"/>
      <point x="343" y="-20" type="curve"/>
      <point x="293" y="-24"/>
      <point x="261" y="-4"/>
      <point x="228" y="23" type="curve" smooth="yes"/>
      <point x="164" y="75"/>
      <point x="102" y="125"/>
      <point x="60" y="187" type="curve" smooth="yes"/>
      <point x="10" y="261"/>
      <point x="88" y="449"/>
      <point x="165" y="457" type="curve"/>
    </contour>
    <contour>
      <point x="-8" y="619" type="line"/>
      <point x="655" y="619" type="line"/>
      <point x="655" y="523" type="line"/>
      <point x="-8" y="523" type="line"/>
    </contour>
    <contour>
      <point x="553" y="-134" type="line"/>
      <point x="370" y="139"/>
      <point x="359" y="169"/>
      <point x="366" y="183" type="curve" smooth="yes"/>
      <point x="381" y="213"/>
      <point x="411" y="237"/>
      <point x="429" y="248" type="curve" smooth="yes"/>
      <point x="476" y="278"/>
      <point x="511" y="250"/>
      <point x="543" y="212" type="curve" smooth="yes"/>
      <point x="570" y="180"/>
      <point x="585" y="140"/>
      <point x="555" y="110" type="curve" smooth="yes"/>
      <point x="488" y="42" type="line"/>
      <point x="592" y="-107" type="line"/>
    </contour>
  </outline>
</glyph>
<glyph name="dvDDH_DDHA" format="1">
  <advance width="604"/>
  <outline>
    <contour>
      <point x="414" y="619" type="move" name="abvm.bindu"/>
    </contour>
    <contour>
      <point x="346" y="-435" type="move" name="blwm.virama"/>
    </contour>
    <contour>
      <point x="426" y="619" type="move" name="abvm.e"/>
    </contour>
    <contour>
      <point x="364" y="-434" type="move" name="blwm.u"/>
    </contour>
    <contour>
      <point x="-10" y="619" type="line"/>
      <point x="649" y="619" type="line"/>
      <point x="649" y="523" type="line"/>
      <point x="-10" y="523" type="line"/>
    </contour>
    <contour>
      <point x="349" y="-1" type="line"/>
      <point x="349" y="77" type="line"/>
      <point x="460" y="77" type="line"/>
      <point x="460" y="-78" type="line"/>
      <point x="301" y="-79" type="line" smooth="yes"/>
      <point x="164" y="-80"/>
      <point x="111" y="-389"/>
      <point x="358" y="-336" type="curve"/>
      <point x="338" y="-314"/>
      <point x="317" y="-282"/>
      <point x="306" y="-257" type="curve" smooth="yes"/>
      <point x="276" y="-187"/>
      <point x="392" y="-124"/>
      <point x="417" y="-124" type="curve" smooth="yes"/>
      <point x="442" y="-124"/>
      <point x="580" y="-258"/>
      <point x="569" y="-275" type="curve" smooth="yes"/>
      <point x="424" y="-499"/>
      <point x="258" y="-493"/>
      <point x="92" y="-233" type="curve" smooth="yes"/>
      <point x="44" y="-157"/>
      <point x="117" y="-20"/>
      <point x="194" y="-12" type="curve"/>
    </contour>
    <contour>
      <point x="389" y="-323" type="curve"/>
      <point x="439" y="-285"/>
      <point x="498" y="-227"/>
      <point x="476" y="-205" type="curve" smooth="yes"/>
      <point x="453" y="-182"/>
      <point x="365" y="-247"/>
    </contour>
    <contour>
      <point x="349" y="467" type="line"/>
      <point x="349" y="545" type="line"/>
      <point x="460" y="545" type="line"/>
      <point x="460" y="390" type="line"/>
      <point x="301" y="389" type="line" smooth="yes"/>
      <point x="164" y="388"/>
      <point x="111" y="79"/>
      <point x="358" y="132" type="curve"/>
      <point x="338" y="154"/>
      <point x="317" y="186"/>
      <point x="306" y="211" type="curve" smooth="yes"/>
      <point x="276" y="281"/>
      <point x="392" y="344"/>
      <point x="417" y="344" type="curve" smooth="yes"/>
      <point x="442" y="344"/>
      <point x="580" y="210"/>
      <point x="569" y="193" type="curve" smooth="yes"/>
      <point x="424" y="-31"/>
      <point x="258" y="-25"/>
      <point x="92" y="235" type="curve" smooth="yes"/>
      <point x="44" y="311"/>
      <point x="117" y="448"/>
      <point x="194" y="456" type="curve"/>
    </contour>
    <contour>
      <point x="389" y="145" type="curve"/>
      <point x="439" y="183"/>
      <point x="498" y="241"/>
      <point x="476" y="263" type="curve" smooth="yes"/>
      <point x="453" y="286"/>
      <point x="365" y="221"/>
    </contour>
  </outline>
</glyph>
<glyph name="dvDD_DDHA" format="1">
  <advance width="522"/>
  <outline>
    <contour>
      <point x="398" y="662" type="move" name="abvm.bindu"/>
    </contour>
    <contour>
      <point x="161" y="-390" type="move" name="blwm.virama"/>
    </contour>
    <contour>
      <point x="436" y="672" type="move" name="abvm.e"/>
    </contour>
    <contour>
      <point x="161" y="-402" type="move" name="blwm.u"/>
    </contour>
  </outline>
</glyph>
<glyph name="dvDH_MA" format="1">
  <advance width="1106"/>
  <outline>
    <contour>
      <point x="382" y="287" type="line"/>
      <point x="274" y="268"/>
      <point x="141" y="187"/>
      <point x="204" y="127" type="curve" smooth="yes"/>
      <point x="248" y="86"/>
      <point x="411" y="150"/>
      <point x="479" y="238" type="curve"/>
      <point x="533" y="155" type="line"/>
      <point x="440" y="38"/>
      <point x="271" y="3"/>
      <point x="220" y="50" type="curve" smooth="yes"/>
      <point x="178" y="88"/>
      <point x="130" y="128"/>
      <point x="88" y="178" type="curve" smooth="yes"/>
      <point x="56" y="215"/>
      <point x="109" y="272"/>
      <point x="173" y="314" type="curve"/>
      <point x="135" y="340"/>
      <point x="64" y="398"/>
      <point x="35" y="429" type="curve" smooth="yes"/>
      <point x="-51" y="521"/>
      <point x="177" y="644"/>
      <point x="214" y="625" type="curve" smooth="yes"/>
      <point x="269" y="597"/>
      <point x="306" y="565"/>
      <point x="333" y="532" type="curve" smooth="yes"/>
      <point x="383" y="471"/>
      <point x="266" y="367"/>
      <point x="161" y="376" type="curve"/>
      <point x="173" y="362"/>
      <point x="189" y="348"/>
      <point x="209" y="334" type="curve"/>
      <point x="246" y="354"/>
      <point x="284" y="366"/>
      <point x="308" y="364" type="curve"/>
    </contour>
    <contour>
      <point x="375" y="619" type="line"/>
      <point x="697" y="619" type="line"/>
      <point x="697" y="523" type="line"/>
      <point x="414" y="523" type="line"/>
    </contour>
    <contour>
      <point x="256" y="537" type="curve" smooth="yes"/>
      <point x="226" y="562"/>
      <point x="118" y="520"/>
      <point x="125" y="444" type="curve"/>
      <point x="205" y="444"/>
      <point x="276" y="519"/>
    </contour>
    <component base="dvMA" xOffset="426"/>
  </outline>
</glyph>
<glyph name="dvD_DA" format="1">
  <advance width="556"/>
  <outline>
    <contour>
      <point x="378" y="619" type="move" name="abvm.bindu"/>
    </contour>
    <contour>
      <point x="496" y="-225" type="move" name="blwm.virama"/>
    </contour>
    <contour>
      <point x="385" y="619" type="move" name="abvm.e"/>
    </contour>
    <contour>
      <point x="473" y="-205" type="move" name="blwm.u"/>
    </contour>
    <contour>
      <point x="-37" y="619" type="line"/>
      <point x="573" y="619" type="line"/>
      <point x="573" y="523" type="line"/>
      <point x="-37" y="523" type="line"/>
    </contour>
    <contour>
      <point x="514" y="-247" type="line"/>
      <point x="309" y="10"/>
      <point x="286" y="37"/>
      <point x="293" y="51" type="curve" smooth="yes"/>
      <point x="308" y="81"/>
      <point x="345" y="109"/>
      <point x="363" y="120" type="curve" smooth="yes"/>
      <point x="410" y="150"/>
      <point x="445" y="122"/>
      <point x="477" y="84" type="curve" smooth="yes"/>
      <point x="504" y="52"/>
      <point x="521" y="6"/>
      <point x="491" y="-24" type="curve" smooth="yes"/>
      <point x="438" y="-77" type="line"/>
      <point x="553" y="-220" type="line"/>
    </contour>
    <contour>
      <point x="462" y="-55" type="line"/>
      <point x="368" y="-130"/>
      <point x="258" y="-168"/>
      <point x="199" y="-109" type="curve" smooth="yes"/>
      <point x="140" y="-50"/>
      <point x="93" y="5"/>
      <point x="49" y="72" type="curve" smooth="yes"/>
      <point x="26" y="107"/>
      <point x="80" y="235"/>
      <point x="161" y="261" type="curve" smooth="yes"/>
      <point x="201" y="274"/>
      <point x="374" y="266"/>
      <point x="374" y="266" type="curve"/>
      <point x="441" y="179" type="line"/>
      <point x="441" y="179"/>
      <point x="288" y="183"/>
      <point x="244" y="182" type="curve" smooth="yes"/>
      <point x="168" y="180"/>
      <point x="99" y="93"/>
      <point x="170" y="0" type="curve" smooth="yes"/>
      <point x="226" y="-73"/>
      <point x="321" y="-46"/>
      <point x="403" y="20" type="curve"/>
    </contour>
    <contour>
      <point x="153" y="454" type="curve"/>
      <point x="321" y="469" type="line"/>
      <point x="323" y="547" type="line"/>
      <point x="433" y="546" type="line"/>
      <point x="432" y="387" type="line"/>
      <point x="432" y="387"/>
      <point x="269" y="390"/>
      <point x="248" y="384" type="curve" smooth="yes"/>
      <point x="184" y="366"/>
      <point x="138" y="303"/>
      <point x="175" y="251" type="curve"/>
      <point x="142" y="228" type="line"/>
      <point x="42" y="280"/>
      <point x="40" y="394"/>
    </contour>
  </outline>
</glyph>
<glyph name="dvD_NA" format="1">
  <advance width="605"/>
  <outline>
    <contour>
      <point x="450" y="662" type="move" name="abvm.bindu"/>
    </contour>
    <contour>
      <point x="375" y="-204" type="move" name="blwm.virama"/>
    </contour>
    <contour>
      <point x="450" y="672" type="move" name="abvm.e"/>
    </contour>
    <contour>
      <point x="394" y="-194" type="move" name="blwm.u"/>
    </contour>
    <contour>
      <point x="496" y="29" type="line"/>
      <point x="292" y="-55" type="line" smooth="yes"/>
      <point x="75" y="-147"/>
      <point x="339" y="-232"/>
      <point x="290" y="-47" type="curve"/>
      <point x="326" y="-25" type="line"/>
      <point x="452" y="-80"/>
      <point x="350" y="-239"/>
      <point x="297" y="-225" type="curve"/>
      <point x="240" y="-206"/>
      <point x="209" y="-196"/>
      <point x="163" y="-175" type="curve"/>
      <point x="95" y="-141"/>
      <point x="109" y="-54"/>
      <point x="159" y="-11" type="curve"/>
      <point x="167" y="-2"/>
      <point x="40" y="-64"/>
      <point x="459" y="117" type="curve"/>
    </contour>
    <component base="dvDA"/>
  </outline>
</glyph>
<glyph name="dvE" format="1">
  <advance width="540"/>
  <outline>
    <contour>
      <point x="438" y="619" type="move" name="abvm.bindu"/>
    </contour>
    <contour>
      <point x="303" y="211" type="line"/>
      <point x="319" y="218"/>
      <point x="371" y="249"/>
      <point x="371" y="281" type="curve" smooth="yes"/>
      <point x="371" y="541" type="line"/>
      <point x="495" y="541" type="line"/>
      <point x="495" y="246" type="line" smooth="yes"/>
      <point x="495" y="218"/>
      <point x="440" y="166"/>
      <point x="395" y="138" type="curve"/>
    </contour>
    <contour>
      <point x="276" y="-37" type="line"/>
      <point x="311" y="-20"/>
      <point x="333" y="45"/>
      <point x="256" y="109" type="curve" smooth="yes"/>
      <point x="186" y="167"/>
      <point x="71" y="253"/>
      <point x="67" y="261" type="curve" smooth="yes"/>
      <point x="63" y="270"/>
      <point x="63" y="452"/>
      <point x="61" y="547" type="curve"/>
      <point x="182" y="542" type="line"/>
      <point x="183" y="429"/>
      <point x="170" y="256"/>
      <point x="195" y="212" type="curve" smooth="yes"/>
      <point x="213" y="181"/>
      <point x="290" y="121"/>
      <point x="342" y="83" type="curve" smooth="yes"/>
      <point x="422" y="25"/>
      <point x="420" y="-63"/>
      <point x="371" y="-109" type="curve"/>
    </contour>
    <contour>
      <point x="-7" y="619" type="line"/>
      <point x="561" y="619" type="line"/>
      <point x="561" y="523" type="line"/>
      <point x="-7" y="523" type="line"/>
    </contour>
  </outline>
</glyph>
<glyph name="dvFive" format="1">
  <advance width="550"/>
  <outline>
    <contour>
      <point x="350" y="554" type="line"/>
      <point x="33" y="325"/>
      <point x="123" y="-44"/>
      <point x="409" y="301" type="curve"/>
      <point x="507" y="220" type="line"/>
      <point x="419" y="135"/>
      <point x="314" y="1"/>
      <point x="196" y="85" type="curve" smooth="yes"/>
      <point x="130" y="132"/>
      <point x="106" y="153"/>
      <point x="55" y="208" type="curve" smooth="yes"/>
      <point x="-20" y="286"/>
      <point x="79" y="492"/>
      <point x="249" y="628" type="curve"/>
    </contour>
    <contour>
      <point x="539" y="5" type="line"/>
      <point x="334" y="262"/>
      <point x="311" y="289"/>
      <point x="318" y="303" type="curve" smooth="yes"/>
      <point x="333" y="333"/>
      <point x="370" y="361"/>
      <point x="388" y="372" type="curve" smooth="yes"/>
      <point x="435" y="402"/>
      <point x="470" y="374"/>
      <point x="502" y="336" type="curve" smooth="yes"/>
      <point x="529" y="304"/>
      <point x="546" y="258"/>
      <point x="516" y="228" type="curve" smooth="yes"/>
      <point x="463" y="175" type="line"/>
      <point x="578" y="32" type="line"/>
    </contour>
  </outline>
</glyph>
<glyph name="dvGHA" format="1">
  <advance width="708"/>
  <outline>
    <contour>
      <point x="507" y="538" type="line"/>
      <point x="631" y="538" type="line"/>
      <point x="631" y="-55" type="line"/>
      <point x="507" y="1" type="line"/>
    </contour>
    <contour>
      <point x="-11" y="619" type="line"/>
      <point x="716" y="619" type="line"/>
      <point x="716" y="523" type="line"/>
      <point x="-11" y="523" type="line"/>
    </contour>
    <contour>
      <point x="399" y="287" type="line"/>
      <point x="291" y="268"/>
      <point x="158" y="187"/>
      <point x="221" y="127" type="curve" smooth="yes"/>
      <point x="279" y="72"/>
      <point x="463" y="187"/>
      <point x="510" y="305" type="curve"/>
      <point x="578" y="209" type="line"/>
      <point x="499" y="47"/>
      <point x="296" y="-4"/>
      <point x="237" y="50" type="curve" smooth="yes"/>
      <point x="195" y="88"/>
      <point x="147" y="128"/>
      <point x="105" y="178" type="curve" smooth="yes"/>
      <point x="50" y="243"/>
      <point x="252" y="370"/>
      <point x="325" y="364" type="curve"/>
    </contour>
    <contour>
      <point x="225" y="567" type="curve"/>
      <point x="322" y="523" type="line"/>
      <point x="199" y="476"/>
      <point x="124" y="384"/>
      <point x="238" y="325" type="curve"/>
      <point x="212" y="298" type="line"/>
      <point x="117" y="326"/>
      <point x="-21" y="448"/>
    </contour>
  </outline>
</glyph>
<glyph name="dvGH" format="1">
  <advance width="505"/>
  <outline>
    <contour>
      <point x="324" y="406" type="line"/>
      <point x="297" y="408"/>
      <point x="253" y="392"/>
      <point x="210" y="368" type="curve"/>
      <point x="138" y="444"/>
      <point x="210" y="477"/>
      <point x="320" y="522" type="curve"/>
      <point x="716" y="522" type="line"/>
      <point x="716" y="619" type="line"/>
      <point x="-11" y="619" type="line"/>
      <point x="-11" y="522" type="line"/>
      <point x="129" y="522" type="line"/>
      <point x="65" y="485"/>
      <point x="62" y="458"/>
      <point x="105" y="414" type="curve" smooth="yes"/>
      <point x="139" y="379"/>
      <point x="162" y="360"/>
      <point x="179" y="348" type="curve"/>
      <point x="119" y="308"/>
      <point x="73" y="254"/>
      <point x="104" y="220" type="curve" smooth="yes"/>
      <point x="158" y="159"/>
      <point x="177" y="148"/>
      <point x="236" y="92" type="curve" smooth="yes"/>
      <point x="294" y="37"/>
      <point x="498" y="89"/>
      <point x="577" y="251" type="curve"/>
      <point x="509" y="347" type="line"/>
      <point x="462" y="229"/>
      <point x="278" y="114"/>
      <point x="220" y="169" type="curve" smooth="yes"/>
      <point x="157" y="229"/>
      <point x="290" y="310"/>
      <point x="398" y="329" type="curve"/>
    </contour>
  </outline>
</glyph>
<glyph name="dvHA" format="1">
  <advance width="520"/>
  <outline>
    <contour>
      <point x="422" y="662" type="move" name="abvm.bindu"/>
    </contour>
    <contour>
      <point x="280" y="-141" type="move" name="blwm.virama"/>
    </contour>
    <contour>
      <point x="420" y="621" type="move" name="abvm.e"/>
    </contour>
    <contour>
      <point x="397" y="-6" type="move" name="blwm.u"/>
    </contour>
    <contour>
      <point x="-13" y="523" type="line"/>
      <point x="311" y="523" type="line"/>
      <point x="311" y="466" type="line"/>
      <point x="127" y="455" type="line" smooth="yes"/>
      <point x="73" y="452"/>
      <point x="14" y="328"/>
      <point x="56" y="283" type="curve" smooth="yes"/>
      <point x="74" y="263"/>
      <point x="97" y="241"/>
      <point x="122" y="219" type="curve"/>
      <point x="73" y="181"/>
      <point x="35" y="138"/>
      <point x="36" y="102" type="curve" smooth="yes"/>
      <point x="39" y="5"/>
      <point x="187" y="-90"/>
      <point x="311" y="-199" type="curve"/>
      <point x="336" y="-164" type="line"/>
      <point x="260" y="-102"/>
      <point x="137" y="-15"/>
      <point x="140" y="54" type="curve"/>
      <point x="142" y="129"/>
      <point x="345" y="255"/>
      <point x="385" y="198" type="curve" smooth="yes"/>
      <point x="415" y="156"/>
      <point x="356" y="96"/>
      <point x="298" y="71" type="curve"/>
      <point x="382" y="-8" type="line"/>
      <point x="417" y="6"/>
      <point x="497" y="67"/>
      <point x="494" y="138" type="curve" smooth="yes"/>
      <point x="493" y="163"/>
      <point x="361" y="308"/>
      <point x="308" y="309" type="curve" smooth="yes"/>
      <point x="275" y="310"/>
      <point x="208" y="280"/>
      <point x="149" y="239" type="curve"/>
      <point x="86" y="278"/>
      <point x="120" y="381"/>
      <point x="201" y="381" type="curve" smooth="yes"/>
      <point x="422" y="381" type="line"/>
      <point x="422" y="523" type="line"/>
      <point x="527" y="523" type="line"/>
      <point x="527" y="619" type="line"/>
      <point x="-13" y="619" type="line"/>
    </contour>
  </outline>
</glyph>
<glyph name="dvH_NNA" format="1">
  <advance width="707"/>
  <outline>
    <contour>
      <point x="489" y="619" type="move" name="abvm.bindu"/>
    </contour>
    <contour>
      <point x="380" y="-237" type="move" name="blwm.virama"/>
    </contour>
    <contour>
      <point x="495" y="619" type="move" name="abvm.e"/>
    </contour>
    <contour>
      <point x="370" y="-237" type="move" name="blwm.u"/>
    </contour>
    <contour>
      <point x="-13" y="619" type="line"/>
      <point x="716" y="619" type="line"/>
      <point x="716" y="523" type="line"/>
      <point x="-13" y="523" type="line"/>
    </contour>
    <contour>
      <point x="148" y="200" type="line"/>
      <point x="119" y="225"/>
      <point x="77" y="260"/>
      <point x="56" y="283" type="curve" smooth="yes"/>
      <point x="14" y="328"/>
      <point x="73" y="452"/>
      <point x="127" y="455" type="curve"/>
      <point x="441" y="466" type="line"/>
      <point x="441" y="544" type="line"/>
      <point x="552" y="544" type="line"/>
      <point x="552" y="381" type="line"/>
      <point x="201" y="381" type="line" smooth="yes"/>
      <point x="118" y="381"/>
      <point x="99" y="263"/>
      <point x="169" y="226" type="curve"/>
    </contour>
    <contour>
      <point x="419" y="327" type="line"/>
      <point x="472" y="326"/>
      <point x="696" y="40"/>
      <point x="683" y="18" type="curve" smooth="yes"/>
      <point x="672" y="-1"/>
      <point x="657" y="-26"/>
      <point x="612" y="-68" type="curve"/>
      <point x="538" y="-1" type="line"/>
      <point x="580" y="45"/>
      <point x="598" y="77"/>
      <point x="503" y="170" type="curve" smooth="yes"/>
      <point x="342" y="330"/>
      <point x="67" y="95"/>
      <point x="199" y="-66" type="curve" smooth="yes"/>
      <point x="230" y="-104"/>
      <point x="310" y="-191"/>
      <point x="446" y="-133" type="curve"/>
      <point x="511" y="-213" type="line"/>
      <point x="443" y="-237"/>
      <point x="312" y="-246"/>
      <point x="294" y="-232" type="curve" smooth="yes"/>
      <point x="217" y="-173"/>
      <point x="38" y="25"/>
      <point x="36" y="102" type="curve" smooth="yes"/>
      <point x="34" y="185"/>
      <point x="333" y="329"/>
      <point x="399" y="327" type="curve" smooth="yes"/>
    </contour>
    <contour>
      <point x="514" y="55" type="line"/>
      <point x="514" y="-34"/>
      <point x="396" y="-100"/>
      <point x="320" y="-60" type="curve" smooth="yes"/>
      <point x="299" y="-49"/>
      <point x="260" y="-14"/>
      <point x="221" y="35" type="curve" smooth="yes"/>
      <point x="214" y="43"/>
      <point x="212" y="234"/>
      <point x="212" y="234" type="curve"/>
      <point x="211" y="234"/>
      <point x="302" y="234"/>
      <point x="302" y="234" type="curve"/>
      <point x="303" y="6" type="line"/>
      <point x="349" y="-37"/>
      <point x="424" y="-8"/>
      <point x="422" y="62" type="curve"/>
      <point x="422" y="234" type="line"/>
      <point x="514" y="234" type="line"/>
    </contour>
  </outline>
</glyph>
<glyph name="dvJ" format="1">
  <advance width="628"/>
  <outline>
    <contour>
      <point x="-6" y="619" type="line"/>
      <point x="788" y="619" type="line"/>
      <point x="788" y="523" type="line"/>
      <point x="-6" y="523" type="line"/>
    </contour>
    <contour>
      <point x="427" y="345" type="line"/>
      <point x="482" y="315"/>
      <point x="546" y="242"/>
      <point x="554" y="216" type="curve" smooth="yes"/>
      <point x="588" y="112"/>
      <point x="353" y="10"/>
      <point x="266" y="69" type="curve" smooth="yes"/>
      <point x="214" y="105"/>
      <point x="121" y="233"/>
      <point x="35" y="360" type="curve"/>
      <point x="61" y="376" type="line"/>
      <point x="123" y="301"/>
      <point x="244" y="138"/>
      <point x="359" y="171" type="curve" smooth="yes"/>
      <point x="400" y="183"/>
      <point x="487" y="232"/>
      <point x="404" y="325" type="curve"/>
    </contour>
    <contour>
      <point x="239" y="401" type="line"/>
      <point x="746" y="401" type="line"/>
      <point x="752" y="305" type="line"/>
      <point x="348" y="305" type="line"/>
    </contour>
  </outline>
</glyph>
<glyph name="dvJ_DDA" format="1">
  <advance width="1149"/>
  <outline>
    <contour>
      <point x="959" y="662" type="move" name="abvm.bindu"/>
    </contour>
    <contour>
      <point x="774" y="0" type="move" name="blwm.virama"/>
    </contour>
    <contour>
      <point x="972" y="672" type="move" name="abvm.e"/>
    </contour>
    <contour>
      <point x="806" y="-10" type="move" name="blwm.u"/>
    </contour>
    <component base="dvDDA" xOffset="530"/>
    <component base="dvJ" xOffset="-15"/>
  </outline>
</glyph>
<glyph name="dvJ_NYA" format="1">
  <advance width="787"/>
  <outline>
    <contour>
      <point x="-17" y="522" type="line"/>
      <point x="587" y="522" type="line"/>
      <point x="587" y="402" type="line"/>
      <point x="114" y="401" type="line"/>
      <point x="207" y="319" type="line"/>
      <point x="287" y="319" type="line"/>
      <point x="408" y="235"/>
      <point x="368" y="96"/>
      <point x="257" y="98" type="curve"/>
      <point x="212" y="133"/>
      <point x="176" y="161"/>
      <point x="161" y="168" type="curve"/>
      <point x="126" y="159"/>
      <point x="89" y="118"/>
      <point x="89" y="104" type="curve" smooth="yes"/>
      <point x="89" y="60"/>
      <point x="140" y="17"/>
      <point x="147" y="11" type="curve"/>
      <point x="174" y="-17"/>
      <point x="257" y="-4"/>
      <point x="312" y="0" type="curve"/>
      <point x="383" y="-59"/>
      <point x="441" y="-111"/>
      <point x="505" y="-170" type="curve"/>
      <point x="544" y="-128" type="line"/>
      <point x="501" y="-100"/>
      <point x="427" y="-40"/>
      <point x="354" y="19" type="curve"/>
      <point x="454" y="63"/>
      <point x="504" y="172"/>
      <point x="481" y="203" type="curve" smooth="yes"/>
      <point x="455" y="237"/>
      <point x="404" y="281"/>
      <point x="356" y="319" type="curve"/>
      <point x="587" y="319" type="line"/>
      <point x="587" y="0" type="line"/>
      <point x="711" y="-56" type="line"/>
      <point x="711" y="522" type="line"/>
      <point x="797" y="522" type="line"/>
      <point x="797" y="619" type="line"/>
      <point x="-17" y="619" type="line"/>
    </contour>
  </outline>
</glyph>
<glyph name="dvJ_NY" format="1">
  <advance width="522"/>
  <outline>
    <contour>
      <point x="-52" y="619" type="line"/>
      <point x="762" y="619" type="line"/>
      <point x="762" y="522" type="line"/>
      <point x="-52" y="522" type="line"/>
    </contour>
    <contour>
      <point x="470" y="-170" type="line"/>
      <point x="406" y="-111"/>
      <point x="348" y="-59"/>
      <point x="277" y="0" type="curve"/>
      <point x="222" y="-4"/>
      <point x="139" y="-17"/>
      <point x="112" y="11" type="curve"/>
      <point x="105" y="17"/>
      <point x="54" y="60"/>
      <point x="54" y="104" type="curve" smooth="yes"/>
      <point x="54" y="118"/>
      <point x="91" y="159"/>
      <point x="126" y="168" type="curve"/>
      <point x="173" y="146"/>
      <point x="417" y="-68"/>
      <point x="509" y="-128" type="curve"/>
    </contour>
    <contour>
      <point x="279" y="350" type="line"/>
      <point x="337" y="309"/>
      <point x="413" y="247"/>
      <point x="446" y="203" type="curve" smooth="yes"/>
      <point x="479" y="159"/>
      <point x="366" y="-40"/>
      <point x="172" y="9" type="curve"/>
      <point x="218" y="98" type="line"/>
      <point x="334" y="93"/>
      <point x="376" y="238"/>
      <point x="248" y="322" type="curve"/>
    </contour>
    <contour>
      <point x="72" y="401" type="line"/>
      <point x="629" y="402" type="line"/>
      <point x="635" y="305" type="line"/>
      <point x="181" y="305" type="line"/>
    </contour>
  </outline>
</glyph>
<glyph name="dvKH_MA" format="1">
  <advance width="1326"/>
  <outline>
    <contour>
      <point x="-15" y="619" type="line"/>
      <point x="-15" y="522" type="line"/>
      <point x="251" y="522" type="line"/>
      <point x="283" y="431"/>
      <point x="294" y="310"/>
      <point x="182" y="273" type="curve"/>
      <point x="171" y="305"/>
      <point x="171" y="336"/>
      <point x="158" y="349" type="curve" smooth="yes"/>
      <point x="139" y="368"/>
      <point x="97" y="397"/>
      <point x="83" y="380" type="curve" smooth="yes"/>
      <point x="65" y="359"/>
      <point x="49" y="324"/>
      <point x="37" y="291" type="curve"/>
      <point x="42" y="164"/>
      <point x="150" y="-57"/>
      <point x="408" y="-57" type="curve" smooth="yes"/>
      <point x="542" y="-57"/>
      <point x="648" y="47"/>
      <point x="703" y="161" type="curve"/>
      <point x="723" y="189"/>
      <point x="734" y="213"/>
      <point x="734" y="213" type="curve"/>
      <point x="690" y="274" type="line"/>
      <point x="743" y="301" type="line"/>
      <point x="707" y="330"/>
      <point x="622" y="437"/>
      <point x="580" y="459" type="curve" smooth="yes"/>
      <point x="537" y="481"/>
      <point x="423" y="421"/>
      <point x="369" y="354" type="curve"/>
      <point x="371" y="410"/>
      <point x="352" y="469"/>
      <point x="318" y="522" type="curve"/>
      <point x="712" y="522" type="line"/>
      <point x="712" y="619" type="line"/>
    </contour>
    <contour>
      <point x="397" y="17" type="curve" smooth="yes"/>
      <point x="271" y="17"/>
      <point x="211" y="97"/>
      <point x="197" y="143" type="curve"/>
      <point x="271" y="166"/>
      <point x="320" y="208"/>
      <point x="346" y="260" type="curve"/>
      <point x="383" y="190"/>
      <point x="456" y="74"/>
      <point x="558" y="70" type="curve"/>
      <point x="518" y="37"/>
      <point x="466" y="17"/>
    </contour>
    <contour>
      <point x="443" y="200" type="curve" smooth="yes"/>
      <point x="390" y="256"/>
      <point x="559" y="468"/>
      <point x="684" y="277" type="curve"/>
      <point x="595" y="120"/>
      <point x="471" y="170"/>
    </contour>
    <component base="dvMA" xOffset="645"/>
  </outline>
</glyph>
<glyph name="dvKH_NA" format="1">
  <advance width="865"/>
  <outline>
    <contour>
      <point x="872" y="619" type="line"/>
      <point x="872" y="523" type="line"/>
      <point x="796" y="523" type="line"/>
      <point x="796" y="-56" type="line"/>
      <point x="672" y="0" type="line"/>
      <point x="672" y="27" type="line"/>
      <point x="597" y="0"/>
      <point x="552" y="-26"/>
      <point x="508" y="-46" type="curve"/>
      <point x="506" y="-46"/>
      <point x="505" y="-47"/>
      <point x="503" y="-48" type="curve"/>
      <point x="657" y="-126"/>
      <point x="513" y="-261"/>
      <point x="458" y="-238" type="curve"/>
      <point x="402" y="-216"/>
      <point x="402" y="-216"/>
      <point x="348" y="-190" type="curve"/>
      <point x="273" y="-156"/>
      <point x="313" y="-34"/>
      <point x="355" y="-9" type="curve"/>
      <point x="411" y="21"/>
      <point x="536" y="69"/>
      <point x="672" y="99" type="curve"/>
      <point x="672" y="153" type="line"/>
      <point x="659" y="143"/>
      <point x="646" y="136"/>
      <point x="632" y="130" type="curve"/>
      <point x="566" y="74"/>
      <point x="470" y="39"/>
      <point x="361" y="37" type="curve" smooth="yes"/>
      <point x="184" y="34"/>
      <point x="42" y="164"/>
      <point x="37" y="291" type="curve"/>
      <point x="49" y="324"/>
      <point x="65" y="359"/>
      <point x="83" y="380" type="curve" smooth="yes"/>
      <point x="97" y="397"/>
      <point x="139" y="368"/>
      <point x="158" y="349" type="curve" smooth="yes"/>
      <point x="171" y="336"/>
      <point x="171" y="305"/>
      <point x="182" y="273" type="curve"/>
      <point x="294" y="310"/>
      <point x="284" y="432"/>
      <point x="251" y="523" type="curve"/>
      <point x="-15" y="523" type="line"/>
      <point x="-15" y="619" type="line"/>
    </contour>
    <contour>
      <point x="580" y="459" type="curve"/>
      <point x="602" y="443"/>
      <point x="639" y="418"/>
      <point x="672" y="396" type="curve"/>
      <point x="672" y="523" type="line"/>
      <point x="317" y="523" type="line"/>
      <point x="352" y="469"/>
      <point x="371" y="410"/>
      <point x="369" y="354" type="curve"/>
      <point x="424" y="423"/>
      <point x="539" y="486"/>
    </contour>
    <contour>
      <point x="440" y="211" type="curve" smooth="yes"/>
      <point x="463" y="184"/>
      <point x="563" y="159"/>
      <point x="672" y="270" type="curve"/>
      <point x="672" y="341" type="line"/>
      <point x="533" y="413"/>
      <point x="393" y="264"/>
    </contour>
    <contour>
      <point x="346" y="260" type="curve"/>
      <point x="320" y="208"/>
      <point x="271" y="166"/>
      <point x="197" y="143" type="curve"/>
      <point x="219" y="110"/>
      <point x="287" y="88"/>
      <point x="352" y="87" type="curve" smooth="yes"/>
      <point x="411" y="86"/>
      <point x="468" y="98"/>
      <point x="517" y="119" type="curve"/>
      <point x="450" y="134"/>
      <point x="386" y="184"/>
    </contour>
  </outline>
</glyph>
<glyph name="dvKHx_SHA" format="1">
  <advance width="1366"/>
  <outline>
    <contour>
      <point x="720" y="241" type="line"/>
      <point x="525" y="481"/>
      <point x="398" y="257"/>
      <point x="451" y="200" type="curve" smooth="yes"/>
      <point x="479" y="170"/>
      <point x="589" y="132"/>
      <point x="727" y="255" type="curve"/>
      <point x="742" y="213" type="line"/>
      <point x="742" y="213"/>
      <point x="675" y="71"/>
      <point x="573" y="70" type="curve"/>
      <point x="467" y="70"/>
      <point x="391" y="190"/>
      <point x="354" y="262" type="curve" smooth="yes"/>
      <point x="310" y="347"/>
      <point x="514" y="488"/>
      <point x="573" y="448" type="curve" smooth="yes"/>
      <point x="607" y="424"/>
      <point x="727" y="289"/>
      <point x="764" y="248" type="curve"/>
    </contour>
    <contour>
      <point x="438" y="619" type="line"/>
      <point x="438" y="522" type="line"/>
      <point x="-7" y="522" type="line"/>
      <point x="-7" y="619" type="line"/>
    </contour>
    <contour>
      <point x="320" y="531" type="line"/>
      <point x="419" y="389"/>
      <point x="396" y="202"/>
      <point x="205" y="143" type="curve"/>
      <point x="219" y="97"/>
      <point x="279" y="17"/>
      <point x="405" y="17" type="curve" smooth="yes"/>
      <point x="554" y="17"/>
      <point x="646" y="106"/>
      <point x="689" y="211" type="curve"/>
      <point x="713" y="166" type="line"/>
      <point x="659" y="50"/>
      <point x="552" y="-57"/>
      <point x="416" y="-57" type="curve" smooth="yes"/>
      <point x="158" y="-57"/>
      <point x="50" y="164"/>
      <point x="45" y="291" type="curve"/>
      <point x="57" y="324"/>
      <point x="73" y="359"/>
      <point x="91" y="380" type="curve" smooth="yes"/>
      <point x="105" y="397"/>
      <point x="147" y="368"/>
      <point x="166" y="349" type="curve" smooth="yes"/>
      <point x="179" y="336"/>
      <point x="179" y="305"/>
      <point x="190" y="273" type="curve"/>
      <point x="306" y="311"/>
      <point x="291" y="440"/>
      <point x="256" y="531" type="curve"/>
    </contour>
    <contour>
      <point x="840" y="619" type="line"/>
      <point x="840" y="522" type="line"/>
      <point x="278" y="522" type="line"/>
      <point x="278" y="619" type="line"/>
    </contour>
    <component base="dvSHA" xOffset="661"/>
    <component base="dvNukta" xOffset="511" yOffset="55"/>
  </outline>
</glyph>
<glyph name="dvK_DA_mUU" format="1">
  <advance width="1284"/>
  <outline>
    <contour>
      <point x="1070" y="619" type="move" name="abvm.bindu"/>
    </contour>
    <contour>
      <point x="1051" y="619" type="move" name="abvm.e"/>
    </contour>
    <component base="dvDA_mUU" xOffset="640"/>
    <component base="dvK"/>
  </outline>
</glyph>
<glyph name="dvK_PHA" format="1">
  <advance width="1551"/>
  <outline>
    <contour>
      <point x="1113" y="662" type="move" name="abvm.bindu"/>
    </contour>
    <contour>
      <point x="1055" y="0" type="move" name="blwm.virama"/>
    </contour>
    <contour>
      <point x="1133" y="672" type="move" name="abvm.e"/>
    </contour>
    <contour>
      <point x="1053" y="-10" type="move" name="blwm.u"/>
    </contour>
    <component base="dvPHA" xOffset="683"/>
    <component base="dvK" xOffset="3"/>
  </outline>
</glyph>
<glyph name="dvK_SS" format="1">
  <advance width="534"/>
  <outline>
    <contour>
      <point x="275" y="339" type="line"/>
      <point x="389" y="296"/>
      <point x="550" y="364"/>
      <point x="592" y="424" type="curve" smooth="yes"/>
      <point x="593" y="425"/>
      <point x="646" y="338"/>
      <point x="647" y="337" type="curve"/>
      <point x="537" y="244"/>
      <point x="376" y="258"/>
      <point x="267" y="311" type="curve"/>
    </contour>
    <contour>
      <point x="397" y="456" type="curve" smooth="yes"/>
      <point x="463" y="341"/>
      <point x="43" y="214"/>
      <point x="159" y="89" type="curve" smooth="yes"/>
      <point x="229" y="14"/>
      <point x="352" y="114"/>
      <point x="393" y="191" type="curve"/>
      <point x="478" y="116" type="line"/>
      <point x="420" y="1"/>
      <point x="277" y="-83"/>
      <point x="165" y="9" type="curve" smooth="yes"/>
      <point x="101" y="61"/>
      <point x="93" y="76"/>
      <point x="49" y="137" type="curve" smooth="yes"/>
      <point x="-47" y="269"/>
      <point x="412" y="386"/>
      <point x="285" y="530" type="curve" smooth="yes"/>
      <point x="234" y="588"/>
      <point x="98" y="464"/>
      <point x="208" y="378" type="curve" smooth="yes"/>
      <point x="237" y="355"/>
      <point x="277" y="339"/>
      <point x="297" y="331" type="curve"/>
      <point x="288" y="302" type="line"/>
      <point x="201" y="331"/>
      <point x="113" y="385"/>
      <point x="76" y="444" type="curve" smooth="yes"/>
      <point x="46" y="492"/>
      <point x="135" y="625"/>
      <point x="230" y="625" type="curve" smooth="yes"/>
      <point x="255" y="625"/>
      <point x="363" y="515"/>
    </contour>
    <contour>
      <point x="490" y="-146" type="line"/>
      <point x="285" y="111"/>
      <point x="262" y="138"/>
      <point x="269" y="152" type="curve" smooth="yes"/>
      <point x="284" y="182"/>
      <point x="321" y="210"/>
      <point x="339" y="221" type="curve" smooth="yes"/>
      <point x="386" y="251"/>
      <point x="421" y="223"/>
      <point x="453" y="185" type="curve" smooth="yes"/>
      <point x="480" y="153"/>
      <point x="499" y="105"/>
      <point x="467" y="77" type="curve" smooth="yes"/>
      <point x="411" y="27" type="line"/>
      <point x="529" y="-119" type="line"/>
    </contour>
    <contour>
      <point x="402" y="619" type="line"/>
      <point x="731" y="619" type="line"/>
      <point x="731" y="522" type="line"/>
      <point x="441" y="522" type="line"/>
    </contour>
  </outline>
</glyph>
<glyph name="dvK_TTA" format="1">
  <advance width="1272"/>
  <outline>
    <contour>
      <point x="1147" y="662" type="move" name="abvm.bindu"/>
    </contour>
    <contour>
      <point x="977" y="0" type="move" name="blwm.virama"/>
    </contour>
    <contour>
      <point x="1166" y="672" type="move" name="abvm.e"/>
    </contour>
    <contour>
      <point x="1036" y="-10" type="move" name="blwm.u"/>
    </contour>
    <component base="dvTTA" xOffset="666"/>
    <component base="dvK" xOffset="15"/>
  </outline>
</glyph>
<glyph name="dvLA" format="1">
  <advance width="683"/>
  <outline>
    <contour>
      <point x="339" y="298" type="line"/>
      <point x="303" y="336"/>
      <point x="238" y="401"/>
      <point x="198" y="414" type="curve" smooth="yes"/>
      <point x="143" y="432"/>
      <point x="-3" y="319"/>
      <point x="5" y="253" type="curve" smooth="yes"/>
      <point x="13" y="190"/>
      <point x="148" y="30"/>
      <point x="247" y="-57" type="curve"/>
      <point x="274" y="-23" type="line"/>
      <point x="224" y="24"/>
      <point x="188" y="69"/>
      <point x="160" y="105" type="curve" smooth="yes"/>
      <point x="67" y="221"/>
      <point x="138" y="407"/>
      <point x="318" y="273" type="curve"/>
    </contour>
    <contour>
      <point x="-10" y="523" type="line"/>
      <point x="687" y="523" type="line"/>
      <point x="687" y="619" type="line"/>
      <point x="-10" y="619" type="line"/>
    </contour>
    <contour>
      <point x="485" y="1" type="line"/>
      <point x="609" y="-55" type="line"/>
      <point x="609" y="538" type="line"/>
      <point x="485" y="538" type="line"/>
    </contour>
    <contour>
      <point x="499" y="405" type="line"/>
      <point x="399" y="391"/>
      <point x="274" y="264"/>
      <point x="263" y="200" type="curve"/>
      <point x="340" y="135" type="line"/>
      <point x="386" y="216"/>
      <point x="471" y="314"/>
      <point x="531" y="330" type="curve"/>
    </contour>
  </outline>
</glyph>
<glyph name="dvLA.marathi" format="1">
  <advance width="724"/>
  <outline>
    <contour>
      <point x="-9" y="619" type="line"/>
      <point x="728" y="619" type="line"/>
      <point x="728" y="523" type="line"/>
      <point x="-9" y="523" type="line"/>
    </contour>
    <contour>
      <point x="322" y="266" type="line"/>
      <point x="250" y="316"/>
      <point x="194" y="319"/>
      <point x="159" y="285" type="curve" smooth="yes"/>
      <point x="99" y="226"/>
      <point x="175" y="65"/>
      <point x="285" y="-23" type="curve"/>
      <point x="258" y="-57" type="line"/>
      <point x="159" y="30"/>
      <point x="24" y="190"/>
      <point x="16" y="253" type="curve" smooth="yes"/>
      <point x="8" y="319"/>
      <point x="154" y="432"/>
      <point x="209" y="414" type="curve" smooth="yes"/>
      <point x="249" y="401"/>
      <point x="314" y="336"/>
      <point x="350" y="298" type="curve"/>
    </contour>
    <contour>
      <point x="485" y="538" type="line"/>
      <point x="609" y="538" type="line"/>
      <point x="609" y="318" type="line"/>
      <point x="485" y="374" type="line"/>
    </contour>
    <contour>
      <point x="270" y="185" type="line"/>
      <point x="281" y="232"/>
      <point x="365" y="395"/>
      <point x="484" y="400" type="curve" smooth="yes"/>
      <point x="520" y="401"/>
      <point x="655" y="305"/>
      <point x="683" y="259" type="curve" smooth="yes"/>
      <point x="738" y="170"/>
      <point x="601" y="44"/>
      <point x="543" y="0" type="curve"/>
      <point x="472" y="80" type="line"/>
      <point x="540" y="126"/>
      <point x="640" y="222"/>
      <point x="577" y="294" type="curve" smooth="yes"/>
      <point x="500" y="380"/>
      <point x="351" y="193"/>
      <point x="350" y="122" type="curve"/>
    </contour>
  </outline>
</glyph>
<glyph name="dvL" format="1">
  <advance width="481"/>
  <outline>
    <contour>
      <point x="566" y="328" type="line"/>
      <point x="506" y="312"/>
      <point x="403" y="213"/>
      <point x="357" y="132" type="curve"/>
      <point x="274" y="200" type="line"/>
      <point x="277" y="219"/>
      <point x="293" y="244"/>
      <point x="315" y="270" type="curve"/>
      <point x="246" y="316"/>
      <point x="193" y="318"/>
      <point x="159" y="285" type="curve" smooth="yes"/>
      <point x="99" y="226"/>
      <point x="175" y="65"/>
      <point x="285" y="-23" type="curve"/>
      <point x="258" y="-57" type="line"/>
      <point x="159" y="30"/>
      <point x="24" y="190"/>
      <point x="16" y="253" type="curve" smooth="yes"/>
      <point x="8" y="319"/>
      <point x="154" y="432"/>
      <point x="209" y="414" type="curve" smooth="yes"/>
      <point x="247" y="401"/>
      <point x="309" y="341"/>
      <point x="346" y="302" type="curve"/>
      <point x="398" y="352"/>
      <point x="470" y="398"/>
      <point x="528" y="406" type="curve"/>
    </contour>
    <contour>
      <point x="-10" y="619" type="line"/>
      <point x="526" y="619" type="line"/>
      <point x="526" y="523" type="line"/>
      <point x="-10" y="523" type="line"/>
    </contour>
  </outline>
</glyph>
<glyph name="dvL_BHA" format="1">
  <advance width="1123"/>
  <outline>
    <contour>
      <point x="568" y="237" type="line"/>
      <point x="560" y="246"/>
      <point x="511" y="303"/>
      <point x="480" y="293" type="curve" smooth="yes"/>
      <point x="445" y="282"/>
      <point x="399" y="200"/>
      <point x="362" y="135" type="curve"/>
      <point x="285" y="200" type="line"/>
      <point x="303" y="258"/>
      <point x="385" y="355"/>
      <point x="472" y="394" type="curve" smooth="yes"/>
      <point x="493" y="403"/>
      <point x="599" y="268"/>
      <point x="605" y="255" type="curve"/>
    </contour>
    <contour>
      <point x="-10" y="619" type="line"/>
      <point x="576" y="619" type="line"/>
      <point x="576" y="523" type="line"/>
      <point x="-10" y="523" type="line"/>
    </contour>
    <contour>
      <point x="322" y="266" type="line"/>
      <point x="250" y="316"/>
      <point x="194" y="319"/>
      <point x="159" y="285" type="curve" smooth="yes"/>
      <point x="99" y="226"/>
      <point x="175" y="65"/>
      <point x="285" y="-23" type="curve"/>
      <point x="258" y="-57" type="line"/>
      <point x="159" y="30"/>
      <point x="24" y="190"/>
      <point x="16" y="253" type="curve" smooth="yes"/>
      <point x="8" y="319"/>
      <point x="154" y="432"/>
      <point x="209" y="414" type="curve" smooth="yes"/>
      <point x="249" y="401"/>
      <point x="314" y="336"/>
      <point x="350" y="298" type="curve"/>
    </contour>
    <component base="dvBHA" xOffset="438"/>
  </outline>
</glyph>
<glyph name="dvL_DDA" format="1">
  <advance width="1074"/>
  <outline>
    <contour>
      <point x="880" y="662" type="move" name="abvm.bindu"/>
    </contour>
    <contour>
      <point x="695" y="0" type="move" name="blwm.virama"/>
    </contour>
    <contour>
      <point x="893" y="672" type="move" name="abvm.e"/>
    </contour>
    <contour>
      <point x="727" y="-10" type="move" name="blwm.u"/>
    </contour>
    <contour>
      <point x="565" y="330" type="line"/>
      <point x="505" y="314"/>
      <point x="420" y="216"/>
      <point x="374" y="135" type="curve"/>
      <point x="297" y="200" type="line"/>
      <point x="300" y="221"/>
      <point x="319" y="249"/>
      <point x="346" y="277" type="curve"/>
      <point x="170" y="403"/>
      <point x="102" y="219"/>
      <point x="194" y="105" type="curve" smooth="yes"/>
      <point x="222" y="69"/>
      <point x="258" y="24"/>
      <point x="308" y="-23" type="curve"/>
      <point x="281" y="-57" type="line"/>
      <point x="182" y="30"/>
      <point x="47" y="190"/>
      <point x="39" y="253" type="curve" smooth="yes"/>
      <point x="31" y="319"/>
      <point x="177" y="432"/>
      <point x="232" y="414" type="curve" smooth="yes"/>
      <point x="271" y="401"/>
      <point x="333" y="339"/>
      <point x="370" y="301" type="curve"/>
      <point x="422" y="348"/>
      <point x="493" y="390"/>
      <point x="550" y="398" type="curve"/>
    </contour>
    <contour>
      <point x="-4" y="619" type="line"/>
      <point x="560" y="619" type="line"/>
      <point x="560" y="523" type="line"/>
      <point x="-4" y="523" type="line"/>
    </contour>
    <component base="dvDDA" xOffset="450"/>
  </outline>
</glyph>
<glyph name="dvL_GA" format="1">
  <advance width="1084"/>
  <outline>
    <contour>
      <point x="563" y="237" type="line"/>
      <point x="555" y="246"/>
      <point x="508" y="289"/>
      <point x="477" y="279" type="curve" smooth="yes"/>
      <point x="442" y="268"/>
      <point x="394" y="200"/>
      <point x="357" y="135" type="curve"/>
      <point x="280" y="200" type="line"/>
      <point x="298" y="258"/>
      <point x="380" y="355"/>
      <point x="467" y="394" type="curve" smooth="yes"/>
      <point x="488" y="403"/>
      <point x="594" y="268"/>
      <point x="600" y="255" type="curve"/>
    </contour>
    <contour>
      <point x="-10" y="619" type="line"/>
      <point x="526" y="619" type="line"/>
      <point x="526" y="523" type="line"/>
      <point x="-10" y="523" type="line"/>
    </contour>
    <contour>
      <point x="322" y="266" type="line"/>
      <point x="250" y="316"/>
      <point x="194" y="319"/>
      <point x="159" y="285" type="curve" smooth="yes"/>
      <point x="99" y="226"/>
      <point x="175" y="65"/>
      <point x="285" y="-23" type="curve"/>
      <point x="258" y="-57" type="line"/>
      <point x="159" y="30"/>
      <point x="24" y="190"/>
      <point x="16" y="253" type="curve" smooth="yes"/>
      <point x="8" y="319"/>
      <point x="154" y="432"/>
      <point x="209" y="414" type="curve" smooth="yes"/>
      <point x="249" y="401"/>
      <point x="314" y="336"/>
      <point x="350" y="298" type="curve"/>
    </contour>
    <component base="dvGA" xOffset="450"/>
  </outline>
</glyph>
<glyph name="dvL_KA" format="1">
  <advance width="1299"/>
  <outline>
    <contour>
      <point x="903" y="619" type="move" name="abvm.bindu"/>
    </contour>
    <contour>
      <point x="876" y="-23" type="move" name="blwm.virama"/>
    </contour>
    <contour>
      <point x="892" y="619" type="move" name="abvm.e"/>
    </contour>
    <contour>
      <point x="878" y="-25" type="move" name="blwm.u"/>
    </contour>
    <contour>
      <point x="587" y="296" type="line"/>
      <point x="484" y="317"/>
      <point x="382" y="216"/>
      <point x="336" y="135" type="curve"/>
      <point x="259" y="200" type="line"/>
      <point x="281" y="259"/>
      <point x="433" y="411"/>
      <point x="555" y="371" type="curve"/>
    </contour>
    <contour>
      <point x="-10" y="619" type="line"/>
      <point x="586" y="619" type="line"/>
      <point x="586" y="523" type="line"/>
      <point x="-10" y="523" type="line"/>
    </contour>
    <contour>
      <point x="322" y="266" type="line"/>
      <point x="250" y="316"/>
      <point x="194" y="319"/>
      <point x="159" y="285" type="curve" smooth="yes"/>
      <point x="99" y="226"/>
      <point x="175" y="65"/>
      <point x="285" y="-23" type="curve"/>
      <point x="258" y="-57" type="line"/>
      <point x="159" y="30"/>
      <point x="24" y="190"/>
      <point x="16" y="253" type="curve" smooth="yes"/>
      <point x="8" y="319"/>
      <point x="154" y="432"/>
      <point x="209" y="414" type="curve" smooth="yes"/>
      <point x="249" y="401"/>
      <point x="314" y="336"/>
      <point x="350" y="298" type="curve"/>
    </contour>
    <component base="dvKA" xOffset="445"/>
  </outline>
</glyph>
<glyph name="dvM_BH_RA" format="1">
  <advance width="1065"/>
  <outline>
    <contour>
      <point x="904" y="138" type="line"/>
      <point x="883" y="82"/>
      <point x="806" y="0"/>
      <point x="739" y="-69" type="curve"/>
      <point x="655" y="-3" type="line"/>
      <point x="759" y="62"/>
      <point x="814" y="111"/>
      <point x="876" y="184" type="curve"/>
    </contour>
    <contour>
      <point x="-7" y="619" type="line"/>
      <point x="513" y="619" type="line"/>
      <point x="513" y="523" type="line"/>
      <point x="-7" y="523" type="line"/>
    </contour>
    <contour>
      <point x="172" y="176" type="curve"/>
      <point x="106" y="184"/>
      <point x="90" y="138"/>
      <point x="110" y="115" type="curve" smooth="yes"/>
      <point x="126" y="97"/>
      <point x="173" y="99"/>
    </contour>
    <contour>
      <point x="297" y="172" type="line"/>
      <point x="297" y="-9"/>
      <point x="169" y="7"/>
      <point x="141" y="26" type="curve" smooth="yes"/>
      <point x="119" y="41"/>
      <point x="68" y="80"/>
      <point x="35" y="119" type="curve" smooth="yes"/>
      <point x="4" y="156"/>
      <point x="15" y="280"/>
      <point x="173" y="273" type="curve"/>
      <point x="173" y="530" type="line"/>
      <point x="297" y="571" type="line"/>
      <point x="297" y="270" type="line"/>
      <point x="564" y="271" type="line"/>
      <point x="544" y="172" type="line"/>
    </contour>
    <component base="dvBHA" xOffset="370"/>
  </outline>
</glyph>
<glyph name="dvM_DA_mU" format="1">
  <advance width="977"/>
  <outline>
    <contour>
      <point x="786" y="619" type="move" name="abvm.bindu"/>
    </contour>
    <contour>
      <point x="767" y="619" type="move" name="abvm.e"/>
    </contour>
    <component base="dvM"/>
    <component base="dvmU" xOffset="864"/>
    <component base="dvDA" xOffset="370"/>
  </outline>
</glyph>
<glyph name="dvM_HA" format="1">
  <advance width="937"/>
  <outline>
    <contour>
      <point x="869" y="662" type="move" name="abvm.bindu"/>
    </contour>
    <contour>
      <point x="727" y="-141" type="move" name="blwm.virama"/>
    </contour>
    <contour>
      <point x="859" y="672" type="move" name="abvm.e"/>
    </contour>
    <contour>
      <point x="844" y="-6" type="move" name="blwm.u"/>
    </contour>
    <component base="dvHA" xOffset="447"/>
  </outline>
</glyph>
<glyph name="dvM_SHA" format="1">
  <advance width="1111"/>
  <outline>
    <contour>
      <point x="297" y="172" type="line"/>
      <point x="297" y="134" type="line" smooth="yes"/>
      <point x="297" y="29"/>
      <point x="170" y="21"/>
      <point x="144" y="43" type="curve" smooth="yes"/>
      <point x="123" y="60"/>
      <point x="80" y="97"/>
      <point x="49" y="122" type="curve" smooth="yes"/>
      <point x="-5" y="166"/>
      <point x="52" y="268"/>
      <point x="113" y="268" type="curve" smooth="yes"/>
      <point x="173" y="268" type="line"/>
      <point x="173" y="523" type="line"/>
      <point x="-7" y="523" type="line"/>
      <point x="-7" y="619" type="line"/>
      <point x="581" y="619" type="line"/>
      <point x="613" y="630"/>
      <point x="645" y="632"/>
      <point x="666" y="620" type="curve" smooth="yes"/>
      <point x="735" y="578"/>
      <point x="819" y="488"/>
      <point x="831" y="454" type="curve" smooth="yes"/>
      <point x="873" y="337"/>
      <point x="813" y="166"/>
      <point x="693" y="106" type="curve"/>
      <point x="765" y="47"/>
      <point x="838" y="-11"/>
      <point x="879" y="-38" type="curve"/>
      <point x="840" y="-79" type="line"/>
      <point x="776" y="-20"/>
      <point x="718" y="31"/>
      <point x="646" y="90" type="curve"/>
      <point x="592" y="86"/>
      <point x="509" y="74"/>
      <point x="481" y="101" type="curve" smooth="yes"/>
      <point x="476" y="105"/>
      <point x="440" y="138"/>
      <point x="423" y="172" type="curve"/>
    </contour>
    <contour>
      <point x="790" y="619" type="line"/>
      <point x="1119" y="619" type="line"/>
      <point x="1119" y="523" type="line"/>
      <point x="1046" y="523" type="line"/>
      <point x="1046" y="-55" type="line"/>
      <point x="922" y="1" type="line"/>
      <point x="922" y="523" type="line"/>
      <point x="829" y="523" type="line"/>
    </contour>
    <contour>
      <point x="604" y="180" type="curve"/>
      <point x="655" y="205"/>
      <point x="688" y="236"/>
      <point x="712" y="275" type="curve"/>
      <point x="637" y="298"/>
      <point x="465" y="434"/>
      <point x="465" y="493" type="curve" smooth="yes"/>
      <point x="465" y="503"/>
      <point x="467" y="513"/>
      <point x="471" y="523" type="curve"/>
      <point x="297" y="523" type="line"/>
      <point x="297" y="268" type="line"/>
      <point x="486" y="269" type="line"/>
      <point x="503" y="260"/>
      <point x="549" y="224"/>
    </contour>
    <contour>
      <point x="724" y="309" type="curve"/>
      <point x="745" y="353"/>
      <point x="748" y="413"/>
      <point x="748" y="439" type="curve" smooth="yes"/>
      <point x="748" y="650"/>
      <point x="504" y="494"/>
      <point x="586" y="406" type="curve" smooth="yes"/>
      <point x="622" y="368"/>
      <point x="692" y="319"/>
    </contour>
    <contour>
      <point x="172" y="173" type="curve"/>
      <point x="89" y="177"/>
      <point x="89" y="138"/>
      <point x="110" y="117" type="curve" smooth="yes"/>
      <point x="131" y="96"/>
      <point x="173" y="93"/>
    </contour>
  </outline>
</glyph>
<glyph name="dvNA" format="1">
  <advance width="651"/>
  <outline>
    <contour>
      <point x="587" y="308" type="line"/>
      <point x="235" y="312" type="line" smooth="yes"/>
      <point x="-29" y="315"/>
      <point x="259" y="45"/>
      <point x="253" y="316" type="curve"/>
      <point x="305" y="318" type="line"/>
      <point x="417" y="172"/>
      <point x="242" y="73"/>
      <point x="196" y="111" type="curve" smooth="yes"/>
      <point x="148" y="152"/>
      <point x="112" y="180"/>
      <point x="70" y="219" type="curve" smooth="yes"/>
      <point x="10" y="275"/>
      <point x="28" y="384"/>
      <point x="95" y="405" type="curve" smooth="yes"/>
      <point x="109" y="409"/>
      <point x="100" y="406"/>
      <point x="587" y="405" type="curve"/>
    </contour>
    <contour>
      <point x="466" y="538" type="line"/>
      <point x="590" y="538" type="line"/>
      <point x="590" y="-55" type="line"/>
      <point x="466" y="1" type="line"/>
    </contour>
    <contour>
      <point x="-50" y="619" type="line"/>
      <point x="667" y="619" type="line"/>
      <point x="667" y="523" type="line"/>
      <point x="-50" y="523" type="line"/>
    </contour>
  </outline>
</glyph>
<glyph name="dvNN_TTA" format="1">
  <advance width="1122"/>
  <outline>
    <contour>
      <point x="937" y="619" type="move" name="abvm.bindu"/>
    </contour>
    <contour>
      <point x="810" y="0" type="move" name="blwm.virama"/>
    </contour>
    <contour>
      <point x="924" y="620" type="move" name="abvm.e"/>
    </contour>
    <contour>
      <point x="869" y="-10" type="move" name="blwm.u"/>
    </contour>
    <component base="dvNN"/>
    <component base="dvTTA" xOffset="519"/>
  </outline>
</glyph>
<glyph name="dvNYA" format="1">
  <advance width="769"/>
  <outline>
    <contour>
      <point x="573" y="1" type="line"/>
      <point x="697" y="-55" type="line"/>
      <point x="697" y="522" type="line"/>
      <point x="773" y="522" type="line"/>
      <point x="773" y="619" type="line"/>
      <point x="-6" y="619" type="line"/>
      <point x="-6" y="522" type="line"/>
      <point x="573" y="522" type="line"/>
      <point x="573" y="363" type="line"/>
      <point x="548" y="314"/>
      <point x="487" y="305"/>
      <point x="393" y="324" type="curve"/>
      <point x="351" y="367"/>
      <point x="303" y="415"/>
      <point x="263" y="417" type="curve" smooth="yes"/>
      <point x="231" y="419"/>
      <point x="157" y="381"/>
      <point x="100" y="347" type="curve"/>
      <point x="180" y="273" type="line"/>
      <point x="265" y="318" type="line" smooth="yes"/>
      <point x="335" y="355"/>
      <point x="389" y="288"/>
      <point x="367" y="231" type="curve" smooth="yes"/>
      <point x="326" y="122"/>
      <point x="154" y="126"/>
      <point x="11" y="301" type="curve"/>
      <point x="-22" y="275" type="line"/>
      <point x="72" y="161"/>
      <point x="172" y="56"/>
      <point x="311" y="74" type="curve" smooth="yes"/>
      <point x="431" y="89"/>
      <point x="502" y="169"/>
      <point x="442" y="271" type="curve"/>
      <point x="489" y="230"/>
      <point x="527" y="219"/>
      <point x="573" y="241" type="curve"/>
    </contour>
  </outline>
</glyph>
<glyph name="dvN" format="1">
  <advance width="461"/>
  <outline>
    <contour>
      <point x="254" y="407" type="line"/>
      <point x="137" y="407" type="line"/>
      <point x="40" y="408"/>
      <point x="64" y="265"/>
      <point x="90" y="239" type="curve" smooth="yes"/>
      <point x="129" y="202"/>
      <point x="188" y="153"/>
      <point x="236" y="112" type="curve" smooth="yes"/>
      <point x="282" y="74"/>
      <point x="454" y="177"/>
      <point x="342" y="322" type="curve"/>
      <point x="342" y="322"/>
      <point x="290" y="315"/>
      <point x="290" y="314" type="curve" smooth="yes"/>
      <point x="312" y="201"/>
      <point x="209" y="177"/>
      <point x="180" y="201" type="curve" smooth="yes"/>
      <point x="148" y="226"/>
      <point x="117" y="309"/>
      <point x="257" y="309" type="curve"/>
    </contour>
    <contour>
      <point x="-20" y="522" type="line"/>
      <point x="604" y="522" type="line"/>
      <point x="604" y="619" type="line"/>
      <point x="-20" y="619" type="line"/>
    </contour>
    <contour>
      <point x="110" y="309" type="line"/>
      <point x="553" y="309" type="line"/>
      <point x="553" y="406" type="line"/>
      <point x="110" y="405" type="line"/>
    </contour>
  </outline>
</glyph>
<glyph name="dvN_BHA" format="1">
  <advance width="1029"/>
  <outline>
    <contour>
      <point x="565" y="308" type="line"/>
      <point x="243" y="312" type="line" smooth="yes"/>
      <point x="-21" y="315"/>
      <point x="267" y="45"/>
      <point x="261" y="316" type="curve"/>
      <point x="313" y="318" type="line"/>
      <point x="425" y="172"/>
      <point x="250" y="73"/>
      <point x="204" y="111" type="curve" smooth="yes"/>
      <point x="156" y="152"/>
      <point x="120" y="180"/>
      <point x="78" y="219" type="curve" smooth="yes"/>
      <point x="18" y="275"/>
      <point x="36" y="384"/>
      <point x="103" y="405" type="curve" smooth="yes"/>
      <point x="117" y="409"/>
      <point x="78" y="406"/>
      <point x="565" y="405" type="curve"/>
    </contour>
    <contour>
      <point x="-12" y="619" type="line"/>
      <point x="477" y="619" type="line"/>
      <point x="477" y="523" type="line"/>
      <point x="-12" y="523" type="line"/>
    </contour>
    <component base="dvBHA" xOffset="336"/>
  </outline>
</glyph>
<glyph name="dvN_DH_YA" format="1">
  <advance width="1485"/>
  <outline>
    <contour>
      <point x="599" y="308" type="line"/>
      <point x="352" y="311" type="line"/>
      <point x="454" y="169"/>
      <point x="283" y="73"/>
      <point x="238" y="111" type="curve" smooth="yes"/>
      <point x="190" y="152"/>
      <point x="154" y="180"/>
      <point x="112" y="219" type="curve" smooth="yes"/>
      <point x="52" y="275"/>
      <point x="70" y="384"/>
      <point x="137" y="405" type="curve" smooth="yes"/>
      <point x="151" y="409"/>
      <point x="52" y="406"/>
      <point x="539" y="405" type="curve"/>
    </contour>
    <contour>
      <point x="-8" y="619" type="line"/>
      <point x="619" y="619" type="line"/>
      <point x="559" y="523" type="line"/>
      <point x="-8" y="523" type="line"/>
    </contour>
    <contour>
      <point x="295" y="312" type="curve"/>
      <point x="277" y="312" type="line" smooth="yes"/>
      <point x="14" y="315"/>
      <point x="298" y="48"/>
    </contour>
  </outline>
</glyph>
<glyph name="dvN_D_RA" format="1">
  <advance width="995"/>
  <outline>
    <contour>
      <point x="825" y="662" type="move" name="abvm.bindu"/>
    </contour>
    <contour>
      <point x="699" y="-204" type="move" name="blwm.virama"/>
    </contour>
    <contour>
      <point x="822" y="619" type="move" name="abvm.e"/>
    </contour>
    <contour>
      <point x="699" y="-194" type="move" name="blwm.u"/>
    </contour>
    <component base="dvRashtrasign" xOffset="966"/>
    <component base="dvN" xOffset="6"/>
    <component base="dvDA" xOffset="408"/>
  </outline>
</glyph>
<glyph name="dvN_KA" format="1">
  <advance width="1264"/>
  <outline>
    <contour>
      <point x="877" y="662" type="move" name="abvm.bindu"/>
    </contour>
    <contour>
      <point x="802" y="0" type="move" name="blwm.virama"/>
    </contour>
    <contour>
      <point x="878" y="672" type="move" name="abvm.e"/>
    </contour>
    <contour>
      <point x="801" y="-10" type="move" name="blwm.u"/>
    </contour>
    <component base="dvKA" xOffset="421"/>
    <component base="dvN" xOffset="-3"/>
  </outline>
</glyph>
<glyph name="dvN_N_YA" format="1">
  <advance width="1128"/>
  <outline>
    <contour>
      <point x="-11" y="619" type="line"/>
      <point x="706" y="619" type="line"/>
      <point x="706" y="523" type="line"/>
      <point x="-11" y="523" type="line"/>
    </contour>
    <contour>
      <point x="586" y="254" type="line"/>
      <point x="308" y="365" type="line" smooth="yes"/>
      <point x="151" y="428"/>
      <point x="133" y="320"/>
      <point x="178" y="293" type="curve" smooth="yes"/>
      <point x="211" y="273"/>
      <point x="268" y="315"/>
      <point x="254" y="386" type="curve"/>
      <point x="316" y="378" type="line"/>
      <point x="412" y="267"/>
      <point x="244" y="196"/>
      <point x="207" y="218" type="curve" smooth="yes"/>
      <point x="155" y="248"/>
      <point x="128" y="270"/>
      <point x="86" y="303" type="curve" smooth="yes"/>
      <point x="25" y="351"/>
      <point x="112" y="485"/>
      <point x="178" y="480" type="curve" smooth="yes"/>
      <point x="191" y="479"/>
      <point x="182" y="480"/>
      <point x="607" y="315" type="curve"/>
    </contour>
    <contour>
      <point x="607" y="197" type="line"/>
      <point x="289" y="105" type="line" smooth="yes"/>
      <point x="63" y="39"/>
      <point x="315" y="-76"/>
      <point x="288" y="114" type="curve"/>
      <point x="326" y="131" type="line"/>
      <point x="445" y="62"/>
      <point x="325" y="-84"/>
      <point x="274" y="-64" type="curve" smooth="yes"/>
      <point x="220" y="-39"/>
      <point x="190" y="-25"/>
      <point x="147" y="1" type="curve" smooth="yes"/>
      <point x="83" y="43"/>
      <point x="107" y="128"/>
      <point x="162" y="164" type="curve" smooth="yes"/>
      <point x="171" y="172"/>
      <point x="143" y="158"/>
      <point x="580" y="289" type="curve"/>
    </contour>
    <component base="dvYA" xOffset="457"/>
  </outline>
</glyph>
<glyph name="dvN_PHA" format="1">
  <advance width="1302"/>
  <outline>
    <contour>
      <point x="860" y="662" type="move" name="abvm.bindu"/>
    </contour>
    <contour>
      <point x="802" y="0" type="move" name="blwm.virama"/>
    </contour>
    <contour>
      <point x="880" y="672" type="move" name="abvm.e"/>
    </contour>
    <contour>
      <point x="800" y="-10" type="move" name="blwm.u"/>
    </contour>
    <component base="dvPHA" xOffset="430"/>
    <component base="dvN" xOffset="-4"/>
  </outline>
</glyph>
<glyph name="dvN_RA" format="1">
  <advance width="671"/>
  <outline>
    <contour>
      <point x="486" y="538" type="line"/>
      <point x="610" y="538" type="line"/>
      <point x="610" y="-55" type="line"/>
      <point x="486" y="1" type="line"/>
    </contour>
    <contour>
      <point x="-30" y="619" type="line"/>
      <point x="687" y="619" type="line"/>
      <point x="687" y="523" type="line"/>
      <point x="-30" y="523" type="line"/>
    </contour>
    <contour>
      <point x="544" y="214" type="line"/>
      <point x="512" y="171"/>
      <point x="319" y="52"/>
      <point x="210" y="-8" type="curve"/>
      <point x="133" y="81" type="line"/>
      <point x="246" y="128"/>
      <point x="445" y="234"/>
      <point x="500" y="281" type="curve"/>
    </contour>
    <contour>
      <point x="567" y="254" type="line"/>
      <point x="289" y="365" type="line" smooth="yes"/>
      <point x="132" y="428"/>
      <point x="114" y="320"/>
      <point x="159" y="293" type="curve" smooth="yes"/>
      <point x="192" y="273"/>
      <point x="249" y="315"/>
      <point x="235" y="386" type="curve"/>
      <point x="297" y="378" type="line"/>
      <point x="393" y="267"/>
      <point x="225" y="196"/>
      <point x="188" y="218" type="curve" smooth="yes"/>
      <point x="136" y="248"/>
      <point x="109" y="270"/>
      <point x="67" y="303" type="curve" smooth="yes"/>
      <point x="6" y="351"/>
      <point x="93" y="485"/>
      <point x="159" y="480" type="curve" smooth="yes"/>
      <point x="172" y="479"/>
      <point x="163" y="480"/>
      <point x="588" y="315" type="curve"/>
    </contour>
  </outline>
</glyph>
<glyph name="dvN_S_M_YA" format="1">
  <advance width="2011"/>
  <outline>
    <contour>
      <point x="-22" y="619" type="line"/>
      <point x="1153" y="619" type="line"/>
      <point x="1153" y="523" type="line"/>
      <point x="813" y="523" type="line"/>
      <point x="870" y="435"/>
      <point x="883" y="339"/>
      <point x="842" y="266" type="curve"/>
      <point x="885" y="242"/>
      <point x="962" y="233"/>
      <point x="1056" y="267" type="curve"/>
      <point x="1109" y="193" type="line"/>
      <point x="1109" y="193"/>
      <point x="1029" y="147"/>
      <point x="951" y="147" type="curve" smooth="yes"/>
      <point x="917" y="147"/>
      <point x="848" y="203"/>
      <point x="817" y="231" type="curve"/>
      <point x="791" y="204"/>
      <point x="756" y="181"/>
      <point x="710" y="166" type="curve"/>
      <point x="736" y="116"/>
      <point x="849" y="26"/>
      <point x="915" y="-19" type="curve"/>
      <point x="887" y="-56" type="line"/>
      <point x="766" y="20"/>
      <point x="593" y="121"/>
      <point x="532" y="288" type="curve"/>
      <point x="328" y="291" type="line"/>
      <point x="430" y="149"/>
      <point x="259" y="53"/>
      <point x="214" y="91" type="curve" smooth="yes"/>
      <point x="166" y="132"/>
      <point x="130" y="160"/>
      <point x="88" y="199" type="curve" smooth="yes"/>
      <point x="28" y="255"/>
      <point x="46" y="364"/>
      <point x="113" y="385" type="curve" smooth="yes"/>
      <point x="127" y="389"/>
      <point x="111" y="386"/>
      <point x="581" y="385" type="curve"/>
      <point x="598" y="394"/>
      <point x="635" y="368"/>
      <point x="654" y="351" type="curve"/>
      <point x="666" y="338"/>
      <point x="666" y="306"/>
      <point x="677" y="269" type="curve"/>
      <point x="789" y="306"/>
      <point x="778" y="432"/>
      <point x="745" y="523" type="curve"/>
      <point x="-22" y="523" type="line"/>
    </contour>
    <contour>
      <point x="271" y="292" type="curve"/>
      <point x="253" y="292" type="line" smooth="yes"/>
      <point x="-9" y="295"/>
      <point x="274" y="28"/>
    </contour>
    <component base="dvYA" xOffset="1338"/>
    <component base="dvM" xOffset="931"/>
  </outline>
</glyph>
<glyph name="dvNine" format="1">
  <advance width="484"/>
  <outline>
    <contour>
      <point x="425" y="431" type="curve"/>
      <point x="391" y="490"/>
      <point x="225" y="627"/>
      <point x="200" y="627" type="curve" smooth="yes"/>
      <point x="105" y="627"/>
      <point x="29" y="485"/>
      <point x="34" y="429" type="curve" smooth="yes"/>
      <point x="36" y="406"/>
      <point x="86" y="358"/>
      <point x="127" y="316" type="curve" smooth="yes"/>
      <point x="206" y="234"/>
      <point x="284" y="168"/>
      <point x="351" y="89" type="curve" smooth="yes"/>
      <point x="409" y="20"/>
      <point x="396" y="-31"/>
      <point x="363" y="-47" type="curve"/>
      <point x="458" y="-119" type="line"/>
      <point x="507" y="-73"/>
      <point x="536" y="-26"/>
      <point x="440" y="71" type="curve" smooth="yes"/>
      <point x="306" y="215"/>
      <point x="301" y="223"/>
      <point x="267" y="255" type="curve"/>
      <point x="404" y="226"/>
      <point x="447" y="390"/>
    </contour>
    <contour>
      <point x="288" y="514" type="curve" smooth="yes"/>
      <point x="337" y="470"/>
      <point x="361" y="300"/>
      <point x="236" y="281" type="curve"/>
      <point x="181" y="333" type="line" smooth="yes"/>
      <point x="72" y="436"/>
      <point x="220" y="574"/>
    </contour>
  </outline>
</glyph>
<glyph name="dvPA" format="1">
  <advance width="607"/>
  <outline>
    <contour>
      <point x="415" y="1" type="line"/>
      <point x="539" y="-55" type="line"/>
      <point x="539" y="522" type="line"/>
      <point x="616" y="522" type="line"/>
      <point x="616" y="619" type="line"/>
      <point x="-3" y="619" type="line"/>
      <point x="-3" y="522" type="line"/>
      <point x="60" y="522" type="line"/>
      <point x="60" y="464"/>
      <point x="58" y="256"/>
      <point x="66" y="248" type="curve" smooth="yes"/>
      <point x="130" y="180"/>
      <point x="221" y="71"/>
      <point x="297" y="71" type="curve" smooth="yes"/>
      <point x="336" y="71"/>
      <point x="378" y="95"/>
      <point x="415" y="125" type="curve"/>
    </contour>
    <contour>
      <point x="185" y="208" type="curve"/>
      <point x="183" y="522" type="line"/>
      <point x="415" y="522" type="line"/>
      <point x="415" y="292" type="line"/>
      <point x="365" y="207"/>
      <point x="240" y="149"/>
    </contour>
  </outline>
</glyph>
<glyph name="dvPHA" format="1">
  <advance width="882"/>
  <outline>
    <contour>
      <point x="430" y="662" type="move" name="abvm.bindu"/>
    </contour>
    <contour>
      <point x="372" y="0" type="move" name="blwm.virama"/>
    </contour>
    <contour>
      <point x="537" y="621" type="move" name="abvm.e"/>
    </contour>
    <contour>
      <point x="370" y="-10" type="move" name="blwm.u"/>
    </contour>
    <contour>
      <point x="415" y="1" type="line"/>
      <point x="539" y="-55" type="line"/>
      <point x="539" y="250" type="line"/>
      <point x="565" y="277"/>
      <point x="591" y="297"/>
      <point x="623" y="308" type="curve"/>
      <point x="825" y="372"/>
      <point x="730" y="122"/>
      <point x="624" y="68" type="curve"/>
      <point x="722" y="-5" type="line"/>
      <point x="797" y="42"/>
      <point x="880" y="188"/>
      <point x="833" y="260" type="curve" smooth="yes"/>
      <point x="800" y="309"/>
      <point x="682" y="424"/>
      <point x="641" y="426" type="curve" smooth="yes"/>
      <point x="602" y="427"/>
      <point x="568" y="408"/>
      <point x="539" y="385" type="curve"/>
      <point x="539" y="522" type="line"/>
      <point x="886" y="522" type="line"/>
      <point x="886" y="619" type="line"/>
      <point x="-3" y="619" type="line"/>
      <point x="-3" y="522" type="line"/>
      <point x="60" y="522" type="line"/>
      <point x="60" y="464"/>
      <point x="58" y="256"/>
      <point x="66" y="248" type="curve" smooth="yes"/>
      <point x="130" y="180"/>
      <point x="221" y="71"/>
      <point x="297" y="71" type="curve" smooth="yes"/>
      <point x="338" y="71"/>
      <point x="379" y="99"/>
      <point x="415" y="133" type="curve"/>
    </contour>
    <contour>
      <point x="185" y="208" type="curve"/>
      <point x="183" y="522" type="line"/>
      <point x="415" y="522" type="line"/>
      <point x="415" y="292" type="line"/>
      <point x="365" y="207"/>
      <point x="240" y="149"/>
    </contour>
  </outline>
</glyph>
<glyph name="dvPH_PHA" format="1">
  <advance width="1520"/>
  <outline>
    <contour>
      <point x="1117" y="619" type="move" name="abvm.bindu"/>
    </contour>
    <contour>
      <point x="1115" y="-20" type="move" name="blwm.virama"/>
    </contour>
    <contour>
      <point x="1130" y="619" type="move" name="abvm.e"/>
    </contour>
    <contour>
      <point x="1126" y="-29" type="move" name="blwm.u"/>
    </contour>
    <component base="dvPHA" xOffset="651"/>
    <component base="dvPH" xOffset="-13"/>
  </outline>
</glyph>
<glyph name="dvPHx_RA" format="1">
  <advance width="873"/>
  <outline>
    <contour>
      <point x="498" y="662" type="move" name="abvm.bindu"/>
    </contour>
    <contour>
      <point x="442" y="0" type="move" name="blwm.virama"/>
    </contour>
    <contour>
      <point x="498" y="672" type="move" name="abvm.e"/>
    </contour>
    <contour>
      <point x="443" y="-10" type="move" name="blwm.u"/>
    </contour>
    <contour>
      <point x="-68" y="619" type="line"/>
      <point x="891" y="619" type="line"/>
      <point x="891" y="523" type="line"/>
      <point x="544" y="523" type="line"/>
      <point x="544" y="385" type="line"/>
      <point x="573" y="408"/>
      <point x="607" y="427"/>
      <point x="646" y="426" type="curve" smooth="yes"/>
      <point x="687" y="424"/>
      <point x="805" y="309"/>
      <point x="838" y="260" type="curve" smooth="yes"/>
      <point x="885" y="188"/>
      <point x="802" y="42"/>
      <point x="727" y="-5" type="curve"/>
      <point x="629" y="68" type="line"/>
      <point x="735" y="122"/>
      <point x="830" y="372"/>
      <point x="628" y="308" type="curve"/>
      <point x="596" y="297"/>
      <point x="570" y="277"/>
      <point x="544" y="250" type="curve"/>
      <point x="544" y="-55" type="line"/>
      <point x="420" y="1" type="line"/>
      <point x="420" y="47" type="line"/>
      <point x="378" y="9"/>
      <point x="321" y="-31"/>
      <point x="264" y="-64" type="curve"/>
      <point x="180" y="2" type="line"/>
      <point x="236" y="25"/>
      <point x="291" y="49"/>
      <point x="340" y="78" type="curve"/>
      <point x="327" y="74"/>
      <point x="314" y="71"/>
      <point x="302" y="71" type="curve" smooth="yes"/>
      <point x="226" y="71"/>
      <point x="135" y="180"/>
      <point x="71" y="248" type="curve" smooth="yes"/>
      <point x="63" y="256"/>
      <point x="65" y="467"/>
      <point x="65" y="523" type="curve"/>
      <point x="-68" y="523" type="line"/>
    </contour>
    <contour>
      <point x="190" y="208" type="line"/>
      <point x="245" y="149"/>
      <point x="370" y="207"/>
      <point x="420" y="292" type="curve"/>
      <point x="420" y="523" type="line"/>
      <point x="188" y="523" type="line"/>
    </contour>
    <component base="dvNukta" xScale="0.824000000954" yScale="0.823000013828" xOffset="342" yOffset="213"/>
  </outline>
</glyph>
<glyph name="dvP_LA" format="1">
  <advance width="1071"/>
  <outline>
    <contour>
      <point x="-6" y="619" type="line"/>
      <point x="613" y="619" type="line"/>
      <point x="613" y="522" type="line"/>
      <point x="-6" y="522" type="line"/>
    </contour>
    <contour>
      <point x="428" y="324" type="curve"/>
      <point x="428" y="324"/>
      <point x="511" y="236"/>
      <point x="512" y="236" type="curve"/>
      <point x="512" y="236"/>
      <point x="396" y="71"/>
      <point x="294" y="71" type="curve" smooth="yes"/>
      <point x="218" y="71"/>
      <point x="127" y="180"/>
      <point x="63" y="248" type="curve" smooth="yes"/>
      <point x="54" y="258"/>
      <point x="58" y="540"/>
      <point x="58" y="540" type="curve" smooth="yes"/>
      <point x="57" y="540"/>
      <point x="180" y="540"/>
      <point x="180" y="540" type="curve"/>
      <point x="182" y="208" type="line"/>
      <point x="244" y="142"/>
      <point x="386" y="229"/>
    </contour>
    <component base="dvLA" xOffset="351"/>
  </outline>
</glyph>
<glyph name="dvP_TTA" format="1">
  <advance width="908"/>
  <outline>
    <contour>
      <point x="766" y="662" type="move" name="abvm.bindu"/>
    </contour>
    <contour>
      <point x="596" y="0" type="move" name="blwm.virama"/>
    </contour>
    <contour>
      <point x="785" y="672" type="move" name="abvm.e"/>
    </contour>
    <contour>
      <point x="655" y="-10" type="move" name="blwm.u"/>
    </contour>
    <component base="dvTTA" xOffset="285"/>
  </outline>
</glyph>
<glyph name="dvP_TTHA" format="1">
  <advance width="876"/>
  <outline>
    <contour>
      <point x="710" y="662" type="move" name="abvm.bindu"/>
    </contour>
    <contour>
      <point x="561" y="0" type="move" name="blwm.virama"/>
    </contour>
    <contour>
      <point x="716" y="672" type="move" name="abvm.e"/>
    </contour>
    <contour>
      <point x="561" y="-10" type="move" name="blwm.u"/>
    </contour>
    <component base="dvTTHA" xOffset="283"/>
  </outline>
</glyph>
<glyph name="dvP_YA" format="1">
  <advance width="982"/>
  <outline>
    <contour>
      <point x="-23" y="619" type="line"/>
      <point x="596" y="619" type="line"/>
      <point x="596" y="522" type="line"/>
      <point x="-23" y="522" type="line"/>
    </contour>
    <contour>
      <point x="445" y="172" type="line"/>
      <point x="401" y="126"/>
      <point x="336" y="71"/>
      <point x="277" y="71" type="curve" smooth="yes"/>
      <point x="201" y="71"/>
      <point x="110" y="180"/>
      <point x="46" y="248" type="curve" smooth="yes"/>
      <point x="37" y="258"/>
      <point x="41" y="540"/>
      <point x="41" y="540" type="curve" smooth="yes"/>
      <point x="40" y="540"/>
      <point x="163" y="540"/>
      <point x="163" y="540" type="curve"/>
      <point x="165" y="208" type="line"/>
      <point x="211" y="159"/>
      <point x="304" y="191"/>
      <point x="363" y="251" type="curve" smooth="yes"/>
    </contour>
    <component base="dvYA" xOffset="304"/>
  </outline>
</glyph>
<glyph name="dvR" format="1">
  <advance width="433"/>
  <outline>
    <contour>
      <point x="-9" y="619" type="line"/>
      <point x="436" y="619" type="line"/>
      <point x="436" y="523" type="line"/>
      <point x="-9" y="523" type="line"/>
    </contour>
    <contour>
      <point x="308" y="532" type="line"/>
      <point x="407" y="390"/>
      <point x="387" y="219"/>
      <point x="209" y="152" type="curve"/>
      <point x="272" y="60"/>
      <point x="369" y="3"/>
      <point x="416" y="-20" type="curve"/>
      <point x="388" y="-56" type="line"/>
      <point x="265" y="15"/>
      <point x="93" y="122"/>
      <point x="33" y="290" type="curve"/>
      <point x="45" y="324"/>
      <point x="61" y="360"/>
      <point x="79" y="381" type="curve" smooth="yes"/>
      <point x="93" y="398"/>
      <point x="135" y="369"/>
      <point x="155" y="350" type="curve"/>
      <point x="167" y="337"/>
      <point x="166" y="305"/>
      <point x="179" y="272" type="curve"/>
      <point x="295" y="310"/>
      <point x="279" y="441"/>
      <point x="243" y="532" type="curve"/>
    </contour>
    <component base="dvVirama" xOffset="350" yOffset="40"/>
  </outline>
</glyph>
<glyph name="dvSH_RA" format="1">
  <advance width="668"/>
  <outline>
    <contour>
      <point x="475" y="538" type="line"/>
      <point x="599" y="538" type="line"/>
      <point x="599" y="-55" type="line"/>
      <point x="475" y="1" type="line"/>
    </contour>
    <contour>
      <point x="383" y="619" type="line"/>
      <point x="680" y="619" type="line"/>
      <point x="680" y="523" type="line"/>
      <point x="422" y="523" type="line"/>
    </contour>
    <contour>
      <point x="303" y="319" type="line"/>
      <point x="417" y="276"/>
      <point x="506" y="353"/>
      <point x="529" y="408" type="curve" smooth="yes"/>
      <point x="530" y="409"/>
      <point x="583" y="322"/>
      <point x="584" y="321" type="curve"/>
      <point x="494" y="239"/>
      <point x="392" y="239"/>
      <point x="283" y="292" type="curve"/>
    </contour>
    <contour>
      <point x="410" y="453" type="curve" smooth="yes"/>
      <point x="460" y="366"/>
      <point x="221" y="217"/>
      <point x="101" y="169" type="curve"/>
      <point x="13" y="241" type="line"/>
      <point x="139" y="299"/>
      <point x="400" y="418"/>
      <point x="314" y="511" type="curve" smooth="yes"/>
      <point x="261" y="568"/>
      <point x="135" y="475"/>
      <point x="227" y="371" type="curve" smooth="yes"/>
      <point x="251" y="344"/>
      <point x="284" y="326"/>
      <point x="304" y="318" type="curve"/>
      <point x="285" y="296" type="line"/>
      <point x="198" y="325"/>
      <point x="120" y="366"/>
      <point x="83" y="425" type="curve" smooth="yes"/>
      <point x="53" y="473"/>
      <point x="155" y="627"/>
      <point x="250" y="627" type="curve" smooth="yes"/>
      <point x="275" y="627"/>
      <point x="376" y="512"/>
    </contour>
    <contour>
      <point x="530" y="198" type="line"/>
      <point x="486" y="160"/>
      <point x="332" y="53"/>
      <point x="220" y="-29" type="curve"/>
      <point x="143" y="60" type="line"/>
      <point x="241" y="116"/>
      <point x="408" y="223"/>
      <point x="486" y="265" type="curve"/>
    </contour>
  </outline>
</glyph>
<glyph name="dvSSA" format="1">
  <advance width="620"/>
  <outline>
    <contour>
      <point x="444" y="325" type="curve"/>
      <point x="411" y="223"/>
      <point x="243" y="157"/>
      <point x="181" y="224" type="curve"/>
      <point x="177" y="540" type="line"/>
      <point x="177" y="540"/>
      <point x="54" y="540"/>
      <point x="55" y="540" type="curve" smooth="yes"/>
      <point x="55" y="540"/>
      <point x="51" y="258"/>
      <point x="60" y="248" type="curve" smooth="yes"/>
      <point x="124" y="180"/>
      <point x="205" y="85"/>
      <point x="275" y="85" type="curve" smooth="yes"/>
      <point x="403" y="85"/>
      <point x="531" y="235"/>
      <point x="531" y="235" type="curve"/>
      <point x="531" y="235"/>
      <point x="443" y="325"/>
    </contour>
    <contour>
      <point x="-9" y="523" type="line"/>
      <point x="629" y="523" type="line"/>
      <point x="629" y="619" type="line"/>
      <point x="-9" y="619" type="line"/>
    </contour>
    <contour>
      <point x="428" y="1" type="line"/>
      <point x="552" y="-55" type="line"/>
      <point x="552" y="538" type="line"/>
      <point x="428" y="538" type="line"/>
    </contour>
    <contour>
      <point x="457" y="222" type="line"/>
      <point x="482" y="249" type="line"/>
      <point x="165" y="546" type="line"/>
      <point x="140" y="519" type="line"/>
    </contour>
  </outline>
</glyph>
<glyph name="dvSS_TTA" format="1">
  <advance width="962"/>
  <outline>
    <contour>
      <point x="789" y="619" type="move" name="abvm.bindu"/>
    </contour>
    <contour>
      <point x="690" y="0" type="move" name="blwm.virama"/>
    </contour>
    <contour>
      <point x="798" y="619" type="move" name="abvm.e"/>
    </contour>
    <contour>
      <point x="749" y="-10" type="move" name="blwm.u"/>
    </contour>
    <component base="dvSS" xOffset="-6"/>
    <component base="dvTTA" xOffset="379"/>
  </outline>
</glyph>
<glyph name="dvS_DA_mUU" format="1">
  <advance width="1076"/>
  <outline>
    <contour>
      <point x="890" y="620" type="move" name="abvm.bindu"/>
    </contour>
    <contour>
      <point x="866" y="619" type="move" name="abvm.e"/>
    </contour>
    <component base="dvDA_mUU" xOffset="467"/>
    <component base="dvS"/>
  </outline>
</glyph>
<glyph name="dvS_DA_mU" format="1">
  <advance width="1061"/>
  <outline>
    <contour>
      <point x="892" y="620" type="move" name="abvm.bindu"/>
    </contour>
    <contour>
      <point x="874" y="618" type="move" name="abvm.e"/>
    </contour>
    <component base="dvmU" xOffset="954"/>
    <component base="dvDA" xOffset="460"/>
    <component base="dvS"/>
  </outline>
</glyph>
<glyph name="dvS_T_YA" format="1">
  <advance width="1478"/>
  <outline>
    <contour>
      <point x="300" y="532" type="line"/>
      <point x="399" y="390"/>
      <point x="379" y="224"/>
      <point x="203" y="166" type="curve"/>
      <point x="229" y="116"/>
      <point x="342" y="26"/>
      <point x="408" y="-19" type="curve"/>
      <point x="380" y="-56" type="line"/>
      <point x="259" y="20"/>
      <point x="85" y="122"/>
      <point x="25" y="290" type="curve"/>
      <point x="37" y="324"/>
      <point x="53" y="361"/>
      <point x="71" y="382" type="curve" smooth="yes"/>
      <point x="85" y="398"/>
      <point x="127" y="370"/>
      <point x="147" y="351" type="curve"/>
      <point x="159" y="338"/>
      <point x="159" y="306"/>
      <point x="170" y="269" type="curve"/>
      <point x="286" y="307"/>
      <point x="271" y="441"/>
      <point x="235" y="532" type="curve"/>
    </contour>
    <contour>
      <point x="307" y="289" type="line"/>
      <point x="338" y="251"/>
      <point x="476" y="231"/>
      <point x="561" y="357" type="curve"/>
      <point x="622" y="261" type="line"/>
      <point x="622" y="261"/>
      <point x="519" y="171"/>
      <point x="441" y="171" type="curve" smooth="yes"/>
      <point x="397" y="171"/>
      <point x="292" y="248"/>
      <point x="292" y="248" type="curve"/>
    </contour>
    <contour>
      <point x="-2" y="619" type="line"/>
      <point x="646" y="619" type="line"/>
      <point x="646" y="523" type="line"/>
      <point x="-2" y="523" type="line"/>
    </contour>
    <component base="dvYA" xOffset="798"/>
    <component base="dvT" xOffset="472"/>
  </outline>
</glyph>
<glyph name="dvSeven" format="1">
  <advance width="751"/>
  <outline>
    <contour>
      <point x="363" y="86" type="curve" smooth="yes"/>
      <point x="250" y="64"/>
      <point x="162" y="300"/>
      <point x="119" y="460" type="curve"/>
      <point x="85" y="445" type="line"/>
      <point x="127" y="281"/>
      <point x="195" y="78"/>
      <point x="354" y="-17" type="curve" smooth="yes"/>
      <point x="472" y="-88"/>
      <point x="746" y="206"/>
      <point x="689" y="367" type="curve" smooth="yes"/>
      <point x="677" y="401"/>
      <point x="622" y="481"/>
      <point x="553" y="523" type="curve" smooth="yes"/>
      <point x="495" y="558"/>
      <point x="348" y="453"/>
      <point x="348" y="369" type="curve" smooth="yes"/>
      <point x="348" y="321"/>
      <point x="455" y="266"/>
      <point x="538" y="234" type="curve"/>
      <point x="484" y="154"/>
      <point x="404" y="94"/>
    </contour>
    <contour>
      <point x="479" y="304" type="curve" smooth="yes"/>
      <point x="371" y="375"/>
      <point x="699" y="574"/>
      <point x="567" y="286" type="curve"/>
      <point x="556" y="264" type="line"/>
      <point x="532" y="273"/>
      <point x="508" y="284"/>
    </contour>
  </outline>
</glyph>
<glyph name="dvSix" format="1">
  <advance width="605"/>
  <outline>
    <contour>
      <point x="81" y="386" type="curve" smooth="yes"/>
      <point x="151" y="314"/>
      <point x="156" y="312"/>
      <point x="173" y="298" type="curve"/>
      <point x="192" y="318" type="line"/>
      <point x="81" y="412"/>
      <point x="231" y="515"/>
      <point x="394" y="488" type="curve"/>
      <point x="354" y="584" type="line"/>
      <point x="175" y="596"/>
      <point x="22" y="446"/>
    </contour>
    <contour>
      <point x="417" y="130" type="line"/>
      <point x="335" y="64"/>
      <point x="239" y="34"/>
      <point x="180" y="104" type="curve" smooth="yes"/>
      <point x="107" y="190"/>
      <point x="238" y="254"/>
      <point x="333" y="292" type="curve"/>
      <point x="271" y="353" type="line"/>
      <point x="194" y="344"/>
      <point x="26" y="225"/>
      <point x="67" y="171" type="curve" smooth="yes"/>
      <point x="117" y="106"/>
      <point x="154" y="60"/>
      <point x="213" y="1" type="curve" smooth="yes"/>
      <point x="272" y="-58"/>
      <point x="382" y="-20"/>
      <point x="476" y="55" type="curve" smooth="yes"/>
    </contour>
    <contour>
      <point x="556" y="-118" type="curve"/>
      <point x="595" y="-91" type="line"/>
      <point x="480" y="52" type="line"/>
      <point x="533" y="105" type="line" smooth="yes"/>
      <point x="563" y="135"/>
      <point x="546" y="181"/>
      <point x="519" y="213" type="curve" smooth="yes"/>
      <point x="487" y="251"/>
      <point x="452" y="279"/>
      <point x="405" y="249" type="curve" smooth="yes"/>
      <point x="387" y="238"/>
      <point x="350" y="210"/>
      <point x="335" y="180" type="curve" smooth="yes"/>
      <point x="328" y="166"/>
      <point x="351" y="139"/>
    </contour>
  </outline>
</glyph>
<glyph name="dvTHA" format="1">
  <advance width="661"/>
  <outline>
    <contour>
      <point x="477" y="538" type="line"/>
      <point x="601" y="538" type="line"/>
      <point x="601" y="-55" type="line"/>
      <point x="477" y="1" type="line"/>
    </contour>
    <contour>
      <point x="345" y="619" type="line"/>
      <point x="672" y="619" type="line"/>
      <point x="672" y="523" type="line"/>
      <point x="384" y="523" type="line"/>
    </contour>
    <contour>
      <point x="209" y="408" type="curve" smooth="yes"/>
      <point x="224" y="408"/>
      <point x="269" y="454"/>
      <point x="271" y="466" type="curve" smooth="yes"/>
      <point x="280" y="524"/>
      <point x="238" y="580"/>
      <point x="180" y="550" type="curve" smooth="yes"/>
      <point x="76" y="495"/>
      <point x="146" y="408"/>
    </contour>
    <contour>
      <point x="513" y="186" type="line"/>
      <point x="484" y="147"/>
      <point x="425" y="72"/>
      <point x="314" y="72" type="curve" smooth="yes"/>
      <point x="211" y="72"/>
      <point x="34" y="263"/>
      <point x="26" y="288" type="curve" smooth="yes"/>
      <point x="22" y="299"/>
      <point x="142" y="348"/>
      <point x="180" y="379" type="curve"/>
      <point x="104" y="402"/>
      <point x="26" y="452"/>
      <point x="26" y="511" type="curve" smooth="yes"/>
      <point x="26" y="595"/>
      <point x="155" y="652"/>
      <point x="213" y="617" type="curve" smooth="yes"/>
      <point x="282" y="575"/>
      <point x="350" y="498"/>
      <point x="362" y="465" type="curve" smooth="yes"/>
      <point x="394" y="375"/>
      <point x="230" y="284"/>
      <point x="140" y="224" type="curve"/>
      <point x="261" y="109"/>
      <point x="432" y="190"/>
      <point x="492" y="334" type="curve"/>
    </contour>
  </outline>
</glyph>
<glyph name="dvTH_NA" format="1">
  <advance width="661"/>
  <outline>
    <contour>
      <point x="582" y="54" type="line"/>
      <point x="474" y="22"/>
      <point x="408" y="-9"/>
      <point x="348" y="-36" type="curve"/>
      <point x="346" y="-36"/>
      <point x="345" y="-37"/>
      <point x="343" y="-38" type="curve"/>
      <point x="497" y="-116"/>
      <point x="353" y="-251"/>
      <point x="298" y="-228" type="curve"/>
      <point x="242" y="-206"/>
      <point x="242" y="-205"/>
      <point x="188" y="-180" type="curve" smooth="yes"/>
      <point x="113" y="-145"/>
      <point x="152" y="-23"/>
      <point x="195" y="1" type="curve" smooth="yes"/>
      <point x="255" y="35"/>
      <point x="379" y="77"/>
      <point x="528" y="107" type="curve"/>
    </contour>
    <component base="dvTHA"/>
  </outline>
</glyph>
<glyph name="dvTH_R" format="1">
  <advance width="464"/>
  <outline>
    <contour>
      <point x="519" y="118" type="line"/>
      <point x="498" y="62"/>
      <point x="392" y="-7"/>
      <point x="299" y="-61" type="curve"/>
      <point x="215" y="5" type="line"/>
      <point x="318" y="47"/>
      <point x="429" y="91"/>
      <point x="491" y="164" type="curve"/>
    </contour>
    <component base="dvTH"/>
  </outline>
</glyph>
<glyph name="dvTTH_VA" format="1">
  <advance width="605"/>
  <outline>
    <contour>
      <point x="453" y="662" type="move" name="abvm.bindu"/>
    </contour>
    <contour>
      <point x="304" y="-320" type="move" name="blwm.virama"/>
    </contour>
    <contour>
      <point x="459" y="672" type="move" name="abvm.e"/>
    </contour>
    <contour>
      <point x="304" y="-339" type="move" name="blwm.u"/>
    </contour>
    <contour>
      <point x="-8" y="619" type="line"/>
      <point x="610" y="619" type="line"/>
      <point x="610" y="523" type="line"/>
      <point x="-8" y="523" type="line"/>
    </contour>
    <contour>
      <point x="349" y="469" type="line"/>
      <point x="349" y="557" type="line"/>
      <point x="460" y="557" type="line"/>
      <point x="460" y="392" type="line"/>
      <point x="294" y="395" type="line" smooth="yes"/>
      <point x="189" y="397"/>
      <point x="119" y="136"/>
      <point x="308" y="133" type="curve" smooth="yes"/>
      <point x="424" y="131"/>
      <point x="558" y="248"/>
      <point x="456" y="392" type="curve"/>
      <point x="459" y="420" type="line"/>
      <point x="759" y="246"/>
      <point x="396" y="-66"/>
      <point x="228" y="74" type="curve" smooth="yes"/>
      <point x="165" y="127"/>
      <point x="138" y="169"/>
      <point x="96" y="231" type="curve" smooth="yes"/>
      <point x="46" y="305"/>
      <point x="115" y="449"/>
      <point x="192" y="457" type="curve"/>
    </contour>
    <contour>
      <point x="261" y="56" type="line"/>
      <point x="183" y="19"/>
      <point x="159" y="-40"/>
      <point x="193" y="-75" type="curve"/>
      <point x="220" y="-105"/>
      <point x="334" y="-148"/>
      <point x="447" y="38" type="curve"/>
      <point x="470" y="-73" type="line"/>
      <point x="307" y="-302"/>
      <point x="183" y="-183"/>
      <point x="96" y="-13" type="curve" smooth="yes"/>
      <point x="67" y="42"/>
      <point x="129" y="115"/>
      <point x="206" y="153" type="curve"/>
    </contour>
    <contour>
      <point x="386" y="136" type="line"/>
      <point x="496" y="144" type="line"/>
      <point x="496" y="-264" type="line"/>
      <point x="386" y="-216" type="line"/>
    </contour>
  </outline>
</glyph>
<glyph name="dvTT_VA" format="1">
  <advance width="588"/>
  <outline>
    <contour>
      <point x="399" y="619" type="move" name="abvm.bindu"/>
    </contour>
    <contour>
      <point x="371" y="-358" type="move" name="blwm.virama"/>
    </contour>
    <contour>
      <point x="419" y="619" type="move" name="abvm.e"/>
    </contour>
    <contour>
      <point x="371" y="-348" type="move" name="blwm.u"/>
    </contour>
    <contour>
      <point x="-8" y="619" type="line"/>
      <point x="610" y="619" type="line"/>
      <point x="610" y="523" type="line"/>
      <point x="-8" y="523" type="line"/>
    </contour>
    <contour>
      <point x="349" y="468" type="line"/>
      <point x="349" y="546" type="line"/>
      <point x="460" y="546" type="line"/>
      <point x="460" y="381" type="line"/>
      <point x="296" y="381" type="line" smooth="yes"/>
      <point x="191" y="381"/>
      <point x="121" y="137"/>
      <point x="292" y="124" type="curve" smooth="yes"/>
      <point x="388" y="116"/>
      <point x="439" y="192"/>
      <point x="483" y="257" type="curve"/>
      <point x="568" y="182" type="line"/>
      <point x="479" y="61"/>
      <point x="343" y="-49"/>
      <point x="228" y="68" type="curve" smooth="yes"/>
      <point x="171" y="126"/>
      <point x="130" y="169"/>
      <point x="90" y="232" type="curve" smooth="yes"/>
      <point x="42" y="307"/>
      <point x="118" y="449"/>
      <point x="195" y="457" type="curve"/>
    </contour>
    <contour>
      <point x="261" y="42" type="line"/>
      <point x="183" y="5"/>
      <point x="159" y="-54"/>
      <point x="193" y="-89" type="curve" smooth="yes"/>
      <point x="220" y="-119"/>
      <point x="334" y="-162"/>
      <point x="447" y="24" type="curve"/>
      <point x="470" y="-87" type="line"/>
      <point x="307" y="-316"/>
      <point x="183" y="-197"/>
      <point x="96" y="-27" type="curve" smooth="yes"/>
      <point x="67" y="28"/>
      <point x="129" y="101"/>
      <point x="206" y="139" type="curve"/>
    </contour>
    <contour>
      <point x="386" y="122" type="line"/>
      <point x="496" y="130" type="line"/>
      <point x="496" y="-278" type="line"/>
      <point x="386" y="-230" type="line"/>
    </contour>
  </outline>
</glyph>
<glyph name="dvT_NA" format="1">
  <advance width="606"/>
  <outline>
    <contour>
      <point x="-6" y="619" type="line"/>
      <point x="611" y="619" type="line"/>
      <point x="611" y="523" type="line"/>
      <point x="533" y="523" type="line"/>
      <point x="533" y="-55" type="line"/>
      <point x="409" y="1" type="line"/>
      <point x="409" y="195" type="line"/>
      <point x="341" y="179"/>
      <point x="300" y="162"/>
      <point x="259" y="147" type="curve" smooth="yes"/>
      <point x="257" y="146"/>
      <point x="255" y="145"/>
      <point x="254" y="145" type="curve" smooth="yes"/>
      <point x="403" y="57"/>
      <point x="249" y="-68"/>
      <point x="196" y="-42" type="curve" smooth="yes"/>
      <point x="142" y="-16"/>
      <point x="142" y="-16"/>
      <point x="89" y="13" type="curve" smooth="yes"/>
      <point x="17" y="53"/>
      <point x="65" y="172"/>
      <point x="109" y="193" type="curve" smooth="yes"/>
      <point x="163" y="219"/>
      <point x="280" y="250"/>
      <point x="409" y="270" type="curve"/>
      <point x="409" y="285" type="line"/>
      <point x="320" y="324"/>
      <point x="152" y="327"/>
      <point x="57" y="317" type="curve"/>
      <point x="19" y="441" type="line"/>
      <point x="93" y="450"/>
      <point x="293" y="424"/>
      <point x="409" y="373" type="curve"/>
      <point x="409" y="523" type="line"/>
      <point x="-6" y="523" type="line"/>
    </contour>
  </outline>
</glyph>
<glyph name="dvThree" format="1">
  <advance width="485"/>
  <outline>
    <contour>
      <point x="505" y="-128" type="line"/>
      <point x="465" y="-102"/>
      <point x="397" y="-47"/>
      <point x="329" y="8" type="curve"/>
      <point x="480" y="50"/>
      <point x="529" y="215"/>
      <point x="363" y="296" type="curve"/>
      <point x="444" y="347"/>
      <point x="480" y="432"/>
      <point x="427" y="486" type="curve" smooth="yes"/>
      <point x="370" y="543"/>
      <point x="350" y="558"/>
      <point x="293" y="606" type="curve" smooth="yes"/>
      <point x="222" y="665"/>
      <point x="96" y="566"/>
      <point x="60" y="542" type="curve"/>
      <point x="121" y="455" type="line"/>
      <point x="166" y="486"/>
      <point x="319" y="586"/>
      <point x="364" y="473" type="curve" smooth="yes"/>
      <point x="388" y="413"/>
      <point x="302" y="361"/>
      <point x="168" y="346" type="curve"/>
      <point x="222" y="253" type="line"/>
      <point x="256" y="254"/>
      <point x="288" y="262"/>
      <point x="316" y="273" type="curve"/>
      <point x="416" y="192"/>
      <point x="327" y="93"/>
      <point x="218" y="98" type="curve"/>
      <point x="173" y="133"/>
      <point x="137" y="161"/>
      <point x="122" y="168" type="curve"/>
      <point x="87" y="159"/>
      <point x="50" y="118"/>
      <point x="50" y="104" type="curve" smooth="yes"/>
      <point x="50" y="60"/>
      <point x="101" y="17"/>
      <point x="108" y="11" type="curve"/>
      <point x="131" y="-13"/>
      <point x="196" y="-7"/>
      <point x="248" y="-2" type="curve"/>
      <point x="257" y="-2"/>
      <point x="266" y="-2"/>
      <point x="274" y="-1" type="curve"/>
      <point x="345" y="-60"/>
      <point x="402" y="-111"/>
      <point x="466" y="-170" type="curve"/>
    </contour>
  </outline>
</glyph>
<glyph name="dvU" format="1">
  <advance width="553"/>
  <outline>
    <contour>
      <point x="324" y="625" type="move" name="abvm.bindu"/>
    </contour>
    <contour>
      <point x="413" y="396" type="curve" smooth="yes"/>
      <point x="411" y="378"/>
      <point x="404" y="343"/>
      <point x="358" y="306" type="curve"/>
      <point x="408" y="272"/>
      <point x="502" y="203"/>
      <point x="514" y="152" type="curve" smooth="yes"/>
      <point x="537" y="49"/>
      <point x="325" y="-62"/>
      <point x="224" y="-2" type="curve" smooth="yes"/>
      <point x="153" y="41"/>
      <point x="109" y="136"/>
      <point x="37" y="270" type="curve"/>
      <point x="62" y="288" type="line"/>
      <point x="119" y="197"/>
      <point x="195" y="17"/>
      <point x="349" y="99" type="curve" smooth="yes"/>
      <point x="440" y="147"/>
      <point x="415" y="226"/>
      <point x="338" y="291" type="curve"/>
      <point x="314" y="276"/>
      <point x="283" y="260"/>
      <point x="241" y="246" type="curve"/>
      <point x="182" y="329" type="line"/>
      <point x="266" y="354"/>
      <point x="392" y="394"/>
      <point x="251" y="523" type="curve"/>
      <point x="-5" y="523" type="line"/>
      <point x="-5" y="619" type="line"/>
      <point x="559" y="619" type="line"/>
      <point x="559" y="523" type="line"/>
      <point x="298" y="523" type="line"/>
      <point x="347" y="489"/>
      <point x="416" y="430"/>
    </contour>
  </outline>
</glyph>
<glyph name="dvV_NA" format="1">
  <advance width="589"/>
  <outline>
    <contour>
      <point x="510" y="56" type="line"/>
      <point x="402" y="24"/>
      <point x="358" y="-4"/>
      <point x="302" y="-36" type="curve" smooth="yes"/>
      <point x="298" y="-38" type="line"/>
      <point x="451" y="-116"/>
      <point x="307" y="-251"/>
      <point x="252" y="-228" type="curve"/>
      <point x="196" y="-206"/>
      <point x="196" y="-205"/>
      <point x="142" y="-180" type="curve" smooth="yes"/>
      <point x="67" y="-145"/>
      <point x="106" y="-23"/>
      <point x="149" y="1" type="curve" smooth="yes"/>
      <point x="209" y="35"/>
      <point x="307" y="79"/>
      <point x="456" y="109" type="curve"/>
    </contour>
    <component base="dvVA"/>
  </outline>
</glyph>
<glyph name="dvZero" format="1">
  <advance width="611"/>
  <outline>
    <contour>
      <point x="489" y="509" type="curve" smooth="yes"/>
      <point x="630" y="399"/>
      <point x="491" y="3"/>
      <point x="234" y="154" type="curve" smooth="yes"/>
      <point x="211" y="168"/>
      <point x="178" y="189"/>
      <point x="141" y="217" type="curve" smooth="yes"/>
      <point x="-72" y="381"/>
      <point x="249" y="667"/>
      <point x="327" y="615" type="curve" smooth="yes"/>
      <point x="443" y="536"/>
      <point x="456" y="534"/>
    </contour>
    <contour>
      <point x="403" y="509" type="curve" smooth="yes"/>
      <point x="265" y="598"/>
      <point x="91" y="309"/>
      <point x="208" y="224" type="curve" smooth="yes"/>
      <point x="370" y="105"/>
      <point x="500" y="445"/>
    </contour>
  </outline>
</glyph>
<glyph name="dvmE" format="1">
  <advance width="0"/>
  <outline>
    <contour>
      <point x="-166" y="616" type="move" name="_abvm.e"/>
    </contour>
    <contour>
      <point x="-166" y="616" type="line"/>
      <point x="-192" y="652"/>
      <point x="-245" y="711"/>
      <point x="-290" y="735" type="curve" smooth="yes"/>
      <point x="-348" y="766"/>
      <point x="-425" y="743"/>
      <point x="-475" y="724" type="curve"/>
      <point x="-546" y="804" type="line"/>
      <point x="-476" y="826"/>
      <point x="-372" y="837"/>
      <point x="-335" y="830" type="curve"/>
      <point x="-264" y="814"/>
      <point x="-178" y="687"/>
      <point x="-123" y="617" type="curve"/>
    </contour>
  </outline>
</glyph>
<glyph name="dvmE.short" format="1">
  <advance width="9"/>
  <outline>
    <contour>
      <point x="-166" y="616" type="line"/>
      <point x="-186" y="645"/>
      <point x="-207" y="677"/>
      <point x="-230" y="691" type="curve" smooth="yes"/>
      <point x="-259" y="709"/>
      <point x="-358" y="712"/>
      <point x="-385" y="725" type="curve" smooth="yes"/>
      <point x="-409" y="737"/>
      <point x="-440" y="775"/>
      <point x="-457" y="803" type="curve"/>
      <point x="-393" y="856" type="line"/>
      <point x="-375" y="834"/>
      <point x="-364" y="805"/>
      <point x="-348" y="800" type="curve" smooth="yes"/>
      <point x="-318" y="790"/>
      <point x="-216" y="782"/>
      <point x="-193" y="761" type="curve" smooth="yes"/>
      <point x="-178" y="747"/>
      <point x="-131" y="647"/>
      <point x="-123" y="617" type="curve"/>
    </contour>
  </outline>
</glyph>
<glyph name="dvmE_Reph" format="1">
  <advance width="1"/>
  <outline>
    <contour>
      <point x="-68" y="615" type="move" name="_abvm.e"/>
    </contour>
    <contour>
      <point x="-96" y="616" type="line"/>
      <point x="-122" y="652"/>
      <point x="-175" y="711"/>
      <point x="-220" y="735" type="curve" smooth="yes"/>
      <point x="-278" y="766"/>
      <point x="-355" y="743"/>
      <point x="-405" y="724" type="curve"/>
      <point x="-476" y="804" type="line"/>
      <point x="-406" y="826"/>
      <point x="-302" y="837"/>
      <point x="-265" y="830" type="curve"/>
      <point x="-194" y="814"/>
      <point x="-108" y="687"/>
      <point x="-53" y="617" type="curve"/>
    </contour>
    <contour>
      <point x="-84" y="615" type="line"/>
      <point x="-151" y="676"/>
      <point x="-165" y="750"/>
      <point x="-165" y="755" type="curve" smooth="yes"/>
      <point x="-165" y="821"/>
      <point x="-92" y="894"/>
      <point x="-32" y="894" type="curve" smooth="yes"/>
      <point x="-12" y="894"/>
      <point x="63" y="843"/>
      <point x="116" y="803" type="curve"/>
      <point x="100" y="779" type="line"/>
      <point x="77" y="792"/>
      <point x="15" y="824"/>
      <point x="-14" y="824" type="curve" smooth="yes"/>
      <point x="-81" y="824"/>
      <point x="-135" y="689"/>
      <point x="-47" y="615" type="curve"/>
    </contour>
  </outline>
</glyph>
<glyph name="dvmE_Reph_Anusvara" format="1">
  <advance width="-64"/>
  <outline>
    <contour>
      <point x="-138" y="616" type="move" name="_abvm.e"/>
    </contour>
    <component base="dvmE_Reph" xOffset="-64"/>
    <component base="dvReph.amI" xOffset="-64"/>
    <component base="dvAnusvara" xScale="0.771000027657" yScale="0.771000027657" xOffset="-27" yOffset="131"/>
  </outline>
</glyph>
<glyph name="dvmI.a02" format="1">
  <advance width="273"/>
  <outline>
    <contour>
      <point x="666" y="589" type="move" name="abvm.i"/>
    </contour>
    <contour>
      <point x="73" y="536" type="line"/>
      <point x="197" y="536" type="line"/>
      <point x="197" y="-57" type="line"/>
      <point x="73" y="-1" type="line"/>
    </contour>
    <contour>
      <point x="-3" y="619" type="line"/>
      <point x="274" y="619" type="line"/>
      <point x="274" y="523" type="line"/>
      <point x="-3" y="523" type="line"/>
    </contour>
    <contour>
      <point x="80" y="604" type="line"/>
      <point x="38" y="641"/>
      <point x="7" y="703"/>
      <point x="22" y="745" type="curve" smooth="yes"/>
      <point x="38" y="788"/>
      <point x="142" y="862"/>
      <point x="180" y="860" type="curve" smooth="yes"/>
      <point x="232" y="857"/>
      <point x="659" y="637"/>
      <point x="709" y="600" type="curve"/>
      <point x="645" y="601" type="line"/>
      <point x="193" y="817"/>
      <point x="60" y="771"/>
      <point x="186" y="604" type="curve"/>
    </contour>
  </outline>
</glyph>
<glyph name="dvmI.a13" format="1">
  <advance width="270"/>
  <outline>
    <contour>
      <point x="1183" y="585" type="move" name="abvm.i"/>
    </contour>
    <contour>
      <point x="73" y="536" type="line"/>
      <point x="197" y="536" type="line"/>
      <point x="197" y="-57" type="line"/>
      <point x="73" y="-1" type="line"/>
    </contour>
    <contour>
      <point x="-3" y="619" type="line"/>
      <point x="274" y="619" type="line"/>
      <point x="274" y="523" type="line"/>
      <point x="-3" y="523" type="line"/>
    </contour>
    <contour>
      <point x="80" y="604" type="line"/>
      <point x="66" y="667"/>
      <point x="57" y="721"/>
      <point x="72" y="763" type="curve" smooth="yes"/>
      <point x="88" y="806"/>
      <point x="432" y="860"/>
      <point x="470" y="860" type="curve" smooth="yes"/>
      <point x="557" y="860"/>
      <point x="1187" y="625"/>
      <point x="1243" y="600" type="curve"/>
      <point x="1139" y="601" type="line"/>
      <point x="749" y="742"/>
      <point x="139" y="848"/>
      <point x="196" y="604" type="curve"/>
    </contour>
  </outline>
</glyph>
<glyph name="dvmI.a14" format="1">
  <advance width="268"/>
  <outline>
    <contour>
      <point x="1230" y="587" type="move" name="abvm.i"/>
    </contour>
    <contour>
      <point x="73" y="536" type="line"/>
      <point x="197" y="536" type="line"/>
      <point x="197" y="-57" type="line"/>
      <point x="73" y="-1" type="line"/>
    </contour>
    <contour>
      <point x="-3" y="619" type="line"/>
      <point x="274" y="619" type="line"/>
      <point x="274" y="523" type="line"/>
      <point x="-3" y="523" type="line"/>
    </contour>
    <contour>
      <point x="80" y="604" type="line"/>
      <point x="73" y="667"/>
      <point x="64" y="721"/>
      <point x="79" y="763" type="curve" smooth="yes"/>
      <point x="95" y="806"/>
      <point x="443" y="860"/>
      <point x="481" y="860" type="curve" smooth="yes"/>
      <point x="568" y="860"/>
      <point x="1227" y="625"/>
      <point x="1283" y="600" type="curve"/>
      <point x="1179" y="601" type="line"/>
      <point x="815" y="728"/>
      <point x="568" y="775"/>
      <point x="355" y="742" type="curve" smooth="yes"/>
      <point x="261" y="727"/>
      <point x="178" y="695"/>
      <point x="196" y="604" type="curve"/>
    </contour>
  </outline>
</glyph>
<glyph name="dvmI.a22" format="1">
  <advance width="270"/>
  <outline>
    <contour>
      <point x="1585" y="587" type="move" name="abvm.i"/>
    </contour>
    <contour>
      <point x="73" y="536" type="line"/>
      <point x="197" y="536" type="line"/>
      <point x="197" y="-57" type="line"/>
      <point x="73" y="-1" type="line"/>
    </contour>
    <contour>
      <point x="-3" y="619" type="line"/>
      <point x="274" y="619" type="line"/>
      <point x="274" y="523" type="line"/>
      <point x="-3" y="523" type="line"/>
    </contour>
    <contour>
      <point x="80" y="604" type="line"/>
      <point x="66" y="667"/>
      <point x="64" y="721"/>
      <point x="79" y="763" type="curve" smooth="yes"/>
      <point x="95" y="806"/>
      <point x="704" y="866"/>
      <point x="741" y="860" type="curve" smooth="yes"/>
      <point x="813" y="848"/>
      <point x="1567" y="625"/>
      <point x="1623" y="600" type="curve"/>
      <point x="1519" y="601" type="line"/>
      <point x="1143" y="710"/>
      <point x="829" y="785"/>
      <point x="628" y="775" type="curve" smooth="yes"/>
      <point x="524" y="770"/>
      <point x="174" y="730"/>
      <point x="196" y="604" type="curve"/>
    </contour>
  </outline>
</glyph>
<glyph name="dvmI.a23" format="1">
  <advance width="287"/>
  <outline>
    <contour>
      <point x="1628" y="587" type="move" name="abvm.i"/>
    </contour>
  </outline>
</glyph>
<glyph name="dvmI.a27" format="1">
  <advance width="271"/>
  <outline>
    <contour>
      <point x="1771" y="587" type="move" name="abvm.i"/>
    </contour>
    <contour>
      <point x="73" y="536" type="line"/>
      <point x="197" y="536" type="line"/>
      <point x="197" y="-57" type="line"/>
      <point x="73" y="-1" type="line"/>
    </contour>
    <contour>
      <point x="-3" y="619" type="line"/>
      <point x="274" y="619" type="line"/>
      <point x="274" y="523" type="line"/>
      <point x="-3" y="523" type="line"/>
    </contour>
    <contour>
      <point x="80" y="604" type="line"/>
      <point x="70" y="667"/>
      <point x="58" y="726"/>
      <point x="73" y="768" type="curve" smooth="yes"/>
      <point x="89" y="811"/>
      <point x="954" y="876"/>
      <point x="991" y="870" type="curve" smooth="yes"/>
      <point x="1063" y="858"/>
      <point x="1767" y="625"/>
      <point x="1823" y="600" type="curve"/>
      <point x="1719" y="601" type="line"/>
      <point x="1316" y="710"/>
      <point x="1158" y="766"/>
      <point x="954" y="773" type="curve" smooth="yes"/>
      <point x="790" y="779"/>
      <point x="126" y="776"/>
      <point x="196" y="604" type="curve"/>
    </contour>
  </outline>
</glyph>
<glyph name="dvmI.a29" format="1">
  <advance width="271"/>
  <outline>
    <contour>
      <point x="1852" y="587" type="move" name="abvm.i"/>
    </contour>
    <contour>
      <point x="73" y="536" type="line"/>
      <point x="197" y="536" type="line"/>
      <point x="197" y="-57" type="line"/>
      <point x="73" y="-1" type="line"/>
    </contour>
    <contour>
      <point x="-3" y="619" type="line"/>
      <point x="274" y="619" type="line"/>
      <point x="274" y="523" type="line"/>
      <point x="-3" y="523" type="line"/>
    </contour>
    <contour>
      <point x="80" y="604" type="line"/>
      <point x="70" y="667"/>
      <point x="76" y="725"/>
      <point x="91" y="767" type="curve" smooth="yes"/>
      <point x="107" y="810"/>
      <point x="1024" y="876"/>
      <point x="1061" y="870" type="curve" smooth="yes"/>
      <point x="1133" y="858"/>
      <point x="1847" y="625"/>
      <point x="1903" y="600" type="curve"/>
      <point x="1799" y="601" type="line"/>
      <point x="1374" y="729"/>
      <point x="1183" y="773"/>
      <point x="1021" y="776" type="curve" smooth="yes"/>
      <point x="857" y="779"/>
      <point x="113" y="773"/>
      <point x="196" y="604" type="curve"/>
    </contour>
  </outline>
</glyph>
<glyph name="dvmI.a32" format="1">
  <advance width="268"/>
  <outline>
    <contour>
      <point x="1962" y="587" type="move" name="abvm.i"/>
    </contour>
    <contour>
      <point x="73" y="536" type="line"/>
      <point x="197" y="536" type="line"/>
      <point x="197" y="-57" type="line"/>
      <point x="73" y="-1" type="line"/>
    </contour>
    <contour>
      <point x="-3" y="619" type="line"/>
      <point x="274" y="619" type="line"/>
      <point x="274" y="523" type="line"/>
      <point x="-3" y="523" type="line"/>
    </contour>
    <contour>
      <point x="80" y="604" type="line"/>
      <point x="70" y="667"/>
      <point x="73" y="737"/>
      <point x="88" y="779" type="curve" smooth="yes"/>
      <point x="104" y="822"/>
      <point x="1201" y="879"/>
      <point x="1238" y="873" type="curve" smooth="yes"/>
      <point x="1310" y="861"/>
      <point x="1957" y="625"/>
      <point x="2013" y="600" type="curve"/>
      <point x="1909" y="601" type="line"/>
      <point x="1439" y="744"/>
      <point x="1348" y="811"/>
      <point x="970" y="776" type="curve" smooth="yes"/>
      <point x="767" y="757"/>
      <point x="97" y="751"/>
      <point x="196" y="604" type="curve"/>
    </contour>
  </outline>
</glyph>
<glyph name="dvvRR" format="1">
  <advance width="911"/>
  <outline>
    <contour>
      <point x="462" y="619" type="move" name="abvm.bindu"/>
    </contour>
    <contour>
      <point x="441" y="619" type="move" name="abvm.e"/>
    </contour>
    <contour>
      <point x="384" y="538" type="line"/>
      <point x="508" y="538" type="line"/>
      <point x="508" y="-55" type="line"/>
      <point x="384" y="1" type="line"/>
    </contour>
    <contour>
      <point x="-11" y="619" type="line"/>
      <point x="923" y="619" type="line"/>
      <point x="923" y="523" type="line"/>
      <point x="-11" y="523" type="line"/>
    </contour>
    <contour>
      <point x="745" y="265" type="line"/>
      <point x="683" y="331" type="line"/>
      <point x="624" y="255"/>
      <point x="517" y="286"/>
      <point x="450" y="325" type="curve"/>
      <point x="452" y="359" type="line"/>
      <point x="490" y="346"/>
      <point x="560" y="331"/>
      <point x="613" y="383" type="curve"/>
      <point x="600" y="395"/>
      <point x="587" y="423"/>
      <point x="591" y="430" type="curve" smooth="yes"/>
      <point x="606" y="460"/>
      <point x="665" y="491"/>
      <point x="681" y="489" type="curve" smooth="yes"/>
      <point x="695" y="487"/>
      <point x="774" y="421"/>
      <point x="750" y="393" type="curve" smooth="yes"/>
      <point x="712" y="350" type="line"/>
      <point x="768" y="283" type="line"/>
    </contour>
    <contour>
      <point x="770" y="173" type="curve"/>
      <point x="824" y="117" type="line"/>
      <point x="767" y="95"/>
      <point x="652" y="32"/>
      <point x="715" y="-14" type="curve" smooth="yes"/>
      <point x="741" y="-33"/>
      <point x="784" y="-25"/>
      <point x="826" y="34" type="curve"/>
      <point x="920" y="0" type="line"/>
      <point x="831" y="-108"/>
      <point x="713" y="-102"/>
      <point x="646" y="13" type="curve" smooth="yes"/>
      <point x="620" y="59"/>
      <point x="629" y="116"/>
    </contour>
    <contour>
      <point x="790" y="258" type="line"/>
      <point x="686" y="212"/>
      <point x="637" y="189"/>
      <point x="741" y="123" type="curve"/>
      <point x="726" y="105" type="line"/>
      <point x="612" y="168"/>
      <point x="523" y="208"/>
      <point x="739" y="317" type="curve"/>
    </contour>
    <contour>
      <point x="408" y="273" type="line"/>
      <point x="328" y="323"/>
      <point x="207" y="328"/>
      <point x="103" y="317" type="curve"/>
      <point x="65" y="441" type="line"/>
      <point x="149" y="452"/>
      <point x="324" y="416"/>
      <point x="426" y="352" type="curve"/>
    </contour>
    <contour>
      <point x="429" y="219" type="line"/>
      <point x="397" y="176"/>
      <point x="301" y="113"/>
      <point x="192" y="53" type="curve"/>
      <point x="115" y="142" type="line"/>
      <point x="228" y="189"/>
      <point x="330" y="239"/>
      <point x="385" y="286" type="curve"/>
    </contour>
  </outline>
</glyph>
<glyph name="dvvR" format="1">
  <advance width="853"/>
  <outline>
    <contour>
      <point x="443" y="619" type="move" name="abvm.bindu"/>
    </contour>
    <contour>
      <point x="432" y="621" type="move" name="abvm.e"/>
    </contour>
    <contour>
      <point x="-11" y="619" type="line"/>
      <point x="859" y="619" type="line"/>
      <point x="859" y="523" type="line"/>
      <point x="488" y="523" type="line"/>
      <point x="488" y="346" type="line"/>
      <point x="521" y="345"/>
      <point x="558" y="352"/>
      <point x="589" y="383" type="curve"/>
      <point x="576" y="395"/>
      <point x="563" y="423"/>
      <point x="567" y="430" type="curve" smooth="yes"/>
      <point x="582" y="460"/>
      <point x="641" y="491"/>
      <point x="657" y="489" type="curve" smooth="yes"/>
      <point x="671" y="487"/>
      <point x="750" y="421"/>
      <point x="726" y="393" type="curve" smooth="yes"/>
      <point x="688" y="350" type="line"/>
      <point x="737" y="291" type="line"/>
      <point x="813" y="210" type="line"/>
      <point x="537" y="110"/>
      <point x="660" y="-68"/>
      <point x="851" y="96" type="curve"/>
      <point x="944" y="40" type="line"/>
      <point x="858" y="-49"/>
      <point x="754" y="-62"/>
      <point x="717" y="-40" type="curve" smooth="yes"/>
      <point x="666" y="-10"/>
      <point x="611" y="44"/>
      <point x="591" y="73" type="curve" smooth="yes"/>
      <point x="566" y="109"/>
      <point x="542" y="190"/>
      <point x="709" y="277" type="curve"/>
      <point x="659" y="331" type="line"/>
      <point x="616" y="276"/>
      <point x="548" y="276"/>
      <point x="488" y="296" type="curve"/>
      <point x="488" y="-55" type="line"/>
      <point x="364" y="1" type="line"/>
      <point x="364" y="175" type="line"/>
      <point x="318" y="138"/>
      <point x="248" y="95"/>
      <point x="172" y="53" type="curve"/>
      <point x="95" y="142" type="line"/>
      <point x="207" y="188"/>
      <point x="308" y="238"/>
      <point x="364" y="285" type="curve"/>
      <point x="364" y="286" type="line"/>
      <point x="285" y="323"/>
      <point x="177" y="327"/>
      <point x="83" y="317" type="curve"/>
      <point x="45" y="441" type="line"/>
      <point x="118" y="450"/>
      <point x="261" y="424"/>
      <point x="364" y="375" type="curve"/>
      <point x="364" y="523" type="line"/>
      <point x="-11" y="523" type="line"/>
    </contour>
  </outline>
</glyph>
<glyph name="indianrupee" format="1">
  <advance width="699"/>
  <outline>
    <contour>
      <point x="78" y="456" type="line"/>
      <point x="572" y="456" type="line"/>
      <point x="602" y="383" type="line"/>
      <point x="108" y="383" type="line"/>
    </contour>
    <contour>
      <point x="68" y="596" type="line"/>
      <point x="562" y="596" type="line"/>
      <point x="592" y="523" type="line"/>
      <point x="98" y="523" type="line"/>
    </contour>
    <contour>
      <point x="416" y="553" type="line"/>
      <point x="489" y="371"/>
      <point x="560" y="230"/>
      <point x="278" y="152" type="curve"/>
      <point x="341" y="60"/>
      <point x="438" y="3"/>
      <point x="485" y="-20" type="curve"/>
      <point x="457" y="-56" type="line"/>
      <point x="334" y="15"/>
      <point x="222" y="83"/>
      <point x="112" y="255" type="curve"/>
      <point x="105" y="271"/>
      <point x="123" y="314"/>
      <point x="141" y="335" type="curve" smooth="yes"/>
      <point x="155" y="352"/>
      <point x="191" y="338"/>
      <point x="211" y="319" type="curve"/>
      <point x="223" y="306"/>
      <point x="230" y="288"/>
      <point x="243" y="255" type="curve"/>
      <point x="468" y="273"/>
      <point x="377" y="462"/>
      <point x="341" y="553" type="curve"/>
    </contour>
  </outline>
</glyph>
